<?xml version="1.0" encoding="UTF-8" standalone="no"?>
<!-- Generator: Adobe Illustrator 23.0.1, SVG Export Plug-In . SVG Version: 6.00 Build 0)  -->

<svg
   xmlns:dc="http://purl.org/dc/elements/1.1/"
   xmlns:cc="http://creativecommons.org/ns#"
   xmlns:rdf="http://www.w3.org/1999/02/22-rdf-syntax-ns#"
   xmlns:svg="http://www.w3.org/2000/svg"
   xmlns="http://www.w3.org/2000/svg"
   xmlns:xlink="http://www.w3.org/1999/xlink"
   xmlns:sodipodi="http://sodipodi.sourceforge.net/DTD/sodipodi-0.dtd"
   xmlns:inkscape="http://www.inkscape.org/namespaces/inkscape"
   version="1.1"
   x="0px"
   y="0px"
   viewBox="0 0 256 256"
   style="enable-background:new 0 0 256 256;"
   xml:space="preserve"
   id="svg28"
   sodipodi:docname="icon.svg"
   inkscape:export-filename="M:\LeonelD\Dev\_Misc\lg\icon.png"
   inkscape:export-xdpi="96"
   inkscape:export-ydpi="96"
   inkscape:version="0.92.4 (5da689c313, 2019-01-14)"><metadata
   id="metadata34"><rdf:RDF><cc:Work
       rdf:about=""><dc:format>image/svg+xml</dc:format><dc:type
         rdf:resource="http://purl.org/dc/dcmitype/StillImage" /></cc:Work></rdf:RDF></metadata><defs
   id="defs32" /><sodipodi:namedview
   pagecolor="#ffffff"
   bordercolor="#666666"
   borderopacity="1"
   objecttolerance="10"
   gridtolerance="10"
   guidetolerance="10"
   inkscape:pageopacity="0"
   inkscape:pageshadow="2"
   inkscape:window-width="1920"
   inkscape:window-height="1057"
   id="namedview30"
   showgrid="false"
   inkscape:zoom="2.6074563"
   inkscape:cx="114.48756"
   inkscape:cy="108.2696"
   inkscape:window-x="1912"
   inkscape:window-y="-8"
   inkscape:window-maximized="1"
   inkscape:current-layer="svg28" />
<style
   type="text/css"
   id="style2">
	.st0{fill:#B6033A;}
	.st1{fill:url(#SVGID_1_);}
	.st2{clip-path:url(#SVGID_3_);fill:#FFFFFF;}
</style>
<g
   id="Layer_1">
	<g
   id="g6">
		<circle
   class="st0"
   cx="128"
   cy="128"
   r="124.5"
   id="circle4"
   style="fill:#b6033a" />
	</g>
	<linearGradient
   id="SVGID_1_"
   gradientUnits="userSpaceOnUse"
   x1="56.714699"
   y1="60.906502"
   x2="203.83279"
   y2="189.6577">
		<stop
   offset="0"
   style="stop-color:#DA7172"
   id="stop8" />
		<stop
   offset="0.918"
   style="stop-color:#B6033A"
   id="stop10" />
	</linearGradient>
	<path
   class="st1"
   d="M 213,112 C 213,173 169,212 112,212 79,212 12,191.29 12,127.5 12,63.71 63.71,12 127.5,12 197,12 213,71 213,112 Z"
   id="path13"
   inkscape:connector-curvature="0"
   style="fill:url(#SVGID_1_)" />
</g>
<g
   id="Layer_3">
</g>
<g
   id="Layer_4">
	<g
   id="g25">
		<defs
   id="defs18">
			<circle
   id="SVGID_2_"
   cx="128.5"
   cy="127.5"
   r="116.5" />
		</defs>
		<clipPath
   id="SVGID_3_">
			<use
   xlink:href="#SVGID_2_"
   style="overflow:visible"
   id="use20"
   x="0"
   y="0"
   width="100%"
   height="100%" />
		</clipPath>
		<path
   class="st2"
   d="M 175.79,28 H 80.21 c -10,0 -18.1,8.1 -18.1,18.1 v 371.8 c 0,10 8.1,18.1 18.1,18.1 h 95.59 c 10,0 18.1,-8.1 18.1,-18.1 V 46.1 C 193.89,36.1 185.79,28 175.79,28 Z m -33.26,69.38 h 0.35 c 6.47,0.09 11.69,5.31 11.78,11.78 0.1,6.6 -5.18,12.04 -11.78,12.13 -6.6,0.1 -12.04,-5.18 -12.13,-11.78 -0.1,-6.6 5.18,-12.03 11.78,-12.13 z M 141.41,312 h -26.57 c 0,0 0,0 0,0 -1.02,-0.02 -1.84,-0.86 -1.82,-1.88 v -20.41 c 0,0 0,0 0,0 -0.02,-1.02 0.8,-1.87 1.82,-1.88 h 26.57 c 0,0 0,0 0,0 1.02,0.02 1.84,0.86 1.82,1.88 v 20.41 c 0,0 0,0 0,0 0.02,1.02 -0.8,1.86 -1.82,1.88 z m 1.82,8.22 v 20.39 c 0,0 0,0 0,0 0.02,1.02 -0.8,1.87 -1.82,1.88 h -26.57 c 0,0 0,0 0,0 -1.02,-0.02 -1.84,-0.86 -1.82,-1.88 V 320.2 c -0.02,-1.02 0.8,-1.87 1.82,-1.89 l 26.57,0.02 c 1.02,0.02 1.84,0.87 1.82,1.89 z m -1.82,-38.47 h -26.57 c 0,0 0,0 0,0 -1.02,-0.02 -1.84,-0.86 -1.82,-1.88 v -20.41 c 0,0 0,0 0,0 -0.02,-1.02 0.8,-1.87 1.82,-1.88 v -0.04 h 26.57 c 0,0 0,0 0,0 1.02,0.02 1.84,0.86 1.82,1.88 v 20.45 c 0,0 0,0 0,0 0.02,1.02 -0.8,1.87 -1.82,1.88 z m 0,-30.09 h -26.57 c 0,0 0,0 0,0 -1.02,-0.02 -1.84,-0.86 -1.82,-1.88 v -20.41 c -0.02,-1.02 0.8,-1.87 1.82,-1.89 l 26.57,0.02 c 1.02,0.02 1.84,0.87 1.82,1.89 v 20.39 c 0,0 0,0 0,0 0.02,1.02 -0.8,1.87 -1.82,1.88 z m 0,-30.5 h -26.57 c 0,0 0,0 0,0 -1.02,-0.02 -1.84,-0.86 -1.82,-1.88 v -20.41 c 0,0 0,0 0,0 -0.02,-1.02 0.8,-1.87 1.82,-1.88 h 26.57 c 0,0 0,0 0,0 1.02,0.02 1.84,0.86 1.82,1.88 v 20.41 c 0,0 0,0 0,0 0.02,1.02 -0.8,1.87 -1.82,1.88 z m 0,-30.25 h -26.57 c 0,0 0,0 0,0 -1.02,-0.02 -1.84,-0.86 -1.82,-1.88 v -20.41 c 0,0 0,0 0,0 -0.02,-1.02 0.8,-1.87 1.82,-1.88 v -0.04 h 26.57 c 0,0 0,0 0,0 1.02,0.02 1.84,0.86 1.82,1.88 v 20.45 c 0,0 0,0 0,0 0.02,1.03 -0.8,1.87 -1.82,1.88 z m 0,-30.55 h -26.57 c 0,0 0,0 0,0 -1.02,-0.02 -1.84,-0.86 -1.82,-1.88 v -20.41 c 0,0 0,0 0,0 -0.02,-1.02 0.8,-1.87 1.82,-1.88 h 0.01 26.57 c 0,0 0,0 0,0 1.02,0.02 1.83,0.87 1.81,1.89 v 20.4 c 0,0 0,0 0,0 0.02,1.02 -0.8,1.87 -1.82,1.88 z M 113.74,97.39 c 6.65,0 12.04,5.39 12.04,12.04 0,6.52 -5.18,11.85 -11.69,12.04 -6.65,0.19 -12.19,-5.04 -12.39,-11.69 -0.19,-6.65 5.04,-12.19 11.69,-12.39 z M 105.11,312 H 78.54 c 0,0 0,0 0,0 -1.02,-0.02 -1.84,-0.86 -1.82,-1.88 v -20.41 c 0,0 0,0 0,0 -0.02,-1.02 0.8,-1.87 1.82,-1.88 h 26.57 c 0,0 0,0 0,0 1.02,0.02 1.84,0.86 1.82,1.88 v 20.41 c 0,0 0,0 0,0 0.02,1.02 -0.8,1.86 -1.82,1.88 z m 1.82,8.22 v 20.39 c 0,0 0,0 0,0 0.02,1.02 -0.8,1.87 -1.82,1.88 H 78.54 c 0,0 0,0 0,0 -1.02,-0.02 -1.84,-0.86 -1.82,-1.88 V 320.2 c -0.02,-1.02 0.8,-1.87 1.82,-1.89 l 26.57,0.02 c 1.02,0.02 1.84,0.87 1.82,1.89 z m -1.82,-38.47 H 78.54 c 0,0 0,0 0,0 -1.02,-0.02 -1.84,-0.86 -1.82,-1.88 v -20.41 c 0,0 0,0 0,0 -0.02,-1.02 0.8,-1.87 1.82,-1.88 v -0.04 h 26.57 c 0,0 0,0 0,0 1.02,0.02 1.84,0.86 1.82,1.88 v 20.45 c 0,0 0,0 0,0 0.02,1.02 -0.8,1.87 -1.82,1.88 z m 0,-30.09 H 78.54 c 0,0 0,0 0,0 -1.02,-0.02 -1.84,-0.86 -1.82,-1.88 v -20.41 c -0.02,-1.02 0.8,-1.87 1.82,-1.89 l 26.57,0.02 c 1.02,0.02 1.84,0.87 1.82,1.89 v 20.39 c 0,0 0,0 0,0 0.02,1.02 -0.8,1.87 -1.82,1.88 z m 0,-30.5 H 78.54 c 0,0 0,0 0,0 -1.02,-0.02 -1.84,-0.86 -1.82,-1.88 v -20.41 c 0,0 0,0 0,0 -0.02,-1.02 0.8,-1.87 1.82,-1.88 h 26.57 c 0,0 0,0 0,0 1.02,0.02 1.84,0.86 1.82,1.88 v 20.41 c 0,0 0,0 0,0 0.02,1.02 -0.8,1.87 -1.82,1.88 z m 0,-30.25 H 78.54 c 0,0 0,0 0,0 -1.02,-0.02 -1.84,-0.86 -1.82,-1.88 v -20.41 c 0,0 0,0 0,0 -0.02,-1.02 0.8,-1.87 1.82,-1.88 v -0.04 h 26.57 c 0,0 0,0 0,0 1.02,0.02 1.84,0.86 1.82,1.88 v 20.45 c 0,0 0,0 0,0 0.02,1.03 -0.8,1.87 -1.82,1.88 z m 0,-30.55 H 78.54 c 0,0 0,0 0,0 -1.02,-0.02 -1.84,-0.86 -1.82,-1.88 v -20.41 c 0,0 0,0 0,0 -0.02,-1.02 0.8,-1.87 1.82,-1.88 h 26.57 c 1.02,0.02 1.84,0.87 1.82,1.89 v 20.4 c 0,0 0,0 0,0 0.02,1.02 -0.8,1.87 -1.82,1.88 z M 93.93,48.23 94.45,48.22 c 0,0 0,0 0.01,0 9.73,0.01 17.62,7.9 17.61,17.64 -0.01,9.53 -7.59,17.32 -17.11,17.6 C 85.23,83.74 77.12,76.08 76.84,66.35 76.54,56.63 84.2,48.51 93.93,48.23 Z M 71.86,109.01 C 71.67,102.36 76.9,96.82 83.55,96.62 l 0.35,-0.01 c 6.65,0 12.04,5.39 12.04,12.04 0,6.52 -5.18,11.85 -11.69,12.04 -6.65,0.2 -12.2,-5.03 -12.39,-11.68 z m 35.09,268.52 h -0.03 v 35.55 c 0.01,0.31 -0.08,0.59 -0.21,0.85 v 0.91 h -1 c -0.19,0.07 -0.4,0.13 -0.61,0.14 H 78.53 c -0.02,0 -0.05,0 -0.07,0 -0.18,-0.01 -0.35,-0.07 -0.51,-0.13 h -1.48 v -22.51 h 0.24 v -14.79 -20.66 c 0,0 0,0 0,0 0,0 0,0 0,0 v -1.85 h 1.68 c 0.05,0 0.09,-0.03 0.14,-0.03 l -0.01,0.03 h 26.57 c 0,0 0,0 0,0 h 1.85 v 22.49 z m 36.62,36.76 c 0,0.68 -0.9,1.23 -2,1.23 h -29.14 c -1.11,0 -2,-0.55 -2,-1.23 v -10.86 c 0,-0.68 0.89,-1.23 2,-1.23 h 29.14 c 1.1,0 2,0.55 2,1.23 z m 0,-23.2 c 0,0.68 -0.9,1.23 -2,1.23 h -29.14 c -1.11,0 -2,-0.55 -2,-1.23 v -10.86 c 0,-0.68 0.89,-1.23 2,-1.23 h 29.14 c 1.1,0 2,0.55 2,1.23 z m 0,-23.36 c 0,0.68 -0.9,1.24 -2,1.24 h -29.14 c -1.11,0 -2,-0.55 -2,-1.24 v -10.86 c 0,-0.68 0.89,-1.24 2,-1.24 h 29.14 c 1.1,0 2,0.55 2,1.24 z m 35.6,9.8 h -0.03 v 14.79 h 0.03 v 22.51 h -1.54 c -0.11,0.02 -0.2,0.07 -0.31,0.07 h -26.57 c 0,0 0,0 0,0 -0.11,0 -0.2,-0.05 -0.31,-0.07 h -1.51 v -1.82 -20.69 -14.79 -20.66 c 0,0 0,0 0,0 v -1.85 h 1.68 c 0.05,0 0.09,-0.03 0.14,-0.03 l -0.01,0.03 h 26.57 c 0,0 0,0 0,0 h 1.85 v 22.51 z m 0.36,-36.91 c 0,0 0,0 0,0 0.02,1.02 -0.8,1.87 -1.82,1.88 h -26.57 c 0,0 0,0 0,0 -1.02,-0.02 -1.84,-0.86 -1.82,-1.88 v -20.41 c -0.02,-1.02 0.8,-1.87 1.82,-1.89 l 26.57,0.02 c 1.02,0.02 1.84,0.87 1.82,1.89 z m 0,-30.5 c 0,0 0,0 0,0 0.02,1.02 -0.8,1.87 -1.82,1.88 h -26.57 c 0,0 0,0 0,0 -1.02,-0.02 -1.84,-0.86 -1.82,-1.88 v -20.41 c 0,0 0,0 0,0 -0.02,-1.02 0.8,-1.87 1.82,-1.88 h 26.57 c 0,0 0,0 0,0 1.02,0.02 1.84,0.86 1.82,1.88 z m 0,-30.25 c 0,0 0,0 0,0 0.02,1.02 -0.8,1.87 -1.82,1.88 h -26.57 c 0,0 0,0 0,0 -1.02,-0.02 -1.84,-0.86 -1.82,-1.88 v -20.41 c 0,0 0,0 0,0 -0.02,-1.02 0.8,-1.87 1.82,-1.88 v -0.04 h 26.57 c 0,0 0,0 0,0 1.02,0.02 1.84,0.86 1.82,1.88 z m 0,-30.09 c 0,0 0,0 0,0 0.02,1.02 -0.8,1.87 -1.82,1.88 h -26.57 c 0,0 0,0 0,0 -1.02,-0.02 -1.84,-0.86 -1.82,-1.88 v -20.41 c -0.02,-1.02 0.8,-1.87 1.82,-1.89 l 26.57,0.02 c 1.02,0.02 1.84,0.87 1.82,1.89 z m 0,-30.5 c 0,0 0,0 0,0 0.02,1.02 -0.8,1.87 -1.82,1.88 h -26.57 c 0,0 0,0 0,0 -1.02,-0.02 -1.84,-0.86 -1.82,-1.88 v -20.41 c 0,0 0,0 0,0 -0.02,-1.02 0.8,-1.87 1.82,-1.88 h 26.57 c 0,0 0,0 0,0 1.02,0.02 1.84,0.86 1.82,1.88 z m 0,-30.25 c 0,0 0,0 0,0 0.02,1.02 -0.8,1.87 -1.82,1.88 h -26.57 c 0,0 0,0 0,0 -1.02,-0.02 -1.84,-0.86 -1.82,-1.88 v -20.41 c 0,0 0,0 0,0 -0.02,-1.02 0.8,-1.87 1.82,-1.88 v -0.04 h 26.57 c 0,0 0,0 0,0 1.02,0.02 1.84,0.86 1.82,1.88 z m 0,-30.55 c 0,0 0,0 0,0 0.02,1.02 -0.8,1.87 -1.82,1.88 h -26.57 c 0,0 0,0 0,0 -1.02,-0.02 -1.84,-0.86 -1.82,-1.88 v -20.41 c 0,0 0,0 0,0 -0.02,-1.02 0.8,-1.87 1.82,-1.88 h 0.01 26.57 c 0,0 0,0 0,0 1.02,0.02 1.83,0.87 1.81,1.89 z m -7.17,-37.34 c -6.6,0.1 -12.04,-5.18 -12.13,-11.78 -0.1,-6.6 5.18,-12.04 11.78,-12.13 h 0.35 c 6.47,0.09 11.69,5.31 11.78,11.78 0.1,6.6 -5.17,12.03 -11.78,12.13 z"
   clip-path="url(#SVGID_3_)"
   id="path23"
   inkscape:connector-curvature="0"
   style="fill:#ffffff" />
	</g>
</g>
</svg>