<svg id="svg4851" xmlns="http://www.w3.org/2000/svg" viewBox="0 0 173.53 799.11">
  <defs>
    <style>
      .cls-1 {
        fill: #030303;
        stroke-width: 1.5px;
      }

      .cls-1, .cls-19, .cls-23 {
        stroke: #6d6f71;
      }

      .cls-2 {
        fill: #101010;
        stroke: #58595b;
        stroke-width: 0.3px;
      }

      .cls-3 {
        fill: #5e6061;
      }

      .cls-4, .cls-49, .cls-52 {
        fill: #282828;
      }

      .cls-5 {
        fill: #141414;
        stroke-width: 0.51px;
      }

      .cls-42, .cls-5 {
        stroke: #000;
      }

      .cls-10, .cls-12, .cls-13, .cls-14, .cls-15, .cls-16, .cls-26, .cls-6, .cls-7, .cls-8, .cls-9 {
        fill: #fff;
      }

      .cls-10, .cls-11, .cls-12, .cls-13, .cls-14, .cls-15, .cls-16, .cls-21, .cls-22, .cls-24, .cls-27, .cls-28, .cls-30, .cls-31, .cls-32, .cls-35, .cls-37, .cls-38, .cls-40, .cls-41, .cls-43, .cls-51, .cls-53, .cls-55, .cls-7, .cls-8, .cls-9 {
        isolation: isolate;
      }

      .cls-7 {
        font-size: 6.25px;
      }

      .cls-10, .cls-12, .cls-13, .cls-14, .cls-15, .cls-16, .cls-21, .cls-22, .cls-24, .cls-27, .cls-28, .cls-29, .cls-30, .cls-31, .cls-32, .cls-35, .cls-37, .cls-38, .cls-40, .cls-41, .cls-43, .cls-51, .cls-53, .cls-54, .cls-55, .cls-7, .cls-8, .cls-9 {
        font-family: Arial-BoldMT, Arial;
        font-weight: 700;
      }

      .cls-10, .cls-8, .cls-9 {
        font-size: 7.8px;
      }

      .cls-8 {
        letter-spacing: -0.02em;
      }

      .cls-9 {
        letter-spacing: -0.04em;
      }

      .cls-12, .cls-13 {
        font-size: 10.49px;
      }

      .cls-13 {
        letter-spacing: -0.11em;
      }

      .cls-14 {
        font-size: 10.52px;
      }

      .cls-15 {
        font-size: 9.35px;
      }

      .cls-16, .cls-37, .cls-38 {
        font-size: 12.5px;
      }

      .cls-17 {
        fill: #ee3841;
        stroke: #762f2f;
        stroke-width: 0.7px;
      }

      .cls-17, .cls-45 {
        stroke-linecap: round;
        stroke-linejoin: round;
      }

      .cls-18, .cls-32, .cls-33, .cls-37, .cls-38, .cls-40, .cls-41, .cls-43, .cls-45 {
        fill: #f9f9f9;
      }

      .cls-19 {
        fill: #ebfefc;
      }

      .cls-19, .cls-23, .cls-45, .cls-49, .cls-52 {
        stroke-width: 0.5px;
      }

      .cls-20, .cls-21, .cls-22, .cls-24, .cls-27, .cls-28, .cls-29, .cls-30, .cls-31 {
        fill: #010202;
      }

      .cls-21 {
        font-size: 15.58px;
      }

      .cls-22, .cls-28, .cls-29, .cls-30, .cls-32, .cls-51 {
        font-size: 12.47px;
      }

      .cls-23 {
        fill: #83c0ff;
      }

      .cls-24 {
        font-size: 16.93px;
      }

      .cls-25 {
        letter-spacing: -0.02em;
      }

      .cls-26, .cls-33 {
        fill-opacity: 0;
      }

      .cls-27 {
        font-size: 17.55px;
      }

      .cls-28 {
        letter-spacing: -0.06em;
      }

      .cls-30 {
        letter-spacing: -0.11em;
      }

      .cls-31 {
        font-size: 12.33px;
      }

      .cls-34 {
        fill: #1396f1;
        stroke: #010202;
        stroke-width: 0.83px;
      }

      .cls-35 {
        font-size: 10.79px;
      }

      .cls-35, .cls-36, .cls-42 {
        fill: #121212;
      }

      .cls-38 {
        letter-spacing: -0.04em;
      }

      .cls-39 {
        fill: #eec35c;
      }

      .cls-40 {
        font-size: 6.24px;
      }

      .cls-41 {
        font-size: 12.51px;
      }

      .cls-42 {
        stroke-width: 0.8px;
      }

      .cls-43 {
        font-size: 14.04px;
      }

      .cls-44 {
        fill: #cd1533;
      }

      .cls-45 {
        stroke: #f9f9f9;
      }

      .cls-46 {
        fill: #00c986;
      }

      .cls-47 {
        fill: #ead143;
      }

      .cls-48 {
        fill: #094ad2;
      }

      .cls-49 {
        stroke: #131313;
      }

      .cls-50, .cls-51, .cls-53, .cls-54, .cls-55 {
        fill: #fafefd;
      }

      .cls-52 {
        stroke: #141414;
      }

      .cls-53, .cls-54, .cls-55 {
        font-size: 12.51px;
      }

      .cls-53 {
        letter-spacing: -0.11em;
      }
    </style>
  </defs>
  <!-- <title>remote-ai-export</title> -->
  <g id="Background">
    <g id="BG">
      <path id="path4289" class="cls-1" d="M90.45,1.17a594.93,594.93,0,0,0-79.76,5c-6,.87-9.52,7.2-9.52,13.12V786.86c0,5.92,4.8,11.92,10.71,11.92H162.44c5.91,0,10.71-6,10.71-11.92l0-767.54c0-5.92-3.4-12-9.51-13.12,0,0-29.09-4.88-73.24-5Z" transform="translate(-0.42 -0.42)"/>
      <path id="path4293" class="cls-2" d="M92.92,5.88a572.54,572.54,0,0,0-77.08,5c-6,.87-10.72,4.8-10.72,10.72V784.16a10.72,10.72,0,0,0,10.72,10.72H159.05a10.72,10.72,0,0,0,10.72-10.72V21.62c0-5.92-4.28-9.72-10.72-10.72C159.05,10.9,134.18,6,92.92,5.88Z" transform="translate(-0.42 -0.42)"/>
      <path id="path4301" class="cls-3" d="M19.76,640.53a4.91,4.91,0,0,0-4.6,5.17V771.24a4.9,4.9,0,0,0,4.38,5.14l0,0H154.71a4.92,4.92,0,0,0,4.61-5.16V645.7a4.92,4.92,0,0,0-4.13-5.11l.08-.06H19.76Zm1.11,1.26h132.7a4.81,4.81,0,0,1,4.53,5.06V770.39a4.82,4.82,0,0,1-4.53,5.07H20.87a4.82,4.82,0,0,1-4.53-5.07V646.85A4.82,4.82,0,0,1,20.87,641.79Z" transform="translate(-0.42 -0.42)"/>
    </g>
    <g id="g4380">
      <path id="path4364" class="cls-4" d="M36.55,421.5a18.05,18.05,0,0,0-18,18.06V584.71a18.06,18.06,0,0,0,18,18.06H61.49V421.5Zm25.46,0V602.77h50.83V421.5Zm51.34,0V602.77h25a18.08,18.08,0,0,0,18.06-18.06V439.56a18.07,18.07,0,0,0-18.06-18.06h-25Z" transform="translate(-0.42 -0.42)"/>
      <path id="path4374" class="cls-5" d="M53.05,456.81c-12.09,0-21.88,9.26-21.88,20.69V549c0,11.42,9.79,20.67,21.88,20.67h68.36c12.07,0,21.87-9.25,21.87-20.67V477.5c0-11.43-9.8-20.69-21.87-20.69Z" transform="translate(-0.42 -0.42)"/>
    </g>
    <g id="g4362">
      <polyline id="polyline4336" class="cls-6" points="159.49 333.34 159.49 344.79 161.28 344.79 161.28 338.31 162.52 338.31"/>
      <polyline id="polyline4338" class="cls-6" points="159.49 393.43 159.49 381.98 161.28 381.98 161.28 388.47 162.52 388.47"/>
      <text id="text4340" class="cls-7" transform="translate(31.41 653.03) scale(0.85 1)">LIVE TV</text>
      <text id="text4342" class="cls-8" transform="translate(157.19 354.27)">P</text>
      <text id="text4344" class="cls-9" transform="translate(157.05 362.07)">A</text>
      <text id="text4346" class="cls-10" transform="translate(156.69 369.87)">G</text>
      <text id="text4348" class="cls-10" transform="translate(157.12 377.67)">E</text>
      <g id="text4354" class="cls-11">
        <text class="cls-12" transform="translate(55.11 93.98) scale(0.75 1)">R</text>
        <text class="cls-13" transform="translate(60.81 93.98) scale(0.75 1)">A</text>
        <text class="cls-12" transform="translate(65.94 93.98) scale(0.75 1)">TIO</text>
      </g>
      <text id="text4356" class="cls-14" transform="translate(92.83 93.98) scale(0.8 1)">INPUT</text>
      <text id="text4358" class="cls-15" transform="translate(30.45 308.44) scale(0.9 1)">LIST</text>
      <text id="text4360" class="cls-16" transform="translate(115.48 418.07) scale(0.7 1)">Q.MENU</text>
    </g>
  </g>
  <g id="Buttons">
    <g id="Power">
      <path id="path4383" class="cls-17" d="M41.6,31.91A23.21,23.21,0,1,0,65.48,55.13h0A23.21,23.21,0,0,0,42.28,31.9Z" transform="translate(-0.42 -0.42)"/>
      <path id="path4387" class="cls-18" d="M42.25,42a1.39,1.39,0,0,0-1.43,1.35V55.9a1.39,1.39,0,0,0,1.42,1.36A1.4,1.4,0,0,0,43.6,55.9V43.37A1.39,1.39,0,0,0,42.25,42Zm4.88,5.73a1.36,1.36,0,0,0-1.32,1.41,1.34,1.34,0,0,0,.69,1.14,7.21,7.21,0,0,1,3.34,6.08,7.58,7.58,0,0,1-15.16,0,7.16,7.16,0,0,1,3-5.88,1.32,1.32,0,0,0,.25-1.86l0,0A1.4,1.4,0,0,0,36,48.29a10,10,0,0,0-4.13,8l0,0a10.35,10.35,0,0,0,20.69,0A9.9,9.9,0,0,0,48,48,1.44,1.44,0,0,0,47.13,47.71Z" transform="translate(-0.42 -0.42)"/>
    </g>
    <g id="Help">
      <path id="path4392" class="cls-19" d="M27.74,95.65A15.86,15.86,0,1,0,44.06,111.5h0A15.86,15.86,0,0,0,28.2,95.64Z" transform="translate(-0.42 -0.42)"/>
      <path id="path4396" class="cls-20" d="M23.48,104.38a5.18,5.18,0,0,0-4.34,2.22.33.33,0,0,0,0,.14v11.64a.25.25,0,0,0,.25.25l.11,0a10,10,0,0,1,8.63,0,.28.28,0,0,0,.22,0,9.94,9.94,0,0,1,8.62,0,.25.25,0,0,0,.33-.12.23.23,0,0,0,0-.11V106.74a.33.33,0,0,0,0-.14,5.19,5.19,0,0,0-4.35-2.22h0a7.07,7.07,0,0,0-4.7,2.06,7,7,0,0,0-4.71-2.06Zm0,.5a6.53,6.53,0,0,1,4.55,2,.24.24,0,0,0,.35,0h0a6.61,6.61,0,0,1,4.53-2,4.66,4.66,0,0,1,3.88,2V118a10.46,10.46,0,0,0-8.59.09,10.48,10.48,0,0,0-8.6-.09V106.84a4.65,4.65,0,0,1,3.87-2Zm4,3.44a2,2,0,0,0-1.27.53l0,0a2.24,2.24,0,0,0-.43,1.52.35.35,0,0,0,.14.3.48.48,0,0,0,.34.11.42.42,0,0,0,.32-.11.34.34,0,0,0,.13-.3,1.77,1.77,0,0,1,.13-.85c.13-.17.44-.26.93-.26a1.18,1.18,0,0,1,.92.36,1.4,1.4,0,0,1,.32,1,1.64,1.64,0,0,1-.25.94,1.31,1.31,0,0,1-.87.56h-.2l-.34.1a.24.24,0,0,0-.14.17.89.89,0,0,0,0,.23v1.29a.21.21,0,0,0,.14.22.55.55,0,0,0,.31.08.61.61,0,0,0,.32-.08.21.21,0,0,0,.12-.22v-.83a3.28,3.28,0,0,0,1.26-.74,2.94,2.94,0,0,0,.08-3.48,2.21,2.21,0,0,0-1.65-.55Zm.09,6.81a.7.7,0,0,0-.5.2.75.75,0,0,0-.23.55.68.68,0,0,0,.23.52.72.72,0,0,0,.52.19.69.69,0,0,0,.51-.19.67.67,0,0,0,.25-.52.73.73,0,0,0-.25-.55.74.74,0,0,0-.51-.2Z" transform="translate(-0.42 -0.42)"/>
    </g>
    <g id="Ratio">
      <path id="path4401" class="cls-19" d="M67.05,96.67a15.86,15.86,0,1,0,16.32,15.85h0A15.86,15.86,0,0,0,67.51,96.66Z" transform="translate(-0.42 -0.42)"/>
      <path id="path4405" class="cls-20" d="M60.88,103.29h0a1.52,1.52,0,0,0-1.59,1.43h0v2H57.55a2.08,2.08,0,0,0-1.16.32,1.14,1.14,0,0,0-.56.93v9.67a1.11,1.11,0,0,0,.56.92,2.08,2.08,0,0,0,1.16.32h1.76v2h0a1.52,1.52,0,0,0,1.59,1.42H74.12a1.52,1.52,0,0,0,1.6-1.42h0v-2h1.75a2.08,2.08,0,0,0,1.16-.32,1.11,1.11,0,0,0,.56-.92v-9.67a1.14,1.14,0,0,0-.56-.93,2.08,2.08,0,0,0-1.16-.32H75.72v-2h0a1.53,1.53,0,0,0-1.6-1.43H60.88Zm0,.7H74.16a.82.82,0,0,1,.86.77v1.92H60v-1.92A.82.82,0,0,1,60.87,104Zm-3.32,3.39h1.76v10.76H57.55a1.54,1.54,0,0,1-.78-.2c-.18-.12-.24-.24-.24-.34v-9.67a.41.41,0,0,1,.24-.34A1.44,1.44,0,0,1,57.55,107.38Zm2.46,0H75v10.76H60Zm15.71,0h1.75a1.44,1.44,0,0,1,.78.21.41.41,0,0,1,.24.34v9.67c0,.1-.06.22-.24.34a1.54,1.54,0,0,1-.78.2H75.72ZM60,118.84H75v1.93a.81.81,0,0,1-.86.76H60.86a.8.8,0,0,1-.85-.76Z" transform="translate(-0.42 -0.42)"/>
    </g>
    <g id="Input">
      <path id="path4410" class="cls-19" d="M105.43,96.65a15.75,15.75,0,1,0,.46,0Z" transform="translate(-0.42 -0.42)"/>
      <path id="polyline4414" class="cls-20" d="M108.36,107a48.75,48.75,0,0,0-6.92.53l-.2,0h-.32v.3a26.09,26.09,0,0,0-.4,4.22H95.37V113h5.15a24.55,24.55,0,0,0,.4,4.1v.32h.47l.32,0,1.05.12c.88.1,2.08.22,3.46.29a37.54,37.54,0,0,0,9.21-.46h.27l.08-.25h0a18.2,18.2,0,0,0,.06-9.27l-.08-.26-.26,0h0a47.24,47.24,0,0,0-7.13-.53Zm0,.06,1,0c-.55,0-1.09,0-1.64,0l.63,0Zm3.47.13c.88.06,1.77.15,2.65.27C113.6,107.35,112.71,107.26,111.83,107.2Zm-4.51.73c1,0,1.9,0,2.85,0l1.24.07q1.68.1,3.36.33l.2,0a15.62,15.62,0,0,1,.52,4,17.2,17.2,0,0,1-.54,4.34,37.82,37.82,0,0,1-8.17.44L105,117c-.55,0-1-.08-1.5-.13-.89-.08-1.54-.17-1.83-.21q-.2-1.31-.27-2.61c0-.34-.05-.68-.06-1V113h3.57l0,1.87v.11l6.54-2.42L105,110v0l0,2h-3.6q0-1,.09-2c0-.34.08-.67.12-1l.09-.7q.78-.12,1.56-.21c.62-.07,1.23-.13,1.85-.18s1.5-.09,2.25-.11Zm7.72.38c.06.25.11.5.16.76,0-.24-.1-.47-.16-.7h0Zm.23,1.11c0,.28.1.55.14.83C115.37,110,115.33,109.7,115.27,109.42Zm.18,1.26a14.87,14.87,0,0,1,.11,1.63c0,.17,0,.34,0,.5,0-.16,0-.31,0-.47a15.4,15.4,0,0,0-.1-1.66Zm0,3-.06.62Zm-.26,2c-.06.34-.14.68-.22,1h0c.08-.34.16-.68.22-1Z" transform="translate(-0.42 -0.42)"/>
    </g>
    <g id="TV">
      <path id="path4429" class="cls-19" d="M144.26,96.44a15.75,15.75,0,1,0,.46,0Z" transform="translate(-0.42 -0.42)"/>
      <text id="text4433" class="cls-21" transform="translate(135.32 118.07) scale(0.9 1)">TV</text>
    </g>
    <g id="Num1">
      <path id="path4436" class="cls-19" d="M22.48,147.76a2.44,2.44,0,0,0-2.4,2.48h0v26.88a2.44,2.44,0,0,0,2.4,2.48h35a2.44,2.44,0,0,0,2.4-2.48V150.25a2.45,2.45,0,0,0-2.4-2.49Z" transform="translate(-0.42 -0.42)"/>
      <path id="path4440" class="cls-20" d="M43,172.07H39.81V158.73a10.74,10.74,0,0,1-4.12,2.68V158.2a9.22,9.22,0,0,0,2.72-1.72,6.53,6.53,0,0,0,2-3H43Z" transform="translate(-0.42 -0.42)"/>
    </g>
    <g id="Num2">
      <path id="path4443" class="cls-19" d="M70.29,147.76a2.44,2.44,0,0,0-2.4,2.48h0v26.88a2.44,2.44,0,0,0,2.4,2.48h35a2.44,2.44,0,0,0,2.4-2.48V150.25a2.44,2.44,0,0,0-2.39-2.49h-35Z" transform="translate(-0.42 -0.42)"/>
      <path id="path4447" class="cls-20" d="M93.65,168.78v3.29H82.48a9.14,9.14,0,0,1,1.09-3.53,22.79,22.79,0,0,1,3.58-4.43,25.16,25.16,0,0,0,2.65-3,4.23,4.23,0,0,0,.65-2.16,2.69,2.69,0,0,0-.57-1.83,2.26,2.26,0,0,0-3.17,0,3.64,3.64,0,0,0-.68,2.21L82.85,159a6.08,6.08,0,0,1,1.79-4.2,5.59,5.59,0,0,1,3.74-1.27,4.94,4.94,0,0,1,5.26,4.59,3.39,3.39,0,0,1,0,.55,6.88,6.88,0,0,1-.4,2.38A9.81,9.81,0,0,1,92,163.4a22.22,22.22,0,0,1-2.08,2.36c-1,1-1.64,1.7-1.91,2a6.65,6.65,0,0,0-.66,1Z" transform="translate(-0.42 -0.42)"/>
    </g>
    <g id="Num3">
      <path id="path4450" class="cls-19" d="M118.1,147.76a2.44,2.44,0,0,0-2.4,2.48h0v26.88a2.44,2.44,0,0,0,2.4,2.48h35a2.44,2.44,0,0,0,2.4-2.48V150.25a2.44,2.44,0,0,0-2.39-2.49h-35Z" transform="translate(-0.42 -0.42)"/>
      <path id="path4454" class="cls-20" d="M130.82,167.17l3.09-.42a3.39,3.39,0,0,0,.79,2,2.06,2.06,0,0,0,1.56.69,2.1,2.1,0,0,0,1.67-.83,3.41,3.41,0,0,0,.67-2.24,3.24,3.24,0,0,0-.65-2.12,2,2,0,0,0-1.57-.78,5.28,5.28,0,0,0-1.47.26l.36-2.88a2.6,2.6,0,0,0,2-.63,2.36,2.36,0,0,0,.68-1.76,2.1,2.1,0,0,0-.5-1.48,1.69,1.69,0,0,0-1.33-.56,1.82,1.82,0,0,0-1.39.63,3.1,3.1,0,0,0-.7,1.84l-2.94-.55a7.76,7.76,0,0,1,.92-2.68,4.32,4.32,0,0,1,1.73-1.58,5.27,5.27,0,0,1,2.47-.57,4.75,4.75,0,0,1,3.77,1.66,4.6,4.6,0,0,1,1.17,3.08,4.38,4.38,0,0,1-2.39,3.88,3.87,3.87,0,0,1,2.28,1.53,4.73,4.73,0,0,1,.86,2.86,5.84,5.84,0,0,1-1.6,4.14,5.53,5.53,0,0,1-7.73.28,6,6,0,0,1-1.75-3.77Z" transform="translate(-0.42 -0.42)"/>
    </g>
    <g id="Num4">
      <path id="path4457" class="cls-19" d="M22.48,188a2.44,2.44,0,0,0-2.4,2.48h0v26.88a2.44,2.44,0,0,0,2.4,2.48h35a2.44,2.44,0,0,0,2.4-2.48V190.43a2.44,2.44,0,0,0-2.4-2.48h-35Z" transform="translate(-0.42 -0.42)"/>
      <path id="path4461" class="cls-20" d="M41.09,213.22V209.5h-6.8v-3.1l7.21-11.73h2.68v11.72h2.06v3.11H44.18v3.72Zm0-6.83v-6.32l-3.82,6.32Z" transform="translate(-0.42 -0.42)"/>
    </g>
    <g id="Num5">
      <path id="path4464" class="cls-19" d="M70.29,188a2.44,2.44,0,0,0-2.4,2.48v26.88a2.44,2.44,0,0,0,2.4,2.48h35a2.44,2.44,0,0,0,2.4-2.48V190.43a2.44,2.44,0,0,0-2.4-2.48h-35Z" transform="translate(-0.42 -0.42)"/>
      <path id="path4468" class="cls-20" d="M82.7,208.47l3.18-.37a3.21,3.21,0,0,0,.8,1.9,2.14,2.14,0,0,0,1.55.7,2.07,2.07,0,0,0,1.69-.9,4.43,4.43,0,0,0,.69-2.72,4,4,0,0,0-.69-2.55,2.19,2.19,0,0,0-1.79-.85A3.14,3.14,0,0,0,85.67,205l-2.58-.42L84.72,195h8.43v3.32h-6l-.5,3.14a4.38,4.38,0,0,1,2.18-.6,4.59,4.59,0,0,1,3.59,1.72A6.57,6.57,0,0,1,93.88,207a7.27,7.27,0,0,1-1.18,4.07,5.13,5.13,0,0,1-4.51,2.44,5.2,5.2,0,0,1-3.75-1.37,5.9,5.9,0,0,1-1.74-3.67Z" transform="translate(-0.42 -0.42)"/>
    </g>
    <g id="Num6">
      <path id="path4471" class="cls-19" d="M118.1,188a2.44,2.44,0,0,0-2.4,2.48h0v26.88a2.44,2.44,0,0,0,2.4,2.48h35a2.44,2.44,0,0,0,2.4-2.48V190.43a2.44,2.44,0,0,0-2.4-2.48h-35Z" transform="translate(-0.42 -0.42)"/>
      <path id="path4475" class="cls-20" d="M140.73,199.27l-3.08.37a2.78,2.78,0,0,0-.59-1.56,1.64,1.64,0,0,0-1.24-.5,2,2,0,0,0-1.71,1,9.31,9.31,0,0,0-.87,4.19,3.59,3.59,0,0,1,3-1.56,4.33,4.33,0,0,1,3.42,1.69,6.56,6.56,0,0,1,1.42,4.36,6.66,6.66,0,0,1-1.5,4.55,4.89,4.89,0,0,1-3.84,1.71,5,5,0,0,1-4.14-2.17q-1.64-2.17-1.63-7.13c0-3.38.57-5.83,1.69-7.32a5.24,5.24,0,0,1,4.39-2.24,4.39,4.39,0,0,1,3.14,1.17,5.7,5.7,0,0,1,1.54,3.44ZM133.51,207a4.36,4.36,0,0,0,.71,2.67,2.06,2.06,0,0,0,1.64.94,1.78,1.78,0,0,0,1.47-.77,4.21,4.21,0,0,0,.59-2.52,4.37,4.37,0,0,0-.64-2.64,1.91,1.91,0,0,0-3.14,0A3.73,3.73,0,0,0,133.51,207Z" transform="translate(-0.42 -0.42)"/>
    </g>
    <g id="Num7">
      <path id="path4478" class="cls-19" d="M22.48,227.84a2.44,2.44,0,0,0-2.4,2.48h0V257.2a2.44,2.44,0,0,0,2.4,2.48h35a2.44,2.44,0,0,0,2.4-2.48h0V230.32a2.44,2.44,0,0,0-2.4-2.48h-35Z" transform="translate(-0.42 -0.42)"/>
      <path id="path4482" class="cls-20" d="M34.84,238.24V235h10.9v2.57A19.39,19.39,0,0,0,43,241.76a26.52,26.52,0,0,0-2.13,5.86,23.66,23.66,0,0,0-.72,5.55H37.08a26,26,0,0,1,1.42-7.81,27.07,27.07,0,0,1,3.59-7.12Z" transform="translate(-0.42 -0.42)"/>
    </g>
    <g id="Num8">
      <path id="path4485" class="cls-19" d="M70.29,227.84a2.44,2.44,0,0,0-2.4,2.48V257.2a2.44,2.44,0,0,0,2.4,2.48h35a2.44,2.44,0,0,0,2.4-2.48h0V230.32a2.44,2.44,0,0,0-2.4-2.48h-35Z" transform="translate(-0.42 -0.42)"/>
      <path id="path4489" class="cls-20" d="M85.57,243.2a3.79,3.79,0,0,1-1.79-1.59,4.42,4.42,0,0,1-.56-2.22A4.72,4.72,0,0,1,84.51,236a5.72,5.72,0,0,1,7.38,0,4.73,4.73,0,0,1,1.31,3.42,4.35,4.35,0,0,1-.6,2.28,3.91,3.91,0,0,1-1.69,1.53A4.62,4.62,0,0,1,93,245a5.15,5.15,0,0,1,.72,2.73,5.88,5.88,0,0,1-1.47,4.16,5,5,0,0,1-3.9,1.6,5.5,5.5,0,0,1-3.78-1.32,5.4,5.4,0,0,1-1.78-4.29,5.73,5.73,0,0,1,.67-2.75,4.4,4.4,0,0,1,2.11-1.93Zm.37,4.35a3.45,3.45,0,0,0,.67,2.28,2.1,2.1,0,0,0,1.69.82,2,2,0,0,0,1.63-.78,3.56,3.56,0,0,0,.65-2.28,3.12,3.12,0,0,0-.66-2.08,2.08,2.08,0,0,0-1.67-.79,1.93,1.93,0,0,0-1.74.89,3.6,3.6,0,0,0-.57,1.94Zm.29-7.91a2.4,2.4,0,0,0,.54,1.65,2.06,2.06,0,0,0,2.89,0,2.4,2.4,0,0,0,.54-1.65,2.33,2.33,0,0,0-.53-1.6,2,2,0,0,0-2.83-.06l-.06.06A2.28,2.28,0,0,0,86.23,239.64Z" transform="translate(-0.42 -0.42)"/>
    </g>
    <g id="Num9">
      <path id="path4492" class="cls-19" d="M118.1,227.84a2.44,2.44,0,0,0-2.4,2.48h0V257.2a2.44,2.44,0,0,0,2.4,2.48h35a2.44,2.44,0,0,0,2.4-2.48h0V230.32a2.44,2.44,0,0,0-2.4-2.48h-35Z" transform="translate(-0.42 -0.42)"/>
      <path id="path4496" class="cls-20" d="M130,248.9l3.09-.38a2.59,2.59,0,0,0,.59,1.55,1.67,1.67,0,0,0,1.26.51,2,2,0,0,0,1.68-1,9.44,9.44,0,0,0,.88-4.18,3.69,3.69,0,0,1-3,1.55,4.31,4.31,0,0,1-3.38-1.69,6.55,6.55,0,0,1-1.43-4.38,6.66,6.66,0,0,1,1.51-4.53,4.89,4.89,0,0,1,3.83-1.72,5,5,0,0,1,4.15,2.18Q140.8,239,140.8,244c0,3.38-.56,5.81-1.69,7.31a5.26,5.26,0,0,1-4.4,2.24,4.39,4.39,0,0,1-3.16-1.15A5.85,5.85,0,0,1,130,248.9Zm7.22-7.74a4.33,4.33,0,0,0-.71-2.66,2,2,0,0,0-1.64-.94,1.78,1.78,0,0,0-1.47.77,5.74,5.74,0,0,0,0,5.17,1.91,1.91,0,0,0,2.66.48,1.83,1.83,0,0,0,.48-.48,3.75,3.75,0,0,0,.67-2.34Z" transform="translate(-0.42 -0.42)"/>
    </g>
    <g id="Num0">
      <path id="path4499" class="cls-19" d="M70.29,268a2.45,2.45,0,0,0-2.4,2.49v26.88a2.44,2.44,0,0,0,2.4,2.48h35a2.44,2.44,0,0,0,2.4-2.48V270.51a2.45,2.45,0,0,0-2.4-2.49Z" transform="translate(-0.42 -0.42)"/>
      <path id="path4503" class="cls-20" d="M88.3,274.61a4.33,4.33,0,0,1,3.77,1.91c1.09,1.51,1.64,4,1.63,7.53s-.55,6-1.64,7.53a4.37,4.37,0,0,1-3.76,1.89,4.64,4.64,0,0,1-3.92-2.07c-1-1.38-1.48-3.85-1.48-7.39s.54-6,1.63-7.51a4.37,4.37,0,0,1,3.77-1.89Zm0,2.93a1.55,1.55,0,0,0-1,.41,2.88,2.88,0,0,0-.7,1.47,22.46,22.46,0,0,0-.33,4.63,22.21,22.21,0,0,0,.3,4.46,3.26,3.26,0,0,0,.74,1.62,1.42,1.42,0,0,0,2,0,2.88,2.88,0,0,0,.7-1.47,22.27,22.27,0,0,0,.33-4.61,23.06,23.06,0,0,0-.29-4.47A3.39,3.39,0,0,0,89.3,278,1.5,1.5,0,0,0,88.3,277.54Z" transform="translate(-0.42 -0.42)"/>
    </g>
    <g id="List">
      <path id="path4506" class="cls-19" d="M22.48,268a2.45,2.45,0,0,0-2.4,2.49v26.88a2.44,2.44,0,0,0,2.4,2.48h35a2.44,2.44,0,0,0,2.4-2.48V270.51a2.45,2.45,0,0,0-2.4-2.49Z" transform="translate(-0.42 -0.42)"/>
      <path id="path4510" class="cls-20" d="M30.46,282.14a1.83,1.83,0,0,0,0,3.61H49.53a1.83,1.83,0,0,0,0-3.61" transform="translate(-0.42 -0.42)"/>
    </g>
    <g id="QView">
      <path id="path4513" class="cls-19" d="M118.1,268a2.45,2.45,0,0,0-2.4,2.49v26.88a2.44,2.44,0,0,0,2.4,2.48h35a2.44,2.44,0,0,0,2.4-2.48V270.51a2.45,2.45,0,0,0-2.4-2.49Z" transform="translate(-0.42 -0.42)"/>
      <text id="text4517" class="cls-22" transform="translate(117.17 288.63) scale(0.8 1)">Q.VIEW</text>
    </g>
    <g id="VolBtn">
      <path id="path4520" class="cls-23" d="M22.48,325a2.44,2.44,0,0,0-2.4,2.48h0v73.94A2.44,2.44,0,0,0,22.47,404h35a2.45,2.45,0,0,0,2.4-2.49V327.52a2.44,2.44,0,0,0-2.4-2.48h-35Z" transform="translate(-0.42 -0.42)"/>
      <text id="text4524" class="cls-24" transform="translate(23.75 368.17) scale(0.92 1)">VO<tspan class="cls-25" x="24.46" y="0">L</tspan></text>
    </g>
    <g id="VolUp">
      <path id="path4527" class="cls-20" d="M32,337.19a1.12,1.12,0,0,0-1.12,1.12A1.1,1.1,0,0,0,32,339.43H47.37a1.12,1.12,0,0,0,1.12-1.12,1.1,1.1,0,0,0-1.11-1.12h0" transform="translate(-0.42 -0.42)"/>
      <path id="path4529" class="cls-20" d="M38.53,330.84v14.94a1.15,1.15,0,1,0,2.3,0V330.84a1.15,1.15,0,0,0-2.3,0" transform="translate(-0.42 -0.42)"/>
      <rect id="rect4531" class="cls-26" x="19.66" y="324.62" width="39.83" height="29.65"/>
    </g>
    <g id="VolDown">
      <rect id="rect4534" class="cls-26" x="19.34" y="373.75" width="39.83" height="29.65"/>
      <path id="path4536" class="cls-20" d="M30.15,387.51a1.5,1.5,0,1,0,0,3H49.22a1.5,1.5,0,1,0,0-3" transform="translate(-0.42 -0.42)"/>
    </g>
    <g id="ChBtn">
      <path id="path4539" class="cls-23" d="M117.59,325a2.44,2.44,0,0,0-2.4,2.48h0v73.94a2.44,2.44,0,0,0,2.39,2.49h35a2.44,2.44,0,0,0,2.4-2.48h0V327.52a2.44,2.44,0,0,0-2.4-2.48h-35Z" transform="translate(-0.42 -0.42)"/>
      <text id="text4543" class="cls-27" transform="translate(123.47 368.17) scale(0.88 1)">CH</text>
    </g>
    <g id="ChUp">
      <path id="path4546" class="cls-20" d="M134.71,330.2l-9.53,9.31a1.17,1.17,0,0,0,0,1.67l0,0a1.25,1.25,0,0,0,1.74,0l9-8.74,9,8.74a1.27,1.27,0,0,0,1.74,0,1.16,1.16,0,0,0,0-1.64l0-.05L137,330.2a1.69,1.69,0,0,0-2.33,0" transform="translate(-0.42 -0.42)"/>
      <rect id="rect4548" class="cls-26" x="114.77" y="324.62" width="39.83" height="29.65"/>
    </g>
    <g id="ChDown">
      <path id="path4551" class="cls-20" d="M144.83,385.06s-7.92,7.74-9,8.73l-9-8.73a1.27,1.27,0,0,0-1.74,0,1.18,1.18,0,0,0,0,1.67l0,0,9.52,9.3a1.67,1.67,0,0,0,2.33,0l9.53-9.31a1.17,1.17,0,0,0,0-1.65l0-.05a1.27,1.27,0,0,0-1.74,0" transform="translate(-0.42 -0.42)"/>
      <rect id="rect4553" class="cls-26" x="114.77" y="373.75" width="39.83" height="29.65"/>
    </g>
    <g id="Fav">
      <path id="path4556" class="cls-19" d="M67.13,325.85c-1.46,0-2.63.73-2.63,1.63v14.3c0,.9,1.17,1.63,2.63,1.63h38.38c1.45,0,2.63-.73,2.63-1.63v-14.3c0-.9-1.18-1.63-2.63-1.63Z" transform="translate(-0.42 -0.42)"/>
      <g id="text4566" class="cls-11">
        <text class="cls-28" transform="translate(76.56 339.07) scale(0.8 1)">F</text>
        <text class="cls-29" transform="translate(82.06 339.07) scale(0.8 1)"> </text>
        <text class="cls-30" transform="translate(82.11 339.07) scale(0.8 1)">A</text>
        <text class="cls-29" transform="translate(88.62 339.07) scale(0.8 1)"> </text>
        <text class="cls-22" transform="translate(88.59 339.07) scale(0.8 1)">V</text>
      </g>
    </g>
    <g id="Settings">
      <path id="path4569" class="cls-19" d="M67.13,356.62c-1.46,0-2.63.72-2.63,1.62v14.31c0,.89,1.17,1.62,2.63,1.62h38.38c1.45,0,2.63-.73,2.63-1.62V358.24c0-.9-1.18-1.62-2.63-1.62Z" transform="translate(-0.42 -0.42)"/>
      <text id="text4573" class="cls-31" transform="translate(68.4 369.35) scale(0.58 1)">SETTINGS</text>
    </g>
    <g id="Mute">
      <path id="path4576" class="cls-19" d="M67.13,387.18c-1.46,0-2.63.73-2.63,1.62v14.31c0,.9,1.17,1.62,2.63,1.62h38.38c1.45,0,2.63-.72,2.63-1.62V388.8c0-.89-1.18-1.62-2.63-1.62Z" transform="translate(-0.42 -0.42)"/>
      <path id="path4580" class="cls-20" d="M103.68,391.67l-.4.05-3.38,2H98.76l-1.42-1.08a.39.39,0,0,0-.53.06.37.37,0,0,0,.06.52h0l.83.63a.35.35,0,0,0-.1.24v3.63a.37.37,0,0,0,.12.26l-.85.65a.35.35,0,0,0-.08.5v0a.37.37,0,0,0,.52.08h0l1.48-1.13H100l3.28,2.05h.39a.37.37,0,0,0,.2-.33V398.6l.89.68a.37.37,0,0,0,.52-.06h0a.34.34,0,0,0,0-.49l0,0-1.36-1v-3.34l1.36-1a.36.36,0,0,0,.08-.5l0,0a.39.39,0,0,0-.53-.06l-.89.68V392A.36.36,0,0,0,103.68,391.67Zm-.59,1h0V394l-2,1.56-.66-.5v-.7Zm-4.71,1.85h.13l1.11.85v1.23l-1.05.8h-.19Zm4.72.38v2.17L101.67,396ZM100.39,396l0,0,0,0Zm.66.51,2,1.56v1.14l-2.71-1.7V397Z" transform="translate(-0.42 -0.42)"/>
      <text id="text4588" class="cls-22" transform="translate(66.84 399.95) scale(0.8 1)">MUTE</text>
    </g>
    <g id="Info">
      <path id="path4591" class="cls-18" d="M52.71,435.27a5.26,5.26,0,1,0,4.86,3.28A5.18,5.18,0,0,0,52.71,435.27Zm0,.85a4.07,4.07,0,0,1,2.83,1.18,4.13,4.13,0,0,1,1,1.54,1.34,1.34,0,0,1,.07.18c0,.11.06.23.08.34s0,.12.05.18,0,.33,0,.5v.11a4.28,4.28,0,0,1-.3,1.66A4.13,4.13,0,1,1,51,436.48a4.2,4.2,0,0,1,1.71-.36Zm-.59,1.13v1.29h1.08v-1.29Zm0,2v4.26h1.08v-4.26Zm-3.65,1.27a5,5,0,0,0,.06.54A5,5,0,0,1,48.51,440.52Zm.14.89.09.28Zm.32.8a.41.41,0,0,0,.05.09A.41.41,0,0,1,49,442.21Z" transform="translate(-0.42 -0.42)"/>
      <text id="text4601" class="cls-32" transform="translate(22.29 443.91) scale(0.8 1)">INFO</text>
      <path id="path4603" class="cls-33" d="M20.15,454.22H60.5V423.74H35.59a13.83,13.83,0,0,0-8.82,3.39c-6.62,6.05-6.62,11.65-6.62,11.65Z" transform="translate(-0.42 -0.42)"/>
    </g>
    <g id="Smart">
      <path id="path4606" class="cls-34" d="M67.44,423.5a2.38,2.38,0,0,0-2.12,2.59v25.77a2.39,2.39,0,0,0,2.12,2.6h40.11a2.41,2.41,0,0,0,2-2.59V426.09a2.39,2.39,0,0,0-2.12-2.59Z" transform="translate(-0.42 -0.42)"/>
      <text id="text4610" class="cls-35" transform="translate(68.78 450.65) scale(0.95 1)">SMART</text>
      <path id="path4612" class="cls-36" d="M87.42,425.6a.9.9,0,0,0-.5.16l0,0-8,6.91a.78.78,0,0,0-.26.56.5.5,0,0,0,.49.51h2v5.77a.83.83,0,0,0,.87.74H92.69a.83.83,0,0,0,.87-.74v-5.77h2.16a.5.5,0,0,0,.5-.5h0a.74.74,0,0,0-.26-.56l-8-6.91,0,0a.9.9,0,0,0-.5-.16Zm0,1,7.08,6.12H93.06a.5.5,0,0,0-.5.5v6H89.8v-3.73H85.1v3.73h-3v-6a.5.5,0,0,0-.5-.5H80.34Z" transform="translate(-0.42 -0.42)"/>
    </g>
    <g id="MyApps">
      <g id="text4623" class="cls-11">
        <text class="cls-37" transform="translate(115.48 451.46) scale(0.7 1)">M</text>
        <text class="cls-38" transform="translate(122.76 451.46) scale(0.7 1)">Y</text>
        <text class="cls-37" transform="translate(130.55 451.46) scale(0.7 1)">APPS</text>
      </g>
      <path id="rect4625" class="cls-39" d="M127.72,428.06v4h4v-4Zm4.49,0v4h4.28v-4Zm4.78,0v4h4v.5h-4v4.27h4v.5h-4v4h4V428.06Zm-9.27,4.5v4.27h4v-4.27Zm4.49,0v4.27h4.28v-4.27Zm-4.49,4.77v4h4v-4Zm4.49,0v4h4.28v-4Z" transform="translate(-0.42 -0.42)"/>
      <path id="path4635" class="cls-26" d="M155.07,454H114.71V423.5h24.91a13.85,13.85,0,0,1,8.83,3.39c6.62,6.05,6.62,11.65,6.62,11.65Z" transform="translate(-0.42 -0.42)"/>
    </g>
    <g id="Back">
      <path id="path4638" class="cls-18" d="M50.86,581.39a6.24,6.24,0,0,0-1.28-1.86,6,6,0,0,0-1.87-1.28,5.52,5.52,0,0,0-2.3-.48H43.28l.89-3.21-7.46,4.09,7.46,4-.91-3.25h2.15a4.21,4.21,0,0,1,3,1.24,4.55,4.55,0,0,1,.93,1.37,4.11,4.11,0,0,1,0,3.33,4.55,4.55,0,0,1-.93,1.37,4.21,4.21,0,0,1-3,1.24H35.94v1.65h9.47a5.52,5.52,0,0,0,2.3-.48,6,6,0,0,0,1.87-1.28A5.75,5.75,0,0,0,50.86,586a5.65,5.65,0,0,0,.47-2.33,5.51,5.51,0,0,0-.47-2.3" transform="translate(-0.42 -0.42)"/>
      <text id="text4640" class="cls-40" transform="translate(34.78 596.69) scale(0.8 1)">BACK</text>
      <path id="path4642" class="cls-26" d="M20.15,570.55H60.51V601H35.59a13.83,13.83,0,0,1-8.82-3.39c-6.62-6-6.62-11.65-6.62-11.65Z" transform="translate(-0.42 -0.42)"/>
    </g>
    <g id="Guide">
      <text id="text4645" class="cls-32" transform="translate(71.22 589.7) scale(0.8 1)">GUIDE</text>
      <rect id="rect4647" class="cls-33" x="62.57" y="572" width="48.22" height="28.03"/>
    </g>
    <g id="Exit">
      <text id="text4650" class="cls-41" transform="translate(122.37 589.7) scale(0.85 1)">EXIT</text>
      <path id="path4652" class="cls-26" d="M154.88,571.19H114.52v30.49h24.92a13.83,13.83,0,0,0,8.82-3.39c6.62-6,6.62-11.65,6.62-11.65Z" transform="translate(-0.42 -0.42)"/>
    </g>
    <g id="Ok">
      <path id="path4655" class="cls-42" d="M72.41,488.25a9.15,9.15,0,0,0-9.41,8.9V527.9a9.16,9.16,0,0,0,9.4,8.89h29.4a9.17,9.17,0,0,0,9.41-8.89V497.15a9.18,9.18,0,0,0-9.41-8.9Z" transform="translate(-0.42 -0.42)"/>
      <path id="path4659" class="cls-18" d="M87.1,515.62a4.45,4.45,0,1,0,4.45,4.45A4.41,4.41,0,0,0,87.1,515.62Zm0,.41a4,4,0,0,1,4,4,4,4,0,1,1-4-4Zm0,1.48a2.54,2.54,0,1,0,2.57,2.54,2.54,2.54,0,0,0-2.57-2.54h0Z" transform="translate(-0.42 -0.42)"/>
      <text id="text4663" class="cls-43" transform="translate(76.15 512.81)">OK</text>
    </g>
    <g id="Up">
      <path id="polyline4666" class="cls-18" d="M86.71,463.53a.24.24,0,0,0-.18.07l-7.74,7.84a.25.25,0,0,0,0,.36l1,1a.25.25,0,0,0,.36,0h0l6.59-6.67,6.59,6.67a.25.25,0,0,0,.36,0h0l1-1a.25.25,0,0,0,0-.36l-7.75-7.84a.21.21,0,0,0-.18-.07Z" transform="translate(-0.42 -0.42)"/>
      <rect id="rect4672" class="cls-26" x="62.57" y="458.18" width="48.22" height="28.03"/>
    </g>
    <g id="Down">
      <path id="polyline4675" class="cls-18" d="M80.87,553.63a.25.25,0,0,0-.17.08l-.9,1a.25.25,0,0,0,0,.34l7.11,7.84a.25.25,0,0,0,.36,0l0,0,7.1-7.84a.25.25,0,0,0,0-.34l-.89-1a.25.25,0,0,0-.36,0l0,0-6,6.64-6-6.64A.24.24,0,0,0,80.87,553.63Z" transform="translate(-0.42 -0.42)"/>
      <rect id="rect4681" class="cls-26" x="62.57" y="539.44" width="48.22" height="28.03"/>
    </g>
    <g id="Right">
      <path id="polyline4684" class="cls-18" d="M128.1,503.54a.22.22,0,0,0-.15.06l-1,.9a.25.25,0,0,0,0,.36l0,0,6.64,6-6.64,6a.25.25,0,0,0,0,.36l0,0,1,.9a.25.25,0,0,0,.34,0l7.84-7.11a.26.26,0,0,0,0-.36l0,0-7.84-7.1A.22.22,0,0,0,128.1,503.54Z" transform="translate(-0.42 -0.42)"/>
      <rect id="rect4690" class="cls-26" x="111.9" y="487.83" width="29.62" height="48.53"/>
    </g>
    <g id="Left">
      <path id="polyline4693" class="cls-18" d="M46.63,503.62a.23.23,0,0,0-.16.06l-7.85,7.11a.25.25,0,0,0,0,.36l0,0,7.85,7.11a.25.25,0,0,0,.34,0l1-.9a.25.25,0,0,0,0-.36l0,0-6.65-6,6.65-6a.26.26,0,0,0,0-.36l0,0-1-.9A.25.25,0,0,0,46.63,503.62Z" transform="translate(-0.42 -0.42)"/>
      <rect id="rect4699" class="cls-26" x="31.78" y="487.83" width="29.62" height="48.53"/>
    </g>
    <g id="Red1">
      <path id="path4702" class="cls-44" d="M27.79,618.56a5.67,5.67,0,0,0-5.56,5.79v4.31a5.68,5.68,0,0,0,5.56,5.78H45.73a5.69,5.69,0,0,0,5.58-5.78v-4.31a5.69,5.69,0,0,0-5.58-5.79H27.79Z" transform="translate(-0.42 -0.42)"/>
      <path id="path4706" class="cls-45" d="M36.35,625.52a1.34,1.34,0,1,0,1.36,1.34,1.34,1.34,0,0,0-1.36-1.34h0Z" transform="translate(-0.42 -0.42)"/>
    </g>
    <g id="Green2">
      <path id="path4711" class="cls-46" d="M62,618.56a5.69,5.69,0,0,0-5.58,5.79v4.31A5.68,5.68,0,0,0,62,634.44H79.9a5.69,5.69,0,0,0,5.58-5.78v-4.31a5.69,5.69,0,0,0-5.58-5.79Z" transform="translate(-0.42 -0.42)"/>
      <path id="path4721" class="cls-45" d="M74.94,626.86a1.33,1.33,0,1,1-1.33-1.34,1.34,1.34,0,0,1,1.33,1.34Zm0,0a1.33,1.33,0,1,1-1.33-1.34,1.34,1.34,0,0,1,1.33,1.34h0m-6,0a1.33,1.33,0,1,1-1.33-1.34,1.34,1.34,0,0,1,1.33,1.34Zm0,0a1.33,1.33,0,1,1-1.33-1.34,1.34,1.34,0,0,1,1.33,1.34h0" transform="translate(-0.42 -0.42)"/>
    </g>
    <g id="Yellow3">
      <path id="path4724" class="cls-47" d="M95.38,618.56a5.68,5.68,0,0,0-5.57,5.79h0v4.31a5.67,5.67,0,0,0,5.57,5.78h17.94a5.69,5.69,0,0,0,5.57-5.78v-4.31a5.69,5.69,0,0,0-5.57-5.79Z" transform="translate(-0.42 -0.42)"/>
      <path id="path4728" class="cls-45" d="M104.34,622.48a1.33,1.33,0,1,0,1.34,1.34,1.33,1.33,0,0,0-1.34-1.34h0Zm-3.3,5.37a1.33,1.33,0,1,0,1.35,1.33,1.33,1.33,0,0,0-1.35-1.33h0Zm6.59,0a1.34,1.34,0,0,0-.52,2.56l.13.05a1.33,1.33,0,0,0,1.69-.85,1.25,1.25,0,0,0,.07-.43,1.35,1.35,0,0,0-1.33-1.33Z" transform="translate(-0.42 -0.42)"/>
    </g>
    <g id="Blue4">
      <path id="path4741" class="cls-48" d="M129.17,618.56a5.69,5.69,0,0,0-5.57,5.79v4.31a5.68,5.68,0,0,0,5.57,5.78h17.94a5.68,5.68,0,0,0,5.57-5.78v-4.31a5.7,5.7,0,0,0-5.57-5.79Z" transform="translate(-0.42 -0.42)"/>
      <path id="path4745" class="cls-45" d="M134.66,622.66A1.33,1.33,0,1,0,136,624a1.33,1.33,0,0,0-1.34-1.34h0Zm6.91,0a1.33,1.33,0,0,0-.17,2.65h.13a1.33,1.33,0,0,0,1.38-1.28v0a1.32,1.32,0,0,0-1.3-1.34h0Zm0,5.32a1.33,1.33,0,0,0-.17,2.65h.13a1.33,1.33,0,0,0,1.38-1.28v0a1.34,1.34,0,0,0-1.32-1.34h0Zm-6.93,0a1.33,1.33,0,1,0,1.36,1.32l0,0a1.34,1.34,0,0,0-1.32-1.34h-.07Z" transform="translate(-0.42 -0.42)"/>
    </g>
    <g id="Stop">
      <path id="path4762" class="cls-49" d="M30.15,655.3c-3.87,0-7,2.35-7,5.23v7.26c0,2.9,3.13,5.23,7,5.23H54.67c3.87,0,7-2.33,7-5.23v-7.26c0-2.88-3.14-5.23-7-5.23Z" transform="translate(-0.42 -0.42)"/>
      <rect id="rect4766" class="cls-50" x="37.52" y="660.59" width="6.62" height="6.62"/>
    </g>
    <g id="Play">
      <path id="path4769" class="cls-49" d="M75.22,655.3c-3.87,0-7,2.35-7,5.23v7.26c0,2.9,3.14,5.23,7,5.23H99.75c3.87,0,7-2.33,7-5.23v-7.26c0-2.88-3.13-5.23-7-5.23Z" transform="translate(-0.42 -0.42)"/>
      <polyline id="polyline4773" class="cls-50" points="84.7 668.56 84.7 660.06 90.56 664.36"/>
    </g>
    <g id="Pause">
      <path id="path4776" class="cls-49" d="M121.07,655.3c-3.87,0-7,2.35-7,5.23v7.26c0,2.9,3.14,5.23,7,5.23H145.6c3.87,0,7-2.33,7-5.23v-7.26c0-2.88-3.14-5.23-7-5.23Z" transform="translate(-0.42 -0.42)"/>
      <path id="rect4780" class="cls-50" d="M130,661.45v6.67h2.16v-6.67Zm3.73,0v6.67h2.15v-6.67Z" transform="translate(-0.42 -0.42)"/>
    </g>
    <g id="Rew">
      <path id="path4787" class="cls-49" d="M61.67,694.28c0,2.88-3.13,5.22-7,5.22H30.15c-3.87,0-7-2.34-7-5.22V687c0-2.88,3.13-5.23,7-5.23H54.68c3.86,0,7,2.35,7,5.23Zm0,0c0,2.88-3.13,5.22-7,5.22H30.15c-3.87,0-7-2.34-7-5.22V687c0-2.88,3.13-5.23,7-5.23H54.68c3.86,0,7,2.35,7,5.23" transform="translate(-0.42 -0.42)"/>
      <path id="polyline4791" class="cls-50" d="M40.85,686.92l-.1,7.45-5.1-3.71m10.62-3.74-.1,7.45-5.09-3.71" transform="translate(-0.42 -0.42)"/>
    </g>
    <g id="FF">
      <path id="path4794" class="cls-49" d="M75.22,681.77c-3.87,0-7,2.35-7,5.23v7.28c0,2.88,3.14,5.22,7,5.22H99.75c3.87,0,7-2.34,7-5.22V687c0-2.88-3.13-5.23-7-5.23Z" transform="translate(-0.42 -0.42)"/>
      <path id="polyline4800" class="cls-50" d="M88.59,695l.1-7.45,5.09,3.7M83.17,695l.1-7.45,5.1,3.7" transform="translate(-0.42 -0.42)"/>
    </g>
    <g id="Rec">
      <path id="path4803" class="cls-49" d="M121.07,681.77c-3.87,0-7,2.35-7,5.23v7.27c0,2.89,3.14,5.23,7,5.23H145.6c3.87,0,7-2.34,7-5.23V687c0-2.88-3.14-5.23-7-5.23Z" transform="translate(-0.42 -0.42)"/>
      <text id="text4807" class="cls-51" transform="translate(118.46 694.74) scale(0.8 1)">REC</text>
      <path id="path4809" class="cls-44" d="M149.75,690.64a3.67,3.67,0,1,1-3.68-3.66h0a3.66,3.66,0,0,1,3.66,3.66" transform="translate(-0.42 -0.42)"/>
    </g>
    <g id="AVMode">
      <path id="path4814" class="cls-52" d="M61.67,720.52c0,2.9-3.12,5.23-7,5.23H30.15c-3.87,0-7-2.33-7-5.23v-7.26c0-2.89,3.13-5.23,7-5.23H54.68c3.87,0,7,2.34,7,5.23Zm0,0c0,2.9-3.12,5.23-7,5.23H30.15c-3.87,0-7-2.33-7-5.23v-7.26c0-2.89,3.13-5.23,7-5.23H54.68c3.87,0,7,2.34,7,5.23" transform="translate(-0.42 -0.42)"/>
      <g id="text4820" class="cls-11">
        <text class="cls-53" transform="translate(24.8 720.69) scale(0.6 1)">A</text>
        <text class="cls-54" transform="translate(29.68 720.69) scale(0.6 1)"> </text>
        <text class="cls-55" transform="translate(29.66 720.69) scale(0.6 1)">V MODE</text>
      </g>
    </g>
    <g id="Simplink">
      <path id="path4825" class="cls-52" d="M106.75,720.52c0,2.9-3.13,5.23-7,5.23H75.23c-3.87,0-7-2.33-7-5.23v-7.26c0-2.89,3.13-5.23,7-5.23H99.76c3.86,0,7,2.34,7,5.23Zm0,0c0,2.9-3.13,5.23-7,5.23H75.23c-3.87,0-7-2.33-7-5.23v-7.26c0-2.89,3.13-5.23,7-5.23H99.76c3.86,0,7,2.34,7,5.23" transform="translate(-0.42 -0.42)"/>
      <path id="rect4847" class="cls-50" d="M77.88,715h.79v4.11h-.79Zm16.91,0h.79v4.11h-.79Zm9.56,4.09h1l-2.15-2.47,2-1.62h-1.08l-1.84,1.5H102V715h-.76v4.09H102v-1.72h.93M85.24,715v4.1H86v-3.26h2.72v1H86.58v.83h2.28a.69.69,0,0,0,.65-.73h0V715.7a.71.71,0,0,0-.69-.73h0m-5.25,0H80.2a.71.71,0,0,0-.68.73v3.35h.8V715.8h1.2v3.25h.78v-3.26h1.22V719h.77v-3.35a.71.71,0,0,0-.68-.73m6.74.08v3.37a.7.7,0,0,0,.67.73h3.06v-.81h-3V715m6.18,0a.71.71,0,0,0-.69.73h0v3.35h.76V715.8h2.34V719h.78v-3.35a.71.71,0,0,0-.68-.73M73.44,715a.71.71,0,0,0-.68.73v.93a.7.7,0,0,0,.66.73h2.65v.85H72.8v.83h3.36a.69.69,0,0,0,.68-.7h0V717.3a.75.75,0,0,0-.68-.76H73.53v-.73H76.8V715m-2.41-2.75a3.88,3.88,0,0,0-2.58.93l.17.32H72a3.44,3.44,0,0,1,2.3-.81,3.89,3.89,0,0,1,3.33,1.89h.52l-.09-.14a4.31,4.31,0,0,0-3.76-2.25M70,717.09a5,5,0,0,0,1.23,3.29,4.18,4.18,0,0,0,3.21,1.47,4.32,4.32,0,0,0,3.75-2.32l.08-.14h-.44a4.06,4.06,0,0,1-3.39,2,3.86,3.86,0,0,1-2.91-1.33,4.59,4.59,0,0,1-1.12-3,3.87,3.87,0,0,1,.23-1.47l-.26-.24a3.3,3.3,0,0,0-.38,1.71m1.87-2.74a.86.86,0,0,1-.83.9.88.88,0,0,1-.84-.9.84.84,0,1,1,1.67-.18.54.54,0,0,1,0,.18" transform="translate(-0.42 -0.42)"/>
    </g>
  </g>
</svg>
