<?xml version="1.0" encoding="utf-8"?>
<!-- Generator: Adobe Illustrator 23.0.1, SVG Export Plug-In . SVG Version: 6.00 Build 0)  -->
<svg version="1.1"
	 id="svg28" inkscape:export-filename="M:\LeonelD\Dev\_Misc\lg\icon.png" inkscape:export-xdpi="96" inkscape:export-ydpi="96" inkscape:version="0.92.4 (5da689c313, 2019-01-14)" sodipodi:docname="icon.svg" xmlns:cc="http://creativecommons.org/ns#" xmlns:dc="http://purl.org/dc/elements/1.1/" xmlns:inkscape="http://www.inkscape.org/namespaces/inkscape" xmlns:rdf="http://www.w3.org/1999/02/22-rdf-syntax-ns#" xmlns:sodipodi="http://sodipodi.sourceforge.net/DTD/sodipodi-0.dtd" xmlns:svg="http://www.w3.org/2000/svg"
	 xmlns="http://www.w3.org/2000/svg" xmlns:xlink="http://www.w3.org/1999/xlink" x="0px" y="0px" viewBox="0 0 256 256"
	 style="enable-background:new 0 0 256 256;" xml:space="preserve">
<style type="text/css">
	.st0{fill:#B6033A;}
	.st1{clip-path:url(#SVGID_2_);fill:url(#path13_1_);}
	.st2{clip-path:url(#SVGID_2_);fill:#FFFFFF;}
</style>
<sodipodi:namedview  bordercolor="#666666" borderopacity="1" gridtolerance="10" guidetolerance="10" id="namedview30" inkscape:current-layer="svg28" inkscape:cx="114.48756" inkscape:cy="108.2696" inkscape:pageopacity="0" inkscape:pageshadow="2" inkscape:window-height="1057" inkscape:window-maximized="1" inkscape:window-width="1920" inkscape:window-x="1912" inkscape:window-y="-8" inkscape:zoom="2.6074563" objecttolerance="10" pagecolor="#ffffff" showgrid="false">
	</sodipodi:namedview>
<rect class="st0" width="256" height="256"/>
<circle id="circle4" class="st0" cx="128" cy="128" r="124.5"/>
<g id="Layer_3">
</g>
<g>
	<defs>
		<path id="SVGID_1_" d="M256,256H0V0h256V256z"/>
	</defs>
	<clipPath id="SVGID_2_">
		<use xlink:href="#SVGID_1_"  style="overflow:visible;"/>
	</clipPath>
	
		<linearGradient id="path13_1_" gradientUnits="userSpaceOnUse" x1="43.1627" y1="208.9586" x2="230.537" y2="44.977" gradientTransform="matrix(1 0 0 -1 0 256)">
		<stop  offset="0" style="stop-color:#DA7172"/>
		<stop  offset="0.918" style="stop-color:#B6033A"/>
	</linearGradient>
	<path id="path13" inkscape:connector-curvature="0" class="st1" d="M242.2,112.1c0,77.7-56,127.4-128.6,127.4
		c-42,0-127.4-26.4-127.4-107.6S52.1-15.2,133.3-15.2C221.8-15.2,242.2,59.9,242.2,112.1z"/>
	<path id="path23" inkscape:connector-curvature="0" class="st2" d="M175.8,28H80.2c-10,0-18.1,8.1-18.1,18.1v371.8
		c0,10,8.1,18.1,18.1,18.1h95.6c10,0,18.1-8.1,18.1-18.1V46.1C193.9,36.1,185.8,28,175.8,28z M142.5,97.4h0.4
		c6.5,0.1,11.7,5.3,11.8,11.8c0.1,6.6-5.2,12-11.8,12.1c-6.6,0.1-12-5.2-12.1-11.8C130.6,102.9,135.9,97.5,142.5,97.4z M141.4,312
		h-26.6l0,0c-1,0-1.8-0.9-1.8-1.9v-20.4l0,0c0-1,0.8-1.9,1.8-1.9h26.6l0,0c1,0,1.8,0.9,1.8,1.9v20.4l0,0
		C143.3,311.1,142.4,312,141.4,312z M143.2,320.2v20.4l0,0c0,1-0.8,1.9-1.8,1.9h-26.6l0,0c-1,0-1.8-0.9-1.8-1.9v-20.4
		c0-1,0.8-1.9,1.8-1.9l26.6,0C142.4,318.3,143.3,319.2,143.2,320.2z M141.4,281.8h-26.6l0,0c-1,0-1.8-0.9-1.8-1.9v-20.4l0,0
		c0-1,0.8-1.9,1.8-1.9v0h26.6l0,0c1,0,1.8,0.9,1.8,1.9v20.5l0,0C143.3,280.9,142.4,281.7,141.4,281.8z M141.4,251.7h-26.6l0,0
		c-1,0-1.8-0.9-1.8-1.9v-20.4c0-1,0.8-1.9,1.8-1.9l26.6,0c1,0,1.8,0.9,1.8,1.9v20.4l0,0C143.3,250.8,142.4,251.6,141.4,251.7z
		 M141.4,221.2h-26.6l0,0c-1,0-1.8-0.9-1.8-1.9v-20.4l0,0c0-1,0.8-1.9,1.8-1.9h26.6l0,0c1,0,1.8,0.9,1.8,1.9v20.4l0,0
		C143.3,220.3,142.4,221.1,141.4,221.2z M141.4,190.9h-26.6l0,0c-1,0-1.8-0.9-1.8-1.9v-20.4l0,0c0-1,0.8-1.9,1.8-1.9v0h26.6l0,0
		c1,0,1.8,0.9,1.8,1.9V189l0,0C143.3,190.1,142.4,190.9,141.4,190.9z M141.4,160.4h-26.6l0,0c-1,0-1.8-0.9-1.8-1.9v-20.4l0,0
		c0-1,0.8-1.9,1.8-1.9h0h26.6l0,0c1,0,1.8,0.9,1.8,1.9v20.4l0,0C143.3,159.5,142.4,160.3,141.4,160.4L141.4,160.4z M113.7,97.4
		c6.7,0,12,5.4,12,12c0,6.5-5.2,11.8-11.7,12c-6.7,0.2-12.2-5-12.4-11.7c-0.2-6.7,5-12.2,11.7-12.4H113.7z M105.1,312H78.5l0,0
		c-1,0-1.8-0.9-1.8-1.9v-20.4l0,0c0-1,0.8-1.9,1.8-1.9h26.6l0,0c1,0,1.8,0.9,1.8,1.9v20.4l0,0C106.9,311.1,106.1,312,105.1,312z
		 M106.9,320.2v20.4l0,0c0,1-0.8,1.9-1.8,1.9H78.5l0,0c-1,0-1.8-0.9-1.8-1.9v-20.4c0-1,0.8-1.9,1.8-1.9l26.6,0
		C106.1,318.3,106.9,319.2,106.9,320.2z M105.1,281.8H78.5l0,0c-1,0-1.8-0.9-1.8-1.9v-20.4l0,0c0-1,0.8-1.9,1.8-1.9v0h26.6l0,0
		c1,0,1.8,0.9,1.8,1.9v20.5l0,0C106.9,280.9,106.1,281.7,105.1,281.8z M105.1,251.7H78.5l0,0c-1,0-1.8-0.9-1.8-1.9v-20.4
		c0-1,0.8-1.9,1.8-1.9l26.6,0c1,0,1.8,0.9,1.8,1.9v20.4l0,0C106.9,250.8,106.1,251.6,105.1,251.7z M105.1,221.2H78.5l0,0
		c-1,0-1.8-0.9-1.8-1.9v-20.4l0,0c0-1,0.8-1.9,1.8-1.9h26.6l0,0c1,0,1.8,0.9,1.8,1.9v20.4l0,0C106.9,220.3,106.1,221.1,105.1,221.2z
		 M105.1,190.9H78.5l0,0c-1,0-1.8-0.9-1.8-1.9v-20.4l0,0c0-1,0.8-1.9,1.8-1.9v0h26.6l0,0c1,0,1.8,0.9,1.8,1.9V189l0,0
		C106.9,190.1,106.1,190.9,105.1,190.9z M105.1,160.4H78.5l0,0c-1,0-1.8-0.9-1.8-1.9v-20.4l0,0c0-1,0.8-1.9,1.8-1.9h26.6
		c1,0,1.8,0.9,1.8,1.9v20.4l0,0C106.9,159.5,106.1,160.3,105.1,160.4L105.1,160.4z M93.9,48.2l0.5,0c0,0,0,0,0,0
		c9.7,0,17.6,7.9,17.6,17.6c0,9.5-7.6,17.3-17.1,17.6c-9.7,0.3-17.8-7.4-18.1-17.1C76.5,56.6,84.2,48.5,93.9,48.2z M71.9,109
		c-0.2-6.7,5-12.2,11.7-12.4l0.3,0c6.7,0,12,5.4,12,12c0,6.5-5.2,11.8-11.7,12C77.6,120.9,72.1,115.7,71.9,109z M106.9,377.5
		L106.9,377.5l0,35.5c0,0.3-0.1,0.6-0.2,0.9v0.9h-1c-0.2,0.1-0.4,0.1-0.6,0.1H78.5c0,0-0.1,0-0.1,0c-0.2,0-0.3-0.1-0.5-0.1h-1.5
		v-22.5h0.2v-14.8v-20.7l0,0l0,0V355h1.7c0.1,0,0.1,0,0.1,0l0,0h26.6l0,0h1.8L106.9,377.5L106.9,377.5z M143.6,414.3
		c0,0.7-0.9,1.2-2,1.2h-29.1c-1.1,0-2-0.5-2-1.2v-10.9c0-0.7,0.9-1.2,2-1.2h29.1c1.1,0,2,0.5,2,1.2V414.3z M143.6,391.1
		c0,0.7-0.9,1.2-2,1.2h-29.1c-1.1,0-2-0.5-2-1.2v-10.9c0-0.7,0.9-1.2,2-1.2h29.1c1.1,0,2,0.5,2,1.2V391.1z M143.6,367.7
		c0,0.7-0.9,1.2-2,1.2h-29.1c-1.1,0-2-0.5-2-1.2v-10.9c0-0.7,0.9-1.2,2-1.2h29.1c1.1,0,2,0.5,2,1.2V367.7z M179.2,377.5L179.2,377.5
		l0,14.8h0v22.5h-1.5c-0.1,0-0.2,0.1-0.3,0.1h-26.6l0,0c-0.1,0-0.2,0-0.3-0.1h-1.5V413v-20.7v-14.8v-20.7l0,0V355h1.7
		c0.1,0,0.1,0,0.1,0l0,0h26.6l0,0h1.9L179.2,377.5L179.2,377.5z M179.5,340.6L179.5,340.6c0,1-0.8,1.9-1.8,1.9h-26.6l0,0
		c-1,0-1.8-0.9-1.8-1.9v-20.4c0-1,0.8-1.9,1.8-1.9l26.6,0c1,0,1.8,0.9,1.8,1.9L179.5,340.6z M179.5,310.1L179.5,310.1
		c0,1-0.8,1.9-1.8,1.9h-26.6l0,0c-1,0-1.8-0.9-1.8-1.9v-20.4l0,0c0-1,0.8-1.9,1.8-1.9h26.6l0,0c1,0,1.8,0.9,1.8,1.9L179.5,310.1z
		 M179.5,279.9L179.5,279.9c0,1-0.8,1.9-1.8,1.9h-26.6l0,0c-1,0-1.8-0.9-1.8-1.9v-20.4l0,0c0-1,0.8-1.9,1.8-1.9v0h26.6l0,0
		c1,0,1.8,0.9,1.8,1.9L179.5,279.9z M179.5,249.8L179.5,249.8c0,1-0.8,1.9-1.8,1.9h-26.6l0,0c-1,0-1.8-0.9-1.8-1.9v-20.4
		c0-1,0.8-1.9,1.8-1.9l26.6,0c1,0,1.8,0.9,1.8,1.9L179.5,249.8z M179.5,219.3L179.5,219.3c0,1-0.8,1.9-1.8,1.9h-26.6l0,0
		c-1,0-1.8-0.9-1.8-1.9v-20.4l0,0c0-1,0.8-1.9,1.8-1.9h26.6l0,0c1,0,1.8,0.9,1.8,1.9L179.5,219.3z M179.5,189L179.5,189
		c0,1-0.8,1.9-1.8,1.9h-26.6l0,0c-1,0-1.8-0.9-1.8-1.9v-20.4l0,0c0-1,0.8-1.9,1.8-1.9v0h26.6l0,0c1,0,1.8,0.9,1.8,1.9L179.5,189z
		 M179.5,158.5L179.5,158.5c0,1-0.8,1.9-1.8,1.9h-26.6l0,0c-1,0-1.8-0.9-1.8-1.9v-20.4l0,0c0-1,0.8-1.9,1.8-1.9h0h26.6l0,0
		c1,0,1.8,0.9,1.8,1.9L179.5,158.5z M172.4,121.1c-6.6,0.1-12-5.2-12.1-11.8c-0.1-6.6,5.2-12,11.8-12.1h0.4
		c6.5,0.1,11.7,5.3,11.8,11.8C184.2,115.6,179,121,172.4,121.1z"/>
</g>
</svg>
