<?xml version="1.0" encoding="utf-8"?>
<!-- Generator: Adobe Illustrator 23.0.1, SVG Export Plug-In . SVG Version: 6.00 Build 0)  -->
<svg version="1.1" xmlns="http://www.w3.org/2000/svg" xmlns:xlink="http://www.w3.org/1999/xlink" x="0px" y="0px"
	 viewBox="0 0 174.32 799.95" style="enable-background:new 0 0 174.32 799.95;" xml:space="preserve">
<style type="text/css">
	.st0{fill:#E6E7E7;}
	.st1{fill:none;stroke:#6D6F71;stroke-width:1.5;}
	.st2{fill:none;}
	.st3{fill:none;stroke:#58595B;stroke-width:0.3;}
	.st4{fill:#D1D2D3;}
	.st5{fill:#4B4A4B;}
	.st6{fill:#010202;}
	.st7{font-family:'Arial-BoldMT';}
	.st8{font-size:5.2974px;}
	.st9{font-size:7.7997px;}
	.st10{font-size:7.8942px;}
	.st11{font-size:8.4205px;}
	.st12{font-size:8.4236px;}
	.st13{font-size:8.7356px;}
	.st14{fill:#B1B3B5;}
	.st15{fill:none;stroke:#6D6F71;stroke-width:0.5;}
	.st16{fill:none;stroke:#010202;stroke-width:0.506;}
	.st17{fill:#DBDCDD;}
	.st18{fill:none;stroke:#6D6F71;stroke-width:0.507;}
	.st19{fill:none;stroke:#010202;stroke-width:0.7;stroke-linecap:round;stroke-linejoin:round;}
	.st20{fill:none;stroke:#010202;stroke-width:0.5;stroke-linecap:round;stroke-linejoin:round;}
	.st21{fill:none;stroke:#010202;stroke-width:0.7;}
	.st22{fill:none;stroke:#010202;stroke-width:0.059;}
	.st23{font-size:14.0394px;}
	.st24{font-size:9.9836px;}
	.st25{font-size:15.5312px;}
	.st26{opacity:0;fill:#FFFFFF;}
	.st27{font-size:15.5313px;}
	.st28{font-size:7.2094px;}
	.st29{fill:none;stroke:#010202;stroke-width:0.083;}
	.st30{fill:none;stroke:#010202;stroke-width:0.826;}
	.st31{fill:#FFFFFF;}
	.st32{font-size:10.2806px;}
	.st33{fill:none;stroke:#FFFFFF;stroke-linecap:round;stroke-linejoin:round;}
	.st34{fill:none;stroke:#B1B3B5;stroke-width:0.5;}
	.st35{font-size:4.9918px;}
	.st36{font-size:10.5991px;}
	.st37{fill:none;stroke:#010202;stroke-width:0.405;}
	.st38{fill:none;stroke:#010202;stroke-width:0.511;stroke-linecap:round;stroke-linejoin:round;}
	.st39{fill:#BCBDBF;}
	.st40{fill:#929597;}
	.st41{fill:#9B9DA0;}
	.st42{font-size:7.4877px;}
</style>
<g id="Background">
	<g id="BG">
		<path class="st0" d="M173.15,786.86c0,5.92-4.8,11.92-10.72,11.92H11.88c-5.92,0-10.71-6-10.71-11.92V19.32
			c0-5.92,3.49-12.24,9.52-13.12c85.45-11.31,152.95,0,152.95,0c6.12,1.14,9.52,7.2,9.52,13.12"/>
		<path class="st1" d="M173.15,786.86c0,5.92-4.8,11.92-10.72,11.92H11.88c-5.92,0-10.71-6-10.71-11.92V19.32
			c0-5.92,3.49-12.24,9.52-13.12c85.45-11.31,152.95,0,152.95,0c6.12,1.14,9.52,7.2,9.52,13.12V786.86z"/>
		<path class="st0" d="M169.77,784.16c0,5.92-4.8,10.71-10.71,10.71H15.84c-5.92,0-10.72-4.8-10.72-10.71V21.62
			c0-5.92,4.68-9.85,10.72-10.72c85.45-11.31,143.21,0,143.21,0c6.44,1.05,10.71,4.8,10.71,10.72"/>
		<polyline class="st2" points="0,0 0,799.95 174.32,799.95 174.32,0 		"/>
		<path class="st3" d="M169.77,784.16c0,5.92-4.8,10.71-10.71,10.71H15.84c-5.92,0-10.72-4.8-10.72-10.71V21.62
			c0-5.92,4.68-9.85,10.72-10.72c85.45-11.31,143.21,0,143.21,0c6.44,1.05,10.71,4.8,10.71,10.72V784.16z"/>
		<polyline class="st2" points="0,0 0,799.95 174.32,799.95 174.32,0 		"/>
		<path class="st4" d="M154.71,640.53h-4.68l-1.58,1.26h5.16c2.51,0,4.53,2.27,4.53,5.06v123.54c0,2.8-2.03,5.07-4.53,5.07H20.71
			l-1.2,0.94h135.19c2.54,0,4.61-2.32,4.61-5.17V645.7C159.32,642.85,157.25,640.53,154.71,640.53"/>
		<path class="st5" d="M20.87,775.46c-2.51,0-4.53-2.27-4.53-5.07V646.85c0-2.79,2.03-5.06,4.53-5.06h132.82l1.58-1.26H19.76
			c-2.54,0-4.6,2.31-4.6,5.17v125.53c0,2.85,2.06,5.17,4.6,5.17"/>
		<polyline class="st2" points="0,0 0,799.95 174.32,799.95 174.32,0 		"/>
		<polyline class="st2" points="0,0 0,799.95 174.32,799.95 174.32,0 		"/>
		<polyline class="st2" points="0,0 0,799.95 174.32,799.95 174.32,0 		"/>
		<polyline class="st2" points="0,0 0,799.95 174.32,799.95 174.32,0 		"/>
		<polyline class="st2" points="0,0 0,799.95 174.32,799.95 174.32,0 		"/>
		<polyline class="st2" points="0,0 0,799.95 174.32,799.95 174.32,0 		"/>
		<polyline class="st2" points="0,0 0,799.95 174.32,799.95 174.32,0 		"/>
		<polyline class="st2" points="0,0 0,799.95 174.32,799.95 174.32,0 		"/>
		<polyline class="st2" points="0,0 0,799.95 174.32,799.95 174.32,0 		"/>
		<polyline class="st2" points="0,0 0,799.95 174.32,799.95 174.32,0 		"/>
		<polyline class="st2" points="0,0 0,799.95 174.32,799.95 174.32,0 		"/>
		<polyline class="st2" points="0,0 0,799.95 174.32,799.95 174.32,0 		"/>
		<polyline class="st2" points="0,0 0,799.95 174.32,799.95 174.32,0 		"/>
		<polyline class="st2" points="0,0 0,799.95 174.32,799.95 174.32,0 		"/>
		<polyline class="st2" points="0,0 0,799.95 174.32,799.95 174.32,0 		"/>
	</g>
	<g>
		<polyline class="st6" points="159.91,333.76 159.91,345.21 161.7,345.21 161.7,338.73 162.94,338.73 		"/>
		<polyline class="st6" points="159.91,393.85 159.91,382.4 161.7,382.4 161.7,388.89 162.94,388.89 		"/>
		<text transform="matrix(1 0 0 1.1779 31.8287 653.4512)" class="st6 st7 st8">LIVE TV</text>
		<text transform="matrix(1 0 0 1 157.61 354.6904)" class="st6 st7 st9">P</text>
		<text transform="matrix(1 0 0 1 157.4694 362.4902)" class="st6 st7 st9">A</text>
		<text transform="matrix(1 0 0 1 157.1119 370.29)" class="st6 st7 st9">G</text>
		<text transform="matrix(1 0 0 1 157.5397 378.0898)" class="st6 st7 st9">E</text>
		<text transform="matrix(1 0 0 1.3333 55.528 94.3975)"><tspan x="0" y="0" class="st6 st7 st10">R</tspan><tspan x="5.7" y="0" class="st6 st7 st10">A</tspan><tspan x="10.83" y="0" class="st6 st7 st10">TIO</tspan></text>
		<text transform="matrix(1 0 0 1.25 93.2487 94.3975)" class="st6 st7 st11">INPUT</text>
		<text transform="matrix(1 0 0 1.1111 30.8658 308.8584)" class="st6 st7 st12">LIST</text>
		<text transform="matrix(1 0 0 1.4286 115.8951 418.4893)" class="st6 st7 st13">Q.MENU</text>
	</g>
	<g>
		<path class="st14" d="M156.41,584.71c0,9.97-8.09,18.06-18.06,18.06H36.55c-9.97,0-18.06-8.09-18.06-18.06V439.56
			c0-9.98,8.09-18.06,18.06-18.06h101.79c9.97,0,18.06,8.09,18.06,18.06"/>
		<path class="st15" d="M156.41,584.71c0,9.97-8.09,18.06-18.06,18.06H36.55c-9.97,0-18.06-8.09-18.06-18.06V439.56
			c0-9.98,8.09-18.06,18.06-18.06h101.79c9.97,0,18.06,8.09,18.06,18.06V584.71z"/>
		<g>
			<line class="st16" x1="61.75" y1="421.5" x2="61.75" y2="602.77"/>
			<line class="st16" x1="113.09" y1="421.5" x2="113.09" y2="602.77"/>
		</g>
		<g>
			<path class="st17" d="M143.28,548.99c0,11.42-9.79,20.67-21.87,20.67H53.05c-12.08,0-21.87-9.25-21.87-20.67v-71.5
				c0-11.42,9.79-20.68,21.87-20.68h68.36c12.08,0,21.87,9.26,21.87,20.68"/>
			<path class="st18" d="M143.28,548.99c0,11.42-9.79,20.67-21.87,20.67H53.05c-12.08,0-21.87-9.25-21.87-20.67v-71.5
				c0-11.42,9.79-20.68,21.87-20.68h68.36c12.08,0,21.87,9.26,21.87,20.68V548.99z"/>
		</g>
	</g>
</g>
<g id="Buttons">
	<g id="Power">
		<path class="st14" d="M65.48,55.12c0-12.81-10.4-23.19-23.2-23.19c-12.81,0-23.2,10.38-23.2,23.19c0,12.81,10.39,23.2,23.2,23.2
			C55.08,78.32,65.48,67.93,65.48,55.12"/>
		<path class="st19" d="M65.48,55.12c0-12.81-10.4-23.19-23.2-23.19c-12.81,0-23.2,10.38-23.2,23.19c0,12.81,10.39,23.2,23.2,23.2
			C55.08,78.32,65.48,67.93,65.48,55.12z"/>
		<path class="st6" d="M31.87,56.29c0-3.18,1.51-6.11,4.14-8.04c0.6-0.43,1.47-0.31,1.91,0.27c0.48,0.58,0.36,1.43-0.24,1.89
			c-1.95,1.4-3.03,3.56-3.03,5.88c0,4.06,3.39,7.38,7.56,7.38c4.18,0,7.6-3.32,7.6-7.38c0-2.44-1.24-4.72-3.34-6.08
			c-0.6-0.42-0.8-1.27-0.36-1.89c0.44-0.62,1.31-0.78,1.91-0.35c2.86,1.86,4.53,4.99,4.53,8.32c0,5.53-4.61,10.06-10.35,10.06
			C36.52,66.35,31.87,61.82,31.87,56.29"/>
		<path class="st6" d="M40.82,55.9V43.37c0-0.73,0.63-1.35,1.39-1.35c0.76,0,1.39,0.61,1.39,1.35V55.9c0,0.77-0.63,1.35-1.39,1.35
			C41.45,57.26,40.82,56.68,40.82,55.9"/>
	</g>
	<g id="Help">
		<path class="st14" d="M44.06,111.5c0-8.75-7.11-15.85-15.86-15.85c-8.76,0-15.86,7.1-15.86,15.85c0,8.76,7.1,15.86,15.86,15.86
			C36.95,127.36,44.06,120.26,44.06,111.5"/>
		<path class="st20" d="M44.06,111.5c0-8.75-7.11-15.85-15.86-15.85c-8.76,0-15.86,7.1-15.86,15.85c0,8.76,7.1,15.86,15.86,15.86
			C36.95,127.36,44.06,120.26,44.06,111.5z"/>
		<path class="st20" d="M32.91,104.63c-2.86,0-4.72,2.12-4.72,2.12s-1.86-2.12-4.72-2.12c-2.86,0-4.13,2.12-4.13,2.12v11.64
			c0,0,1.81-1,4.42-1c2.61,0,4.42,1,4.42,1s1.81-1,4.42-1c2.61,0,4.42,1,4.42,1v-11.64C37.04,106.74,35.77,104.63,32.91,104.63z"/>
		<path class="st6" d="M26.21,108.85c0.32-0.35,0.84-0.52,1.56-0.52c0.75,0,1.3,0.18,1.65,0.56c0.35,0.36,0.53,0.94,0.53,1.73
			c0,0.74-0.2,1.33-0.61,1.75c-0.27,0.29-0.69,0.54-1.26,0.74c-0.01,0.18-0.02,0.32-0.02,0.42c-0.01,0.13,0,0.27,0.01,0.41
			c0,0.09-0.04,0.17-0.13,0.22c-0.08,0.05-0.19,0.08-0.31,0.08c-0.12,0-0.23-0.03-0.31-0.08c-0.1-0.05-0.14-0.12-0.14-0.22v-1.29
			c0-0.1,0.01-0.18,0.03-0.23c0.02-0.08,0.07-0.14,0.14-0.17c0.05-0.02,0.17-0.05,0.34-0.1l0.2-0.04c0.39-0.09,0.68-0.27,0.87-0.56
			c0.17-0.25,0.25-0.57,0.25-0.95c0-0.42-0.11-0.75-0.32-0.98c-0.22-0.24-0.53-0.36-0.92-0.36c-0.49,0-0.8,0.09-0.93,0.26
			c-0.09,0.12-0.13,0.4-0.13,0.85c0.01,0.13-0.04,0.23-0.14,0.3c-0.09,0.07-0.2,0.11-0.32,0.11c-0.13,0-0.24-0.04-0.33-0.11
			c-0.1-0.07-0.15-0.17-0.15-0.3C25.78,109.68,25.92,109.18,26.21,108.85 M28.12,116.38c-0.14,0.13-0.31,0.19-0.51,0.19
			c-0.21,0-0.38-0.07-0.53-0.19c-0.15-0.14-0.23-0.31-0.23-0.52c0-0.22,0.07-0.4,0.23-0.54c0.14-0.14,0.32-0.21,0.53-0.21
			c0.19,0,0.36,0.07,0.51,0.21c0.16,0.15,0.24,0.33,0.24,0.54C28.37,116.06,28.28,116.24,28.12,116.38"/>
	</g>
	<g id="Ratio">
		<path class="st14" d="M83.37,112.52c0-8.76-7.11-15.85-15.86-15.85c-8.76,0-15.86,7.1-15.86,15.85c0,8.75,7.11,15.86,15.86,15.86
			C76.27,128.38,83.37,121.27,83.37,112.52"/>
		<path class="st20" d="M83.37,112.52c0-8.76-7.11-15.85-15.86-15.85c-8.76,0-15.86,7.1-15.86,15.85c0,8.75,7.11,15.86,15.86,15.86
			C76.27,128.38,83.37,121.27,83.37,112.52z"/>
		<path class="st21" d="M56.18,117.6c0,0.49,0.61,0.89,1.36,0.89h19.92c0.75,0,1.37-0.4,1.37-0.89v-9.67c0-0.49-0.61-0.89-1.37-0.89
			H57.55c-0.76,0-1.36,0.4-1.36,0.89V117.6z"/>
		<path class="st21" d="M74.14,121.88c0.68,0,1.22-0.49,1.22-1.1v-16.05c0-0.61-0.54-1.1-1.22-1.1H60.88c-0.68,0-1.22,0.49-1.22,1.1
			v16.05c0,0.61,0.55,1.1,1.22,1.1H74.14z"/>
	</g>
	<g id="Input">
		<path class="st14" d="M121.75,112.52c0-8.76-7.11-15.85-15.86-15.85c-8.76,0-15.86,7.1-15.86,15.85c0,8.75,7.1,15.86,15.86,15.86
			C114.64,128.38,121.75,121.27,121.75,112.52"/>
		<path class="st20" d="M121.75,112.52c0-8.76-7.11-15.85-15.86-15.85c-8.76,0-15.86,7.1-15.86,15.85c0,8.75,7.1,15.86,15.86,15.86
			C114.64,128.38,121.75,121.27,121.75,112.52z"/>
		<polyline class="st6" points="104.95,114.82 104.95,114.89 111.38,112.51 105.01,110.06 		"/>
		<polygon class="st22" points="104.95,114.82 104.95,114.89 111.38,112.51 105.01,110.06 		"/>
		<path class="st6" d="M101.24,107.6l-0.28,0.04l-0.06,0.27c-0.04,0.16-0.86,3.9-0.01,9.18l0.05,0.29l0.3,0.05
			c0.33,0.05,8.21,1.23,14.18,0l0.24-0.05l0.07-0.23c0.05-0.18,1.37-4.51,0.06-9.25l-0.07-0.24l-0.25-0.04
			C115.41,107.59,109.28,106.42,101.24,107.6 M115.02,108.34c0.36,1.38,0.52,2.75,0.52,3.95c0,2.2-0.4,3.84-0.53,4.37
			c-5.33,1.03-12.15,0.17-13.33,0.01c-0.23-1.59-0.34-3.07-0.34-4.31c0-2.02,0.21-3.44,0.31-4
			C108.65,107.37,114,108.16,115.02,108.34"/>
		<path class="st22" d="M115.02,108.34c0.36,1.38,0.52,2.75,0.52,3.95c0,2.2-0.4,3.84-0.53,4.37c-5.33,1.03-12.15,0.17-13.33,0.01
			c-0.23-1.59-0.34-3.07-0.34-4.31c0-2.02,0.21-3.44,0.31-4C108.65,107.37,114,108.16,115.02,108.34z"/>
		<path class="st22" d="M101.24,107.6l-0.28,0.04l-0.06,0.27c-0.04,0.16-0.86,3.9-0.01,9.18l0.05,0.29l0.3,0.05
			c0.33,0.05,8.21,1.23,14.18,0l0.24-0.05l0.07-0.23c0.05-0.18,1.37-4.51,0.06-9.25l-0.07-0.24l-0.25-0.04
			C115.41,107.59,109.28,106.42,101.24,107.6z"/>
		<rect x="95.4" y="112.12" class="st6" width="9.71" height="0.8"/>
		<rect x="95.4" y="112.12" class="st22" width="9.71" height="0.8"/>
	</g>
	<g id="TV">
		<path class="st14" d="M160.58,112.31c0-8.76-7.11-15.85-15.86-15.85c-8.76,0-15.87,7.1-15.87,15.85c0,8.75,7.11,15.86,15.87,15.86
			C153.47,128.17,160.58,121.06,160.58,112.31"/>
		<path class="st20" d="M160.58,112.31c0-8.76-7.11-15.85-15.86-15.85c-8.76,0-15.87,7.1-15.87,15.85c0,8.75,7.11,15.86,15.87,15.86
			C153.47,128.17,160.58,121.06,160.58,112.31z"/>
		<text transform="matrix(1 0 0 1.1111 135.7448 118.4902)" class="st6 st7 st23">TV</text>
	</g>
	<g id="Num1">
		<path class="st14" d="M20.08,177.13c0,1.37,1.07,2.48,2.4,2.48h35.03c1.32,0,2.4-1.11,2.4-2.48v-26.88c0-1.37-1.08-2.48-2.4-2.48
			H22.48c-1.33,0-2.4,1.11-2.4,2.48"/>
		<path class="st15" d="M20.08,177.13c0,1.37,1.07,2.48,2.4,2.48h35.03c1.32,0,2.4-1.11,2.4-2.48v-26.88c0-1.37-1.08-2.48-2.4-2.48
			H22.48c-1.33,0-2.4,1.11-2.4,2.48V177.13z"/>
		<path class="st6" d="M43,172.07h-3.19v-13.35c-1.16,1.21-2.54,2.1-4.12,2.68v-3.21c0.83-0.3,1.74-0.88,2.71-1.72
			c0.97-0.84,1.65-1.83,2.01-2.96H43V172.07z"/>
	</g>
	<g id="Num2">
		<path class="st14" d="M67.89,177.13c0,1.37,1.07,2.48,2.4,2.48h35.03c1.33,0,2.4-1.11,2.4-2.48v-26.88c0-1.37-1.07-2.48-2.4-2.48
			H70.29c-1.33,0-2.4,1.11-2.4,2.48"/>
		<path class="st15" d="M67.89,177.13c0,1.37,1.07,2.48,2.4,2.48h35.03c1.33,0,2.4-1.11,2.4-2.48v-26.88c0-1.37-1.07-2.48-2.4-2.48
			H70.29c-1.33,0-2.4,1.11-2.4,2.48V177.13z"/>
		<path class="st6" d="M93.65,168.78v3.29H82.48c0.12-1.24,0.48-2.42,1.09-3.53c0.6-1.11,1.8-2.59,3.58-4.43
			c1.44-1.49,2.32-2.5,2.64-3.02c0.44-0.73,0.66-1.45,0.66-2.17c0-0.79-0.19-1.4-0.57-1.82c-0.38-0.42-0.91-0.64-1.58-0.64
			c-0.67,0-1.2,0.22-1.59,0.67c-0.39,0.45-0.62,1.19-0.68,2.22l-3.18-0.35c0.19-1.95,0.78-3.35,1.78-4.2c1-0.85,2.25-1.27,3.74-1.27
			c1.64,0,2.93,0.49,3.87,1.47c0.94,0.98,1.41,2.21,1.41,3.67c0,0.83-0.13,1.62-0.4,2.38c-0.27,0.75-0.69,1.54-1.28,2.36
			c-0.39,0.55-1.08,1.33-2.09,2.36c-1.01,1.03-1.64,1.71-1.91,2.04c-0.27,0.34-0.49,0.66-0.65,0.98H93.65z"/>
	</g>
	<g id="Num3">
		<path class="st14" d="M115.7,177.13c0,1.37,1.07,2.48,2.4,2.48h35.03c1.33,0,2.4-1.11,2.4-2.48v-26.88c0-1.37-1.07-2.48-2.4-2.48
			H118.1c-1.33,0-2.4,1.11-2.4,2.48"/>
		<path class="st15" d="M115.7,177.13c0,1.37,1.07,2.48,2.4,2.48h35.03c1.33,0,2.4-1.11,2.4-2.48v-26.88c0-1.37-1.07-2.48-2.4-2.48
			H118.1c-1.33,0-2.4,1.11-2.4,2.48V177.13z"/>
		<path class="st6" d="M130.82,167.17l3.09-0.42c0.1,0.87,0.36,1.54,0.79,2c0.43,0.46,0.95,0.69,1.56,0.69
			c0.66,0,1.21-0.28,1.66-0.83c0.45-0.55,0.67-1.3,0.67-2.24c0-0.89-0.21-1.6-0.65-2.12c-0.43-0.52-0.96-0.78-1.58-0.78
			c-0.41,0-0.9,0.09-1.46,0.26l0.35-2.89c0.86,0.03,1.52-0.18,1.97-0.62c0.45-0.44,0.68-1.03,0.68-1.76c0-0.62-0.17-1.12-0.5-1.49
			c-0.33-0.37-0.78-0.55-1.33-0.55c-0.55,0-1.01,0.21-1.4,0.63c-0.39,0.42-0.62,1.03-0.7,1.84l-2.94-0.55
			c0.2-1.12,0.51-2.01,0.92-2.68c0.41-0.67,0.99-1.19,1.72-1.58c0.74-0.38,1.56-0.57,2.48-0.57c1.57,0,2.82,0.55,3.77,1.66
			c0.78,0.91,1.17,1.93,1.17,3.08c0,1.62-0.8,2.92-2.39,3.88c0.95,0.23,1.72,0.74,2.29,1.52c0.57,0.79,0.86,1.74,0.86,2.86
			c0,1.62-0.53,3-1.6,4.15c-1.07,1.14-2.39,1.71-3.98,1.71c-1.51,0-2.75-0.48-3.74-1.44C131.55,169.98,130.98,168.72,130.82,167.17z
			"/>
	</g>
	<g id="Num4">
		<path class="st14" d="M20.08,217.31c0,1.37,1.07,2.48,2.4,2.48h35.03c1.32,0,2.4-1.11,2.4-2.48v-26.88c0-1.37-1.08-2.48-2.4-2.48
			H22.48c-1.33,0-2.4,1.11-2.4,2.48"/>
		<path class="st15" d="M20.08,217.31c0,1.37,1.07,2.48,2.4,2.48h35.03c1.32,0,2.4-1.11,2.4-2.48v-26.88c0-1.37-1.08-2.48-2.4-2.48
			H22.48c-1.33,0-2.4,1.11-2.4,2.48V217.31z"/>
		<path class="st6" d="M41.09,213.22v-3.72h-6.81v-3.1l7.21-11.73h2.68v11.72h2.06v3.11h-2.06v3.72H41.09z M41.09,206.39v-6.31
			l-3.82,6.31H41.09z"/>
	</g>
	<g id="Num5">
		<path class="st14" d="M67.89,217.31c0,1.37,1.07,2.48,2.4,2.48h35.03c1.33,0,2.4-1.11,2.4-2.48v-26.88c0-1.37-1.07-2.48-2.4-2.48
			H70.29c-1.33,0-2.4,1.11-2.4,2.48"/>
		<path class="st15" d="M67.89,217.31c0,1.37,1.07,2.48,2.4,2.48h35.03c1.33,0,2.4-1.11,2.4-2.48v-26.88c0-1.37-1.07-2.48-2.4-2.48
			H70.29c-1.33,0-2.4,1.11-2.4,2.48V217.31z"/>
		<path class="st6" d="M82.7,208.47l3.18-0.37c0.09,0.8,0.36,1.43,0.8,1.9c0.45,0.47,0.96,0.7,1.54,0.7c0.67,0,1.23-0.3,1.69-0.9
			c0.46-0.6,0.69-1.51,0.69-2.72c0-1.13-0.23-1.98-0.69-2.55c-0.46-0.57-1.05-0.85-1.79-0.85c-0.91,0-1.74,0.45-2.46,1.35
			l-2.59-0.42l1.63-9.62h8.43v3.31h-6.01l-0.5,3.14c0.71-0.39,1.44-0.59,2.18-0.59c1.41,0,2.61,0.57,3.6,1.71
			c0.98,1.14,1.47,2.63,1.47,4.45c0,1.52-0.4,2.88-1.19,4.07c-1.08,1.63-2.58,2.45-4.5,2.45c-1.54,0-2.79-0.46-3.76-1.37
			C83.47,211.24,82.89,210.01,82.7,208.47z"/>
	</g>
	<g id="Num6">
		<path class="st14" d="M115.7,217.31c0,1.37,1.07,2.48,2.4,2.48h35.03c1.33,0,2.4-1.11,2.4-2.48v-26.88c0-1.37-1.07-2.48-2.4-2.48
			H118.1c-1.33,0-2.4,1.11-2.4,2.48"/>
		<path class="st15" d="M115.7,217.31c0,1.37,1.07,2.48,2.4,2.48h35.03c1.33,0,2.4-1.11,2.4-2.48v-26.88c0-1.37-1.07-2.48-2.4-2.48
			H118.1c-1.33,0-2.4,1.11-2.4,2.48V217.31z"/>
		<path class="st6" d="M140.73,199.27l-3.08,0.38c-0.08-0.71-0.27-1.23-0.59-1.56c-0.32-0.34-0.73-0.5-1.24-0.5
			c-0.67,0-1.24,0.34-1.71,1.01c-0.47,0.67-0.76,2.07-0.88,4.2c0.79-1.04,1.78-1.56,2.96-1.56c1.33,0,2.47,0.56,3.42,1.69
			c0.95,1.13,1.42,2.58,1.42,4.36c0,1.89-0.5,3.41-1.5,4.55c-1,1.14-2.28,1.71-3.85,1.71c-1.68,0-3.06-0.73-4.14-2.17
			c-1.08-1.45-1.62-3.83-1.62-7.13c0-3.39,0.56-5.83,1.69-7.32c1.13-1.5,2.59-2.24,4.39-2.24c1.26,0,2.31,0.39,3.14,1.18
			C139.98,196.63,140.51,197.77,140.73,199.27z M133.51,206.99c0,1.15,0.24,2.04,0.71,2.67c0.48,0.63,1.02,0.94,1.63,0.94
			c0.59,0,1.08-0.26,1.47-0.77c0.39-0.51,0.59-1.35,0.59-2.52c0-1.2-0.21-2.08-0.64-2.64c-0.42-0.56-0.95-0.84-1.59-0.84
			c-0.61,0-1.13,0.27-1.55,0.8C133.72,205.16,133.51,205.95,133.51,206.99z"/>
	</g>
	<g id="Num7">
		<path class="st14" d="M20.08,257.2c0,1.37,1.07,2.48,2.4,2.48h35.03c1.32,0,2.4-1.11,2.4-2.48v-26.88c0-1.37-1.08-2.48-2.4-2.48
			H22.48c-1.33,0-2.4,1.11-2.4,2.48"/>
		<path class="st15" d="M20.08,257.2c0,1.37,1.07,2.48,2.4,2.48h35.03c1.32,0,2.4-1.11,2.4-2.48v-26.88c0-1.37-1.08-2.48-2.4-2.48
			H22.48c-1.33,0-2.4,1.11-2.4,2.48V257.2z"/>
		<path class="st6" d="M34.84,238.24v-3.29h10.9v2.57c-0.9,0.98-1.82,2.39-2.75,4.23c-0.93,1.84-1.64,3.8-2.13,5.87
			c-0.49,2.07-0.73,3.92-0.72,5.55h-3.07c0.05-2.55,0.53-5.16,1.42-7.81c0.9-2.66,2.09-5.03,3.59-7.12H34.84z"/>
	</g>
	<g id="Num8">
		<path class="st14" d="M67.89,257.2c0,1.37,1.07,2.48,2.4,2.48h35.03c1.33,0,2.4-1.11,2.4-2.48v-26.88c0-1.37-1.07-2.48-2.4-2.48
			H70.29c-1.33,0-2.4,1.11-2.4,2.48"/>
		<path class="st15" d="M67.89,257.2c0,1.37,1.07,2.48,2.4,2.48h35.03c1.33,0,2.4-1.11,2.4-2.48v-26.88c0-1.37-1.07-2.48-2.4-2.48
			H70.29c-1.33,0-2.4,1.11-2.4,2.48V257.2z"/>
		<path class="st6" d="M85.57,243.2c-0.82-0.39-1.42-0.92-1.8-1.59c-0.37-0.68-0.56-1.42-0.56-2.22c0-1.38,0.43-2.52,1.3-3.42
			c0.87-0.9,2.1-1.35,3.69-1.35c1.58,0,2.81,0.45,3.68,1.35c0.87,0.9,1.31,2.04,1.31,3.42c0,0.86-0.2,1.62-0.6,2.29
			c-0.4,0.67-0.96,1.18-1.69,1.53c0.92,0.41,1.62,1.01,2.1,1.8c0.48,0.79,0.72,1.7,0.72,2.73c0,1.71-0.49,3.09-1.47,4.16
			c-0.98,1.07-2.28,1.6-3.91,1.6c-1.51,0-2.77-0.44-3.78-1.32c-1.19-1.04-1.78-2.47-1.78-4.29c0-1,0.22-1.92,0.67-2.75
			C83.91,244.3,84.62,243.66,85.57,243.2z M85.94,247.55c0,0.97,0.22,1.74,0.67,2.28c0.45,0.55,1.01,0.82,1.68,0.82
			c0.66,0,1.2-0.26,1.63-0.79c0.43-0.52,0.65-1.28,0.65-2.27c0-0.87-0.22-1.56-0.66-2.09c-0.44-0.52-0.99-0.79-1.67-0.79
			c-0.78,0-1.36,0.3-1.74,0.89C86.13,246.21,85.94,246.86,85.94,247.55z M86.23,239.64c0,0.71,0.18,1.26,0.54,1.65
			c0.36,0.4,0.84,0.59,1.44,0.59c0.6,0,1.09-0.2,1.45-0.6s0.54-0.95,0.54-1.66c0-0.66-0.18-1.2-0.54-1.59
			c-0.36-0.4-0.83-0.6-1.42-0.6c-0.61,0-1.1,0.2-1.46,0.6C86.41,238.44,86.23,238.97,86.23,239.64z"/>
	</g>
	<g id="Num9">
		<path class="st14" d="M115.7,257.2c0,1.37,1.07,2.48,2.4,2.48h35.03c1.33,0,2.4-1.11,2.4-2.48v-26.88c0-1.37-1.07-2.48-2.4-2.48
			H118.1c-1.33,0-2.4,1.11-2.4,2.48"/>
		<path class="st15" d="M115.7,257.2c0,1.37,1.07,2.48,2.4,2.48h35.03c1.33,0,2.4-1.11,2.4-2.48v-26.88c0-1.37-1.07-2.48-2.4-2.48
			H118.1c-1.33,0-2.4,1.11-2.4,2.48V257.2z"/>
		<g>
			<path class="st6" d="M130.04,248.9l3.09-0.38c0.07,0.7,0.27,1.21,0.59,1.55c0.32,0.34,0.74,0.5,1.26,0.5
				c0.66,0,1.22-0.34,1.68-1.01c0.46-0.67,0.76-2.07,0.88-4.18c-0.8,1.03-1.8,1.55-3.01,1.55c-1.31,0-2.44-0.56-3.39-1.68
				c-0.95-1.12-1.42-2.58-1.42-4.38c0-1.87,0.5-3.38,1.5-4.53c1-1.15,2.28-1.72,3.83-1.72c1.69,0,3.07,0.72,4.15,2.17
				c1.08,1.45,1.62,3.83,1.62,7.15c0,3.38-0.56,5.81-1.69,7.31c-1.13,1.5-2.59,2.24-4.4,2.24c-1.3,0-2.35-0.38-3.15-1.15
				C130.78,251.58,130.27,250.43,130.04,248.9z M137.26,241.16c0-1.14-0.24-2.03-0.71-2.66c-0.47-0.63-1.02-0.95-1.64-0.95
				c-0.59,0-1.08,0.26-1.47,0.78c-0.39,0.52-0.58,1.36-0.58,2.54c0,1.19,0.21,2.07,0.64,2.63c0.42,0.56,0.95,0.84,1.59,0.84
				c0.61,0,1.13-0.27,1.55-0.81C137.05,243,137.26,242.21,137.26,241.16z"/>
		</g>
	</g>
	<g id="Num0">
		<path class="st14" d="M67.89,297.39c0,1.37,1.07,2.48,2.4,2.48h35.03c1.33,0,2.4-1.11,2.4-2.48v-26.88c0-1.37-1.07-2.48-2.4-2.48
			H70.29c-1.33,0-2.4,1.11-2.4,2.48"/>
		<path class="st15" d="M67.89,297.39c0,1.37,1.07,2.48,2.4,2.48h35.03c1.33,0,2.4-1.11,2.4-2.48v-26.88c0-1.37-1.07-2.48-2.4-2.48
			H70.29c-1.33,0-2.4,1.11-2.4,2.48V297.39z"/>
		<g>
			<path class="st6" d="M88.3,274.61c1.61,0,2.87,0.64,3.78,1.92c1.08,1.51,1.62,4.02,1.62,7.52c0,3.5-0.54,6.01-1.63,7.54
				c-0.9,1.26-2.16,1.89-3.77,1.89c-1.62,0-2.92-0.69-3.91-2.07c-0.99-1.38-1.49-3.85-1.49-7.39c0-3.48,0.55-5.98,1.63-7.51
				C85.43,275.24,86.69,274.61,88.3,274.61z M88.3,277.54c-0.39,0-0.73,0.14-1.03,0.41c-0.3,0.27-0.54,0.76-0.7,1.47
				c-0.22,0.92-0.33,2.46-0.33,4.63s0.1,3.66,0.29,4.47c0.2,0.81,0.44,1.35,0.74,1.62c0.3,0.27,0.64,0.4,1.03,0.4
				s0.73-0.14,1.03-0.41c0.3-0.27,0.54-0.76,0.7-1.47c0.22-0.91,0.33-2.45,0.33-4.61s-0.1-3.66-0.3-4.47
				c-0.2-0.81-0.44-1.35-0.74-1.63C89.02,277.68,88.68,277.54,88.3,277.54z"/>
		</g>
	</g>
	<g id="List">
		<path class="st14" d="M20.08,297.39c0,1.37,1.07,2.48,2.4,2.48h35.03c1.32,0,2.4-1.11,2.4-2.48v-26.88c0-1.37-1.08-2.48-2.4-2.48
			H22.48c-1.33,0-2.4,1.11-2.4,2.48"/>
		<path class="st15" d="M20.08,297.39c0,1.37,1.07,2.48,2.4,2.48h35.03c1.32,0,2.4-1.11,2.4-2.48v-26.88c0-1.37-1.08-2.48-2.4-2.48
			H22.48c-1.33,0-2.4,1.11-2.4,2.48V297.39z"/>
		<path class="st6" d="M30.46,282.14c-0.84,0-1.52,0.81-1.52,1.81c0,0.99,0.68,1.8,1.52,1.8h19.07c0.84,0,1.52-0.81,1.52-1.8
			c0-1-0.68-1.81-1.52-1.81"/>
	</g>
	<g id="QView">
		<path class="st14" d="M115.7,297.39c0,1.37,1.07,2.48,2.4,2.48h35.03c1.33,0,2.4-1.11,2.4-2.48v-26.88c0-1.37-1.07-2.48-2.4-2.48
			H118.1c-1.33,0-2.4,1.11-2.4,2.48"/>
		<path class="st15" d="M115.7,297.39c0,1.37,1.07,2.48,2.4,2.48h35.03c1.33,0,2.4-1.11,2.4-2.48v-26.88c0-1.37-1.07-2.48-2.4-2.48
			H118.1c-1.33,0-2.4,1.11-2.4,2.48V297.39z"/>
		<text transform="matrix(1 0 0 1.25 117.5865 289.0527)" class="st6 st7 st24">Q.VIEW</text>
	</g>
	<g id="VolBtn">
		<path class="st14" d="M20.08,401.46c0,1.37,1.07,2.48,2.4,2.48h35.03c1.32,0,2.4-1.11,2.4-2.48v-73.94c0-1.37-1.08-2.48-2.4-2.48
			H22.48c-1.33,0-2.4,1.11-2.4,2.48"/>
		<path class="st15" d="M20.08,401.46c0,1.37,1.07,2.48,2.4,2.48h35.03c1.32,0,2.4-1.11,2.4-2.48v-73.94c0-1.37-1.08-2.48-2.4-2.48
			H22.48c-1.33,0-2.4,1.11-2.4,2.48V401.46z"/>
		<text transform="matrix(1 0 0 1.0939 24.1666 368.5851)" class="st6 st7 st25">VOL</text>
	</g>
	<g id="VolUp">
		<path class="st6" d="M31.99,337.19c-0.64,0-1.15,0.5-1.15,1.12c0,0.62,0.52,1.12,1.15,1.12h15.38c0.63,0,1.15-0.5,1.15-1.12
			c0-0.61-0.52-1.12-1.15-1.12"/>
		<path class="st6" d="M38.53,330.84v14.94c0,0.62,0.52,1.12,1.15,1.12c0.64,0,1.16-0.5,1.16-1.12v-14.94
			c0-0.62-0.51-1.12-1.16-1.12C39.05,329.72,38.53,330.22,38.53,330.84"/>
		<rect x="20.08" y="325.04" class="st26" width="39.83" height="29.65"/>
	</g>
	<g id="VolDown">
		<rect x="19.76" y="374.17" class="st26" width="39.83" height="29.65"/>
		<path class="st6" d="M30.15,387.51c-0.84,0-1.52,0.66-1.52,1.48c0,0.81,0.68,1.48,1.52,1.48h19.07c0.84,0,1.52-0.66,1.52-1.48
			c0-0.82-0.68-1.48-1.52-1.48"/>
	</g>
	<g id="ChBtn">
		<path class="st14" d="M115.19,401.46c0,1.37,1.07,2.48,2.4,2.48h35.03c1.33,0,2.4-1.11,2.4-2.48v-73.94c0-1.37-1.07-2.48-2.4-2.48
			h-35.03c-1.33,0-2.4,1.11-2.4,2.48"/>
		<path class="st15" d="M115.19,401.46c0,1.37,1.07,2.48,2.4,2.48h35.03c1.33,0,2.4-1.11,2.4-2.48v-73.94c0-1.37-1.07-2.48-2.4-2.48
			h-35.03c-1.33,0-2.4,1.11-2.4,2.48V401.46z"/>
		<text transform="matrix(1 0 0 1.1349 123.8854 368.5851)" class="st6 st7 st27">CH</text>
	</g>
	<g id="ChUp">
		<path class="st6" d="M134.71,330.2l-9.53,9.31c-0.48,0.47-0.48,1.22,0,1.69c0.49,0.47,1.27,0.46,1.74,0c0,0,7.93-7.74,8.95-8.74
			c1.01,0.99,8.95,8.74,8.95,8.74c0.48,0.46,1.25,0.47,1.74,0c0.48-0.47,0.48-1.23,0-1.69l-9.53-9.3
			C136.39,329.58,135.35,329.58,134.71,330.2"/>
		<rect x="115.19" y="325.04" class="st26" width="39.83" height="29.65"/>
	</g>
	<g id="ChDown">
		<path class="st6" d="M144.83,385.06c0,0-7.92,7.74-8.95,8.74c-2.02-1.96-8.95-8.74-8.95-8.74c-0.48-0.47-1.25-0.47-1.74,0
			c-0.48,0.47-0.48,1.22,0,1.69l9.53,9.3c0.64,0.62,1.68,0.62,2.33,0.01l9.53-9.31c0.49-0.47,0.49-1.23,0-1.69
			C146.08,384.59,145.31,384.59,144.83,385.06"/>
		<rect x="115.19" y="374.17" class="st26" width="39.83" height="29.65"/>
	</g>
	<g id="Fav">
		<path class="st14" d="M64.5,341.78c0,0.89,1.17,1.62,2.63,1.62h38.38c1.46,0,2.63-0.73,2.63-1.62v-14.31
			c0-0.9-1.17-1.62-2.63-1.62H67.13c-1.46,0-2.63,0.72-2.63,1.62"/>
		<path class="st15" d="M64.5,341.78c0,0.89,1.17,1.62,2.63,1.62h38.38c1.46,0,2.63-0.73,2.63-1.62v-14.31
			c0-0.9-1.17-1.62-2.63-1.62H67.13c-1.46,0-2.63,0.72-2.63,1.62V341.78z"/>
		<text transform="matrix(1 0 0 1.25 76.9811 339.4883)"><tspan x="0" y="0" class="st6 st7 st24">F</tspan><tspan x="5.55" y="0" class="st6 st7 st24">A</tspan><tspan x="12.03" y="0" class="st6 st7 st24">V</tspan></text>
	</g>
	<g id="Settings">
		<path class="st14" d="M64.5,372.55c0,0.89,1.17,1.62,2.63,1.62h38.38c1.46,0,2.63-0.73,2.63-1.62v-14.31
			c0-0.9-1.17-1.62-2.63-1.62H67.13c-1.46,0-2.63,0.72-2.63,1.62"/>
		<path class="st15" d="M64.5,372.55c0,0.89,1.17,1.62,2.63,1.62h38.38c1.46,0,2.63-0.73,2.63-1.62v-14.31
			c0-0.9-1.17-1.62-2.63-1.62H67.13c-1.46,0-2.63,0.72-2.63,1.62V372.55z"/>
		<text transform="matrix(1 0 0 1.7102 68.8151 369.7705)" class="st6 st7 st28">SETTINGS</text>
	</g>
	<g id="Mute">
		<path class="st14" d="M64.5,403.11c0,0.89,1.17,1.62,2.63,1.62h38.38c1.46,0,2.63-0.73,2.63-1.62V388.8
			c0-0.89-1.17-1.62-2.63-1.62H67.13c-1.46,0-2.63,0.73-2.63,1.62"/>
		<path class="st15" d="M64.5,403.11c0,0.89,1.17,1.62,2.63,1.62h38.38c1.46,0,2.63-0.73,2.63-1.62V388.8
			c0-0.89-1.17-1.62-2.63-1.62H67.13c-1.46,0-2.63,0.73-2.63,1.62V403.11z"/>
		<path class="st6" d="M97.99,393.77c-0.21,0-0.39,0.17-0.39,0.37v3.63c0,0.21,0.18,0.38,0.39,0.38H100c0.22,0,0.39-0.17,0.39-0.38
			v-3.63c0-0.21-0.17-0.37-0.39-0.37 M99.62,397.4h-1.24v-2.88h1.24V397.4z"/>
		<path class="st6" d="M103.28,391.72l-3.47,2.11l-0.18,0.32l-0.01,3.56l0.18,0.32l3.49,2.18l0.39,0.01c0.12-0.07,0.2-0.19,0.2-0.33
			v-7.85c0-0.14-0.07-0.26-0.19-0.33 M103.09,392.71v6.49c-0.76-0.48-2.45-1.54-2.71-1.7c0-0.34,0.01-2.8,0.01-3.14
			C100.65,394.19,102.33,393.17,103.09,392.71"/>
		<path class="st6" d="M104.76,392.69l-7.88,5.97c-0.17,0.12-0.2,0.36-0.07,0.52c0.13,0.17,0.37,0.19,0.54,0.06l7.88-5.96
			c0.17-0.12,0.2-0.36,0.07-0.52C105.16,392.59,104.92,392.57,104.76,392.69"/>
		<path class="st6" d="M96.81,392.75c-0.13,0.17-0.1,0.4,0.07,0.52l7.88,5.96c0.17,0.13,0.41,0.1,0.54-0.06
			c0.13-0.16,0.1-0.4-0.07-0.52l-7.88-5.97C97.18,392.57,96.94,392.59,96.81,392.75"/>
		<text transform="matrix(1 0 0 1.25 67.2604 400.375)" class="st6 st7 st24">MUTE</text>
	</g>
	<g id="Info">
		<path class="st6" d="M52.2,437.29h1.04v1.2H52.2V437.29z M52.2,439.32h1.04v4.18H52.2V439.32z"/>
		<path class="st29" d="M52.2,437.29h1.04v1.2H52.2V437.29z M52.2,439.32h1.04v4.18H52.2V439.32z"/>
		<path class="st6" d="M47.5,440.37c0,2.79,2.33,5.06,5.21,5.06c2.87,0,5.2-2.27,5.2-5.06c0-2.8-2.33-5.06-5.2-5.06
			C49.83,435.31,47.5,437.58,47.5,440.37 M48.53,440.37c0-2.24,1.87-4.06,4.18-4.06c2.3,0,4.17,1.82,4.17,4.06
			c0,2.24-1.87,4.06-4.17,4.06C50.4,444.43,48.53,442.61,48.53,440.37"/>
		<path class="st29" d="M48.53,440.37c0-2.24,1.87-4.06,4.18-4.06c2.3,0,4.17,1.82,4.17,4.06c0,2.24-1.87,4.06-4.17,4.06
			C50.4,444.43,48.53,442.61,48.53,440.37z"/>
		<path class="st29" d="M47.5,440.37c0,2.79,2.33,5.06,5.21,5.06c2.87,0,5.2-2.27,5.2-5.06c0-2.8-2.33-5.06-5.2-5.06
			C49.83,435.31,47.5,437.58,47.5,440.37z"/>
		<text transform="matrix(1 0 0 1.25 22.7076 444.3301)" class="st6 st7 st24">INFO</text>
		<path class="st26" d="M20.15,454.22H60.5v-30.48H35.59c0,0-4.97-0.13-8.82,3.39c-6.63,6.05-6.63,11.65-6.63,11.65V454.22z"/>
	</g>
	<g id="Smart">
		<path class="st6" d="M109.56,451.86c0,1.43-0.96,2.59-2.12,2.59H67.46c-1.17,0-2.12-1.16-2.12-2.59v-25.78
			c0-1.43,0.94-2.58,2.12-2.58h39.98c1.17,0,2.12,1.16,2.12,2.58"/>
		<path class="st30" d="M109.56,451.86c0,1.43-0.96,2.59-2.12,2.59H67.46c-1.17,0-2.12-1.16-2.12-2.59v-25.78
			c0-1.43,0.94-2.58,2.12-2.58h39.98c1.17,0,2.12,1.16,2.12,2.58V451.86z"/>
		<text transform="matrix(1 0 0 1.0525 69.1979 451.0713)" class="st31 st7 st32">SMART</text>
		<path class="st33" d="M95.72,433.27c0-0.07-0.03-0.13-0.09-0.18l-7.97-6.91c-0.12-0.1-0.3-0.1-0.42,0l-7.97,6.91
			c-0.06,0.05-0.09,0.12-0.09,0.18h2.42v6.22c0,0.16,0.15,0.29,0.34,0.29h10.78c0.19,0,0.34-0.13,0.34-0.29v-6.22H95.72z"/>
		<rect x="85.1" y="435.55" class="st31" width="4.7" height="4.42"/>
	</g>
	<g id="MyApps">
		<text transform="matrix(1 0 0 1.4286 115.8954 451.8815)"><tspan x="0" y="0" class="st6 st7 st13">M</tspan><tspan x="7.28" y="0" class="st6 st7 st13">Y</tspan><tspan x="12.96" y="0" class="st6 st7 st13"> </tspan><tspan x="15.07" y="0" class="st6 st7 st13">APPS</tspan></text>
		<rect x="127.72" y="428.06" class="st6" width="13.27" height="13.27"/>
		<line class="st34" x1="136.74" y1="428.06" x2="136.74" y2="441.33"/>
		<line class="st34" x1="131.96" y1="428.06" x2="131.96" y2="441.33"/>
		<line class="st34" x1="127.72" y1="432.31" x2="140.98" y2="432.31"/>
		<line class="st34" x1="127.72" y1="437.08" x2="140.98" y2="437.08"/>
		<path class="st26" d="M155.07,453.99h-40.36V423.5h24.91c0,0,4.97-0.13,8.82,3.39c6.63,6.05,6.63,11.65,6.63,11.65V453.99z"/>
	</g>
	<g id="Back">
		<path class="st6" d="M50.86,581.39c-0.32-0.71-0.74-1.33-1.28-1.87c-0.54-0.54-1.16-0.96-1.87-1.28c-0.71-0.32-1.47-0.48-2.3-0.48
			h-2.13l0.88-3.22l-7.46,4.09l7.46,4.02l-0.9-3.25h2.15c0.58,0,1.13,0.11,1.64,0.33c0.51,0.22,0.96,0.52,1.35,0.91
			c0.39,0.39,0.7,0.85,0.93,1.37c0.23,0.52,0.35,1.08,0.35,1.66c0,0.59-0.12,1.14-0.35,1.66c-0.23,0.52-0.54,0.98-0.93,1.37
			c-0.39,0.39-0.84,0.7-1.35,0.91c-0.51,0.22-1.06,0.33-1.64,0.33h-9.47v1.65h9.47c0.83,0,1.6-0.16,2.3-0.48
			c0.71-0.32,1.33-0.74,1.87-1.28c0.54-0.51,0.96-1.13,1.28-1.85c0.32-0.72,0.48-1.49,0.48-2.32
			C51.33,582.87,51.18,582.1,50.86,581.39"/>
		<text transform="matrix(1 0 0 1.25 35.2018 597.1143)" class="st6 st7 st35">BACK</text>
		<path class="st26" d="M20.15,570.55h40.36v30.48H35.59c0,0-4.97,0.13-8.82-3.39C20.15,591.6,20.15,586,20.15,586V570.55z"/>
	</g>
	<g id="Guide">
		<text transform="matrix(1 0 0 1.25 71.6432 590.1152)" class="st6 st7 st24">GUIDE</text>
		<rect x="62.99" y="572.42" class="st26" width="48.22" height="28.03"/>
	</g>
	<g id="Exit">
		<text transform="matrix(1 0 0 1.1774 122.7936 590.1152)" class="st6 st7 st36">EXIT</text>
		<path class="st26" d="M154.88,571.19h-40.36v30.48h24.91c0,0,4.97,0.13,8.82-3.39c6.63-6.05,6.63-11.65,6.63-11.65V571.19z"/>
	</g>
	<g id="Ok">
		<path class="st14" d="M111.21,527.9c0,4.91-4.21,8.89-9.41,8.89H72.4c-5.2,0-9.41-3.98-9.41-8.89v-30.75
			c0-4.91,4.21-8.89,9.41-8.89h29.4c5.19,0,9.41,3.98,9.41,8.89"/>
		<path class="st15" d="M111.21,527.9c0,4.91-4.21,8.89-9.41,8.89H72.4c-5.2,0-9.41-3.98-9.41-8.89v-30.75
			c0-4.91,4.21-8.89,9.41-8.89h29.4c5.19,0,9.41,3.98,9.41,8.89V527.9z"/>
		<path class="st37" d="M91.35,520.07c0,2.35-1.9,4.26-4.25,4.26c-2.35,0-4.25-1.91-4.25-4.26c0-2.35,1.9-4.26,4.25-4.26
			C89.45,515.82,91.35,517.73,91.35,520.07z"/>
		<path class="st6" d="M89.7,520.05c0,1.41-1.14,2.54-2.54,2.54c-1.4,0-2.54-1.13-2.54-2.54c0-1.4,1.14-2.53,2.54-2.53
			C88.56,517.51,89.7,518.65,89.7,520.05"/>
		<text transform="matrix(1 0 0 1 76.5709 513.2324)" class="st6 st7 st23">OK</text>
	</g>
	<g id="Up">
		<polyline class="st31" points="86.71,465.76 93.48,472.61 94.46,471.62 86.71,463.78 78.97,471.62 79.94,472.61 		"/>
		<polyline class="st6" points="86.71,465.76 93.48,472.61 94.46,471.62 86.71,463.78 78.97,471.62 79.94,472.61 		"/>
		<polygon class="st38" points="86.71,465.76 93.48,472.61 94.46,471.62 86.71,463.78 78.97,471.62 79.94,472.61 		"/>
		<rect x="62.99" y="458.6" class="st26" width="48.22" height="28.03"/>
	</g>
	<g id="Down">
		<polyline class="st31" points="87.1,560.73 80.9,553.88 79.99,554.87 87.1,562.71 94.2,554.87 93.31,553.88 		"/>
		<polyline class="st6" points="87.1,560.73 80.9,553.88 79.99,554.87 87.1,562.71 94.2,554.87 93.31,553.88 		"/>
		<polygon class="st38" points="87.1,560.73 80.9,553.88 79.99,554.87 87.1,562.71 94.2,554.87 93.31,553.88 		"/>
		<rect x="62.99" y="539.86" class="st26" width="48.22" height="28.03"/>
	</g>
	<g id="Right">
		<polyline class="st31" points="133.98,510.89 127.13,517.1 128.12,518 135.96,510.89 128.12,503.79 127.13,504.69 		"/>
		<polyline class="st6" points="133.98,510.89 127.13,517.1 128.12,518 135.96,510.89 128.12,503.79 127.13,504.69 		"/>
		<polygon class="st38" points="133.98,510.89 127.13,517.1 128.12,518 135.96,510.89 128.12,503.79 127.13,504.69 		"/>
		<rect x="112.32" y="488.25" class="st26" width="29.62" height="48.53"/>
	</g>
	<g id="Left">
		<polyline class="st31" points="40.77,510.98 47.62,504.77 46.64,503.87 38.79,510.98 46.64,518.09 47.62,517.19 		"/>
		<polyline class="st6" points="40.77,510.98 47.62,504.77 46.64,503.87 38.79,510.98 46.64,518.09 47.62,517.19 		"/>
		<polygon class="st38" points="40.77,510.98 47.62,504.77 46.64,503.87 38.79,510.98 46.64,518.09 47.62,517.19 		"/>
		<rect x="32.2" y="488.25" class="st26" width="29.62" height="48.53"/>
	</g>
	<g id="Red1">
		<path class="st39" d="M51.3,628.66c0,3.19-2.49,5.78-5.57,5.78H27.79c-3.07,0-5.56-2.59-5.56-5.78v-4.31
			c0-3.2,2.49-5.79,5.56-5.79h17.93c3.08,0,5.57,2.6,5.57,5.79"/>
		<path class="st15" d="M51.3,628.66c0,3.19-2.49,5.78-5.57,5.78H27.79c-3.07,0-5.56-2.59-5.56-5.78v-4.31
			c0-3.2,2.49-5.79,5.56-5.79h17.93c3.08,0,5.57,2.6,5.57,5.79V628.66z"/>
		<path class="st6" d="M37.71,626.86c0,0.74-0.6,1.34-1.33,1.34c-0.74,0-1.33-0.6-1.33-1.34c0-0.74,0.6-1.33,1.33-1.33
			C37.11,625.52,37.71,626.12,37.71,626.86"/>
		<path class="st20" d="M37.71,626.86c0,0.74-0.6,1.34-1.33,1.34c-0.74,0-1.33-0.6-1.33-1.34c0-0.74,0.6-1.33,1.33-1.33
			C37.11,625.52,37.71,626.12,37.71,626.86z"/>
	</g>
	<g id="Green2">
		<path class="st40" d="M85.45,628.66c0,3.19-2.49,5.78-5.57,5.78H61.95c-3.07,0-5.57-2.59-5.57-5.78v-4.31
			c0-3.2,2.49-5.79,5.57-5.79h17.93c3.08,0,5.57,2.6,5.57,5.79"/>
		<path class="st15" d="M85.45,628.66c0,3.19-2.49,5.78-5.57,5.78H61.95c-3.07,0-5.57-2.59-5.57-5.78v-4.31
			c0-3.2,2.49-5.79,5.57-5.79h17.93c3.08,0,5.57,2.6,5.57,5.79V628.66z"/>
		<path class="st6" d="M68.89,626.86c0,0.74-0.6,1.34-1.33,1.34c-0.74,0-1.34-0.6-1.34-1.34c0-0.74,0.6-1.33,1.34-1.33
			C68.3,625.52,68.89,626.12,68.89,626.86"/>
		<path class="st20" d="M68.89,626.86c0,0.74-0.6,1.34-1.33,1.34c-0.74,0-1.34-0.6-1.34-1.34c0-0.74,0.6-1.33,1.34-1.33
			C68.3,625.52,68.89,626.12,68.89,626.86z"/>
		<path class="st6" d="M74.94,626.86c0,0.74-0.6,1.34-1.33,1.34c-0.74,0-1.33-0.6-1.33-1.34c0-0.74,0.59-1.33,1.33-1.33
			C74.35,625.52,74.94,626.12,74.94,626.86"/>
		<path class="st20" d="M74.94,626.86c0,0.74-0.6,1.34-1.33,1.34c-0.74,0-1.33-0.6-1.33-1.34c0-0.74,0.59-1.33,1.33-1.33
			C74.35,625.52,74.94,626.12,74.94,626.86z"/>
	</g>
	<g id="Yellow3">
		<path class="st0" d="M118.88,628.66c0,3.19-2.49,5.78-5.57,5.78H95.38c-3.08,0-5.57-2.59-5.57-5.78v-4.31
			c0-3.2,2.49-5.79,5.57-5.79h17.93c3.07,0,5.57,2.6,5.57,5.79"/>
		<path class="st15" d="M118.88,628.66c0,3.19-2.49,5.78-5.57,5.78H95.38c-3.08,0-5.57-2.59-5.57-5.78v-4.31
			c0-3.2,2.49-5.79,5.57-5.79h17.93c3.07,0,5.57,2.6,5.57,5.79V628.66z"/>
		<path class="st6" d="M102.39,629.18c0,0.74-0.59,1.34-1.33,1.34c-0.74,0-1.33-0.6-1.33-1.34c0-0.73,0.6-1.33,1.33-1.33
			C101.8,627.85,102.39,628.45,102.39,629.18"/>
		<path class="st20" d="M102.39,629.18c0,0.74-0.59,1.34-1.33,1.34c-0.74,0-1.33-0.6-1.33-1.34c0-0.73,0.6-1.33,1.33-1.33
			C101.8,627.85,102.39,628.45,102.39,629.18z"/>
		<path class="st6" d="M105.68,623.82c0,0.74-0.59,1.33-1.33,1.33c-0.74,0-1.33-0.6-1.33-1.33c0-0.74,0.6-1.34,1.33-1.34
			C105.09,622.48,105.68,623.08,105.68,623.82"/>
		<path class="st20" d="M105.68,623.82c0,0.74-0.59,1.33-1.33,1.33c-0.74,0-1.33-0.6-1.33-1.33c0-0.74,0.6-1.34,1.33-1.34
			C105.09,622.48,105.68,623.08,105.68,623.82z"/>
		<path class="st6" d="M108.97,629.18c0,0.74-0.59,1.34-1.33,1.34c-0.74,0-1.34-0.6-1.34-1.34c0-0.73,0.6-1.33,1.34-1.33
			C108.37,627.85,108.97,628.45,108.97,629.18"/>
		<path class="st20" d="M108.97,629.18c0,0.74-0.59,1.34-1.33,1.34c-0.74,0-1.34-0.6-1.34-1.34c0-0.73,0.6-1.33,1.34-1.33
			C108.37,627.85,108.97,628.45,108.97,629.18z"/>
	</g>
	<g id="Blue4">
		<path class="st41" d="M152.68,628.66c0,3.19-2.49,5.78-5.57,5.78h-17.93c-3.07,0-5.57-2.59-5.57-5.78v-4.31
			c0-3.2,2.5-5.79,5.57-5.79h17.93c3.07,0,5.57,2.6,5.57,5.79"/>
		<path class="st15" d="M152.68,628.66c0,3.19-2.49,5.78-5.57,5.78h-17.93c-3.07,0-5.57-2.59-5.57-5.78v-4.31
			c0-3.2,2.5-5.79,5.57-5.79h17.93c3.07,0,5.57,2.6,5.57,5.79V628.66z"/>
		<path class="st6" d="M136.03,623.98c0,0.74-0.59,1.34-1.33,1.34c-0.74,0-1.33-0.6-1.33-1.34c0-0.73,0.59-1.33,1.33-1.33
			C135.44,622.64,136.03,623.24,136.03,623.98"/>
		<path class="st20" d="M136.03,623.98c0,0.74-0.59,1.34-1.33,1.34c-0.74,0-1.33-0.6-1.33-1.34c0-0.73,0.59-1.33,1.33-1.33
			C135.44,622.64,136.03,623.24,136.03,623.98z"/>
		<path class="st6" d="M142.91,623.98c0,0.74-0.59,1.34-1.33,1.34c-0.74,0-1.34-0.6-1.34-1.34c0-0.73,0.6-1.33,1.34-1.33
			C142.32,622.64,142.91,623.24,142.91,623.98"/>
		<path class="st20" d="M142.91,623.98c0,0.74-0.59,1.34-1.33,1.34c-0.74,0-1.34-0.6-1.34-1.34c0-0.73,0.6-1.33,1.34-1.33
			C142.32,622.64,142.91,623.24,142.91,623.98z"/>
		<path class="st6" d="M136.03,629.32c0,0.74-0.59,1.34-1.33,1.34c-0.74,0-1.33-0.6-1.33-1.34c0-0.74,0.59-1.33,1.33-1.33
			C135.44,627.98,136.03,628.58,136.03,629.32"/>
		<path class="st20" d="M136.03,629.32c0,0.74-0.59,1.34-1.33,1.34c-0.74,0-1.33-0.6-1.33-1.34c0-0.74,0.59-1.33,1.33-1.33
			C135.44,627.98,136.03,628.58,136.03,629.32z"/>
		<path class="st6" d="M142.91,629.32c0,0.74-0.59,1.34-1.33,1.34c-0.74,0-1.34-0.6-1.34-1.34c0-0.74,0.6-1.33,1.34-1.33
			C142.32,627.98,142.91,628.58,142.91,629.32"/>
		<path class="st20" d="M142.91,629.32c0,0.74-0.59,1.34-1.33,1.34c-0.74,0-1.34-0.6-1.34-1.34c0-0.74,0.6-1.33,1.34-1.33
			C142.32,627.98,142.91,628.58,142.91,629.32z"/>
	</g>
	<g id="Stop">
		<path class="st14" d="M61.67,667.79c0,2.89-3.13,5.23-7,5.23H30.15c-3.87,0-7-2.34-7-5.23v-7.26c0-2.89,3.13-5.23,7-5.23h24.53
			c3.86,0,7,2.34,7,5.23"/>
		<path class="st15" d="M61.67,667.79c0,2.89-3.13,5.23-7,5.23H30.15c-3.87,0-7-2.34-7-5.23v-7.26c0-2.89,3.13-5.23,7-5.23h24.53
			c3.86,0,7,2.34,7,5.23V667.79z"/>
		<rect x="37.94" y="661.01" class="st6" width="6.62" height="6.62"/>
	</g>
	<g id="Play">
		<path class="st14" d="M106.75,667.79c0,2.89-3.13,5.23-7,5.23H75.22c-3.86,0-6.99-2.34-6.99-5.23v-7.26
			c0-2.89,3.13-5.23,6.99-5.23h24.53c3.87,0,7,2.34,7,5.23"/>
		<path class="st15" d="M106.75,667.79c0,2.89-3.13,5.23-7,5.23H75.22c-3.86,0-6.99-2.34-6.99-5.23v-7.26
			c0-2.89,3.13-5.23,6.99-5.23h24.53c3.87,0,7,2.34,7,5.23V667.79z"/>
		<polyline class="st6" points="85.12,668.98 85.12,660.48 90.98,664.78 		"/>
	</g>
	<g id="Pause">
		<path class="st14" d="M152.6,667.79c0,2.89-3.13,5.23-6.99,5.23h-24.53c-3.87,0-7-2.34-7-5.23v-7.26c0-2.89,3.13-5.23,7-5.23
			h24.53c3.86,0,6.99,2.34,6.99,5.23"/>
		<path class="st15" d="M152.6,667.79c0,2.89-3.13,5.23-6.99,5.23h-24.53c-3.87,0-7-2.34-7-5.23v-7.26c0-2.89,3.13-5.23,7-5.23
			h24.53c3.86,0,6.99,2.34,6.99,5.23V667.79z"/>
		<rect x="133.71" y="661.45" class="st6" width="2.15" height="6.67"/>
		<rect x="129.98" y="661.45" class="st6" width="2.16" height="6.67"/>
	</g>
	<g id="Rew">
		<path class="st14" d="M61.67,694.28c0,2.88-3.13,5.22-7,5.22H30.15c-3.87,0-7-2.34-7-5.22v-7.27c0-2.89,3.13-5.23,7-5.23h24.53
			c3.86,0,7,2.34,7,5.23"/>
		<path class="st15" d="M61.67,694.28c0,2.88-3.13,5.22-7,5.22H30.15c-3.87,0-7-2.34-7-5.22v-7.27c0-2.89,3.13-5.23,7-5.23h24.53
			c3.86,0,7,2.34,7,5.23V694.28z"/>
		<polyline class="st6" points="46.27,686.92 46.17,694.37 41.07,690.66 		"/>
		<polyline class="st6" points="40.85,686.92 40.75,694.37 35.65,690.66 		"/>
	</g>
	<g id="FF">
		<path class="st14" d="M106.75,694.28c0,2.88-3.13,5.22-7,5.22H75.22c-3.86,0-6.99-2.34-6.99-5.22v-7.27
			c0-2.89,3.13-5.23,6.99-5.23h24.53c3.87,0,7,2.34,7,5.23"/>
		<path class="st15" d="M106.75,694.28c0,2.88-3.13,5.22-7,5.22H75.22c-3.86,0-6.99-2.34-6.99-5.22v-7.27
			c0-2.89,3.13-5.23,6.99-5.23h24.53c3.87,0,7,2.34,7,5.23V694.28z"/>
		<polyline class="st6" points="83.17,695.04 83.27,687.59 88.37,691.29 		"/>
		<polyline class="st6" points="88.59,695.04 88.69,687.59 93.78,691.29 		"/>
	</g>
	<g id="Rec">
		<path class="st14" d="M152.6,694.27c0,2.89-3.13,5.23-6.99,5.23h-24.53c-3.87,0-7-2.34-7-5.23v-7.26c0-2.89,3.13-5.23,7-5.23
			h24.53c3.86,0,6.99,2.34,6.99,5.23"/>
		<path class="st15" d="M152.6,694.27c0,2.89-3.13,5.23-6.99,5.23h-24.53c-3.87,0-7-2.34-7-5.23v-7.26c0-2.89,3.13-5.23,7-5.23
			h24.53c3.86,0,6.99,2.34,6.99,5.23V694.27z"/>
		<text transform="matrix(1 0 0 1.25 118.8834 695.1602)" class="st6 st7 st24">REC</text>
		<path class="st6" d="M149.75,690.64c0,2.02-1.64,3.66-3.67,3.66c-2.02,0-3.66-1.64-3.66-3.66c0-2.02,1.64-3.67,3.66-3.67
			C148.11,686.98,149.75,688.62,149.75,690.64"/>
	</g>
	<g id="AVMode">
		<path class="st14" d="M61.67,720.52c0,2.89-3.13,5.23-7,5.23H30.15c-3.87,0-7-2.34-7-5.23v-7.26c0-2.89,3.13-5.23,7-5.23h24.53
			c3.87,0,7,2.34,7,5.23"/>
		<path class="st15" d="M61.67,720.52c0,2.89-3.13,5.23-7,5.23H30.15c-3.87,0-7-2.34-7-5.23v-7.26c0-2.89,3.13-5.23,7-5.23h24.53
			c3.87,0,7,2.34,7,5.23V720.52z"/>
		<text transform="matrix(1 0 0 1.6667 25.2194 721.1084)"><tspan x="0" y="0" class="st6 st7 st42">A</tspan><tspan x="4.86" y="0" class="st6 st7 st42">V MODE</tspan></text>
	</g>
	<g id="Simplink">
		<path class="st14" d="M106.75,720.52c0,2.89-3.13,5.23-6.99,5.23H75.23c-3.87,0-7-2.34-7-5.23v-7.26c0-2.89,3.13-5.23,7-5.23
			h24.53c3.86,0,6.99,2.34,6.99,5.23"/>
		<path class="st15" d="M106.75,720.52c0,2.89-3.13,5.23-6.99,5.23H75.23c-3.87,0-7-2.34-7-5.23v-7.26c0-2.89,3.13-5.23,7-5.23
			h24.53c3.86,0,6.99,2.34,6.99,5.23V720.52z"/>
		<path class="st6" d="M73.44,714.98c-0.38,0-0.68,0.34-0.68,0.73v0.94c0,0.39,0.3,0.73,0.67,0.73l2.64-0.01l-0.01,0.85l-3.26,0.01
			l-0.01,0.83l3.35,0.02c0.38,0.01,0.68-0.32,0.68-0.71l0.01-1.06c0-0.39-0.3-0.75-0.68-0.75l-2.63,0.02l0-0.73l3.26-0.01l0-0.83"/>
		<path class="st6" d="M97.26,714.97c-0.38,0-0.69,0.33-0.68,0.73l0.01,3.35l0.76-0.01l0-3.25l2.34-0.01l0,3.25h0.78l0-3.35
			c0-0.4-0.31-0.73-0.68-0.73"/>
		<path class="st6" d="M90.35,714.97v3.37c0,0.4,0.31,0.73,0.68,0.73l3.05-0.02v-0.81h-2.96l0-3.27"/>
		<path class="st6" d="M83.57,714.96l-3.37,0.01c-0.37,0-0.67,0.33-0.67,0.73l-0.02,3.35h0.8v-3.26h1.2l0,3.25h0.78l-0.01-3.26h1.22
			v3.25h0.78l-0.01-3.35C84.25,715.29,83.95,714.96,83.57,714.96"/>
		<path class="st6" d="M85.24,714.96v4.1l0.77,0l0.01-3.27l2.72,0.02l0,1.05l-2.17,0l-0.01,0.83l2.28,0.01
			c0.37-0.01,0.65-0.34,0.65-0.74l0.01-1.26c-0.01-0.41-0.31-0.73-0.69-0.73"/>
		<polyline class="st6" points="104.35,719.05 105.36,719.05 103.21,716.58 105.25,714.96 104.16,714.96 102.33,716.46 
			101.99,716.46 101.99,714.97 101.21,714.97 101.21,719.06 101.99,719.06 101.99,717.34 102.92,717.34 		"/>
		<path class="st6" d="M71.87,714.32c0,0.49-0.36,0.9-0.83,0.9c-0.46,0-0.83-0.39-0.84-0.9c0-0.5,0.37-0.9,0.83-0.9
			C71.49,713.41,71.86,713.82,71.87,714.32"/>
		<path class="st6" d="M70,717.09c0.01,1.24,0.44,2.4,1.23,3.29c0.85,0.96,1.99,1.48,3.21,1.47c1.54,0,2.94-0.88,3.75-2.32
			l0.08-0.15h-0.44c-0.81,1.26-2.05,2-3.39,2c-1.1,0.02-2.13-0.46-2.91-1.33c-0.71-0.81-1.11-1.86-1.12-2.98
			c-0.01-0.57,0.06-0.99,0.22-1.46l-0.26-0.24C70.08,715.95,69.99,716.45,70,717.09"/>
		<path class="st6" d="M74.39,712.25c-1.01,0.01-1.86,0.31-2.58,0.93l0.17,0.32l0.05,0.06l0.06-0.04c0.67-0.55,1.39-0.81,2.31-0.81
			c1.33-0.02,2.57,0.7,3.33,1.9l0.36,0.04h0.15l-0.09-0.15C77.33,713.08,75.91,712.24,74.39,712.25"/>
		<rect x="94.79" y="714.96" class="st6" width="0.79" height="4.11"/>
		<rect x="77.88" y="714.96" class="st6" width="0.79" height="4.11"/>
	</g>
</g>
</svg>
