<svg xmlns="http://www.w3.org/2000/svg" viewBox="0 0 174.32 799.95">
  <defs>
    <style>
      .cls-1 {
        fill: #e6e7e7;
      }

      .cls-16, .cls-18, .cls-2, .cls-20, .cls-21, .cls-22, .cls-23, .cls-24, .cls-3, .cls-33, .cls-34, .cls-36, .cls-39, .cls-4, .cls-42, .cls-43 {
        fill: none;
      }

      .cls-16, .cls-2, .cls-20 {
        stroke: #6d6f71;
      }

      .cls-2 {
        stroke-width: 1.5px;
      }

      .cls-4 {
        stroke: #58595b;
        stroke-width: 0.3px;
      }

      .cls-5 {
        fill: #d1d2d3;
      }

      .cls-6 {
        fill: #4b4a4b;
      }

      .cls-10, .cls-12, .cls-13, .cls-14, .cls-25, .cls-26, .cls-27, .cls-29, .cls-32, .cls-40, .cls-41, .cls-47, .cls-7, .cls-8, .cls-9 {
        fill: #010202;
      }

      .cls-8 {
        font-size: 5.3px;
      }

      .cls-10, .cls-12, .cls-13, .cls-14, .cls-25, .cls-26, .cls-27, .cls-29, .cls-32, .cls-35, .cls-40, .cls-41, .cls-47, .cls-8, .cls-9 {
        font-family: Arial-BoldMT, Arial;
        font-weight: 700;
      }

      .cls-9 {
        font-size: 7.8px;
      }

      .cls-10 {
        font-size: 7.89px;
      }

      .cls-11 {
        letter-spacing: -0.07em;
      }

      .cls-12 {
        font-size: 8.42px;
      }

      .cls-13 {
        font-size: 8.42px;
      }

      .cls-14 {
        font-size: 8.74px;
      }

      .cls-15 {
        fill: #b1b3b5;
      }

      .cls-16, .cls-22, .cls-39 {
        stroke-width: 0.5px;
      }

      .cls-17, .cls-28, .cls-35 {
        fill: #fff;
      }

      .cls-18, .cls-21, .cls-22, .cls-23, .cls-24, .cls-33, .cls-34, .cls-42, .cls-43 {
        stroke: #010202;
      }

      .cls-18 {
        stroke-width: 0.51px;
      }

      .cls-19 {
        fill: #dbdcdd;
      }

      .cls-20 {
        stroke-width: 0.51px;
      }

      .cls-21, .cls-22, .cls-36, .cls-43 {
        stroke-linecap: round;
        stroke-linejoin: round;
      }

      .cls-21, .cls-23 {
        stroke-width: 0.7px;
      }

      .cls-24 {
        stroke-width: 0.06px;
      }

      .cls-25 {
        font-size: 14.04px;
      }

      .cls-26 {
        font-size: 9.98px;
      }

      .cls-27 {
        font-size: 15.53px;
      }

      .cls-28 {
        opacity: 0;
      }

      .cls-29 {
        font-size: 15.53px;
      }

      .cls-30 {
        letter-spacing: -0.06em;
      }

      .cls-31 {
        letter-spacing: -0.07em;
      }

      .cls-32 {
        font-size: 7.21px;
      }

      .cls-33 {
        stroke-width: 0.08px;
      }

      .cls-34 {
        stroke-width: 0.83px;
      }

      .cls-35 {
        font-size: 10.28px;
      }

      .cls-36 {
        stroke: #fff;
      }

      .cls-37 {
        letter-spacing: -0.02em;
      }

      .cls-38 {
        letter-spacing: -0.04em;
      }

      .cls-39 {
        stroke: #b1b3b5;
      }

      .cls-40 {
        font-size: 4.99px;
      }

      .cls-41 {
        font-size: 10.6px;
      }

      .cls-42 {
        stroke-width: 0.41px;
      }

      .cls-43 {
        stroke-width: 0.51px;
      }

      .cls-44 {
        fill: #bcbdbf;
      }

      .cls-45 {
        fill: #929597;
      }

      .cls-46 {
        fill: #9b9da0;
      }

      .cls-47 {
        font-size: 7.49px;
      }

      .cls-48 {
        letter-spacing: -0.07em;
      }
    </style>
  </defs>
  <title>Controle LG 32LN570B-SA</title>
  <g id="Background">
    <g id="BG">
      <path class="cls-1" d="M173.15,786.86c0,5.92-4.8,11.92-10.71,11.92H11.88c-5.91,0-10.71-6-10.71-11.92V19.32c0-5.92,3.49-12.25,9.52-13.12,85.45-11.32,153,0,153,0,6.11,1.14,9.51,7.2,9.51,13.12"/>
      <path class="cls-2" d="M173.15,786.86c0,5.92-4.8,11.92-10.71,11.92H11.88c-5.91,0-10.71-6-10.71-11.92V19.32c0-5.92,3.49-12.25,9.52-13.12,85.45-11.32,153,0,153,0,6.11,1.14,9.51,7.2,9.51,13.12Z"/>
      <path class="cls-1" d="M169.77,784.16a10.72,10.72,0,0,1-10.72,10.72H15.84A10.72,10.72,0,0,1,5.12,784.16V21.62c0-5.92,4.68-9.85,10.72-10.72,85.45-11.31,143.21,0,143.21,0,6.44,1,10.72,4.8,10.72,10.72"/>
      <polyline class="cls-3" points="0 0 0 799.95 174.32 799.95 174.32 0"/>
      <path class="cls-4" d="M169.77,784.16a10.72,10.72,0,0,1-10.72,10.72H15.84A10.72,10.72,0,0,1,5.12,784.16V21.62c0-5.92,4.68-9.85,10.72-10.72,85.45-11.31,143.21,0,143.21,0,6.44,1,10.72,4.8,10.72,10.72Z"/>
      <polyline class="cls-3" points="0 0 0 799.95 174.32 799.95 174.32 0"/>
      <path class="cls-5" d="M154.71,640.53H150l-1.59,1.26h5.16a4.81,4.81,0,0,1,4.53,5.06V770.39a4.82,4.82,0,0,1-4.53,5.07H20.71l-1.19.94H154.71a4.91,4.91,0,0,0,4.61-5.16V645.7a4.92,4.92,0,0,0-4.61-5.17"/>
      <path class="cls-6" d="M20.87,775.46a4.82,4.82,0,0,1-4.53-5.07V646.85a4.82,4.82,0,0,1,4.53-5.06H153.69l1.58-1.26H19.76a4.91,4.91,0,0,0-4.6,5.17V771.24a4.9,4.9,0,0,0,4.6,5.16"/>
      <polyline class="cls-3" points="0 0 0 799.95 174.32 799.95 174.32 0"/>
      <polyline class="cls-3" points="0 0 0 799.95 174.32 799.95 174.32 0"/>
      <polyline class="cls-3" points="0 0 0 799.95 174.32 799.95 174.32 0"/>
      <polyline class="cls-3" points="0 0 0 799.95 174.32 799.95 174.32 0"/>
      <polyline class="cls-3" points="0 0 0 799.95 174.32 799.95 174.32 0"/>
      <polyline class="cls-3" points="0 0 0 799.95 174.32 799.95 174.32 0"/>
      <polyline class="cls-3" points="0 0 0 799.95 174.32 799.95 174.32 0"/>
      <polyline class="cls-3" points="0 0 0 799.95 174.32 799.95 174.32 0"/>
      <polyline class="cls-3" points="0 0 0 799.95 174.32 799.95 174.32 0"/>
      <polyline class="cls-3" points="0 0 0 799.95 174.32 799.95 174.32 0"/>
      <polyline class="cls-3" points="0 0 0 799.95 174.32 799.95 174.32 0"/>
      <polyline class="cls-3" points="0 0 0 799.95 174.32 799.95 174.32 0"/>
      <polyline class="cls-3" points="0 0 0 799.95 174.32 799.95 174.32 0"/>
      <polyline class="cls-3" points="0 0 0 799.95 174.32 799.95 174.32 0"/>
      <polyline class="cls-3" points="0 0 0 799.95 174.32 799.95 174.32 0"/>
    </g>
    <g>
      <polyline class="cls-7" points="159.91 333.76 159.91 345.21 161.7 345.21 161.7 338.73 162.94 338.73"/>
      <polyline class="cls-7" points="159.91 393.85 159.91 382.4 161.7 382.4 161.7 388.89 162.94 388.89"/>
      <text class="cls-8" transform="translate(31.83 653.45) scale(1 1.18)">LIVE TV</text>
      <text class="cls-9" transform="translate(157.61 354.69)">P</text>
      <text class="cls-9" transform="translate(157.47 362.49)">A</text>
      <text class="cls-9" transform="translate(157.11 370.29)">G</text>
      <text class="cls-9" transform="translate(157.54 378.09)">E</text>
      <text class="cls-10" transform="translate(55.53 94.4) scale(1 1.33)">R<tspan class="cls-11" x="5.7" y="0">A</tspan><tspan x="10.83" y="0">TIO</tspan></text>
      <text class="cls-12" transform="translate(93.25 94.4) scale(1 1.25)">INPUT</text>
      <text class="cls-13" transform="translate(30.87 308.86) scale(1 1.11)">LIST</text>
      <text class="cls-14" transform="translate(115.9 418.49) scale(1 1.43)">Q.MENU</text>
    </g>
    <g>
      <path class="cls-15" d="M156.41,584.71a18.07,18.07,0,0,1-18.06,18.06H36.55a18.06,18.06,0,0,1-18-18.06V439.56a18.05,18.05,0,0,1,18-18.06h101.8a18.06,18.06,0,0,1,18.06,18.06"/>
      <path class="cls-16" d="M156.41,584.71a18.07,18.07,0,0,1-18.06,18.06H36.55a18.06,18.06,0,0,1-18-18.06V439.56a18.05,18.05,0,0,1,18-18.06h101.8a18.06,18.06,0,0,1,18.06,18.06Z"/>
      <line class="cls-17" x1="61.82" y1="421.5" x2="61.82" y2="602.77"/>
      <line class="cls-18" x1="61.75" y1="421.5" x2="61.75" y2="602.77"/>
      <line class="cls-17" x1="113.09" y1="421.5" x2="113.09" y2="602.77"/>
      <line class="cls-18" x1="113.09" y1="421.5" x2="113.09" y2="602.77"/>
      <path class="cls-19" d="M143.28,549c0,11.42-9.8,20.67-21.87,20.67H53.05c-12.09,0-21.88-9.25-21.88-20.67v-71.5c0-11.43,9.79-20.69,21.88-20.69h68.36c12.07,0,21.87,9.26,21.87,20.69"/>
      <path class="cls-20" d="M143.28,549c0,11.42-9.8,20.67-21.87,20.67H53.05c-12.09,0-21.88-9.25-21.88-20.67v-71.5c0-11.43,9.79-20.69,21.88-20.69h68.36c12.07,0,21.87,9.26,21.87,20.69Z"/>
    </g>
  </g>
  <g id="Buttons">
    <g id="Power">
      <path class="cls-15" d="M65.48,55.12a23.21,23.21,0,1,0-23.21,23.2,23.2,23.2,0,0,0,23.21-23.2"/>
      <path class="cls-21" d="M65.48,55.12a23.21,23.21,0,1,0-23.21,23.2A23.2,23.2,0,0,0,65.48,55.12Z"/>
      <path class="cls-7" d="M31.87,56.29a10,10,0,0,1,4.13-8,1.4,1.4,0,0,1,1.91.28,1.33,1.33,0,0,1-.23,1.89,7.16,7.16,0,0,0-3,5.88,7.58,7.58,0,0,0,15.16,0,7.21,7.21,0,0,0-3.34-6.08A1.36,1.36,0,1,1,48,48a9.89,9.89,0,0,1,4.54,8.32,10.35,10.35,0,0,1-20.69,0"/>
      <path class="cls-7" d="M40.82,55.9V43.37a1.39,1.39,0,0,1,2.78,0V55.9a1.39,1.39,0,0,1-2.78,0"/>
    </g>
    <g id="Help">
      <path class="cls-15" d="M44.06,111.5A15.86,15.86,0,1,0,28.2,127.36,15.86,15.86,0,0,0,44.06,111.5"/>
      <path class="cls-22" d="M44.06,111.5A15.86,15.86,0,1,0,28.2,127.36,15.86,15.86,0,0,0,44.06,111.5Z"/>
      <path class="cls-22" d="M32.91,104.63a6.82,6.82,0,0,0-4.71,2.11,6.83,6.83,0,0,0-4.72-2.11,4.91,4.91,0,0,0-4.13,2.11v11.64a10.29,10.29,0,0,1,8.85,0,10.27,10.27,0,0,1,8.84,0V106.74A4.91,4.91,0,0,0,32.91,104.63Z"/>
      <path class="cls-7" d="M26.21,108.85a2,2,0,0,1,1.56-.52,2.18,2.18,0,0,1,1.65.55,2.94,2.94,0,0,1-.08,3.48,3.22,3.22,0,0,1-1.26.74c0,.18,0,.32,0,.42s0,.27,0,.41a.21.21,0,0,1-.12.22.63.63,0,0,1-.32.08.59.59,0,0,1-.31-.08.22.22,0,0,1-.14-.22v-1.29a.67.67,0,0,1,0-.23.24.24,0,0,1,.14-.17l.34-.1.2,0a1.34,1.34,0,0,0,.87-.56,1.63,1.63,0,0,0,.25-.94,1.41,1.41,0,0,0-.32-1,1.19,1.19,0,0,0-.92-.36c-.49,0-.8.09-.93.26a1.83,1.83,0,0,0-.13.85.33.33,0,0,1-.13.3.46.46,0,0,1-.32.11.5.5,0,0,1-.34-.11.34.34,0,0,1-.14-.3,2.24,2.24,0,0,1,.43-1.52m1.91,7.53a.72.72,0,0,1-.51.19.73.73,0,0,1-.52-.19.7.7,0,0,1-.23-.52.75.75,0,0,1,.23-.55.69.69,0,0,1,.52-.2.72.72,0,0,1,.51.2.73.73,0,0,1,.25.55.68.68,0,0,1-.25.52"/>
    </g>
    <g id="Ratio">
      <path class="cls-15" d="M83.37,112.52a15.86,15.86,0,1,0-15.86,15.86,15.86,15.86,0,0,0,15.86-15.86"/>
      <path class="cls-22" d="M83.37,112.52a15.86,15.86,0,1,0-15.86,15.86A15.86,15.86,0,0,0,83.37,112.52Z"/>
      <path class="cls-23" d="M56.18,117.6c0,.49.61.89,1.37.89H77.47c.76,0,1.37-.4,1.37-.89v-9.67c0-.5-.61-.9-1.37-.9H57.55c-.76,0-1.37.4-1.37.9Z"/>
      <path class="cls-23" d="M74.14,121.88a1.16,1.16,0,0,0,1.23-1.09V104.74a1.17,1.17,0,0,0-1.23-1.1H60.88a1.17,1.17,0,0,0-1.22,1.1v16.05a1.16,1.16,0,0,0,1.22,1.09Z"/>
    </g>
    <g id="Input">
      <path class="cls-15" d="M121.75,112.52a15.87,15.87,0,1,0-15.87,15.86,15.87,15.87,0,0,0,15.87-15.86"/>
      <path class="cls-22" d="M121.75,112.52a15.87,15.87,0,1,0-15.87,15.86A15.87,15.87,0,0,0,121.75,112.52Z"/>
      <polyline class="cls-7" points="104.95 114.82 104.95 114.89 111.38 112.51 105.01 110.06"/>
      <polygon class="cls-24" points="104.95 114.82 104.95 114.89 111.38 112.51 105.01 110.06 104.95 114.82"/>
      <path class="cls-7" d="M101.24,107.6l-.29,0,0,.27a25.81,25.81,0,0,0,0,9.18l0,.29.3,0c.33,0,8.21,1.23,14.18,0l.25,0,.07-.23a18.07,18.07,0,0,0,.06-9.25l-.07-.24-.25-.05a47,47,0,0,0-14.23,0m13.78.74a15.9,15.9,0,0,1,.52,4,17.41,17.41,0,0,1-.54,4.37c-5.32,1-12.14.17-13.32,0a29.48,29.48,0,0,1-.35-4.31,23.07,23.07,0,0,1,.32-4,45.81,45.81,0,0,1,13.37,0"/>
      <path class="cls-24" d="M115,108.34a15.9,15.9,0,0,1,.52,4,17.41,17.41,0,0,1-.54,4.37c-5.32,1-12.14.17-13.32,0a29.48,29.48,0,0,1-.35-4.31,23.07,23.07,0,0,1,.32-4A45.81,45.81,0,0,1,115,108.34Z"/>
      <path class="cls-24" d="M101.24,107.6l-.29,0,0,.27a25.81,25.81,0,0,0,0,9.18l0,.29.3,0c.33,0,8.21,1.23,14.18,0l.25,0,.07-.23a18.07,18.07,0,0,0,.06-9.25l-.07-.24-.25-.05A47,47,0,0,0,101.24,107.6Z"/>
      <rect class="cls-7" x="95.4" y="112.12" width="9.71" height="0.8"/>
      <rect class="cls-24" x="95.4" y="112.12" width="9.71" height="0.8"/>
    </g>
    <g id="TV">
      <path class="cls-15" d="M160.58,112.31a15.87,15.87,0,1,0-15.86,15.86,15.87,15.87,0,0,0,15.86-15.86"/>
      <path class="cls-22" d="M160.58,112.31a15.87,15.87,0,1,0-15.86,15.86A15.87,15.87,0,0,0,160.58,112.31Z"/>
      <text class="cls-25" transform="translate(135.74 118.49) scale(1 1.11)">TV</text>
    </g>
    <g id="Num1">
      <path class="cls-15" d="M20.08,177.13a2.44,2.44,0,0,0,2.4,2.48h35a2.44,2.44,0,0,0,2.4-2.48V150.25a2.45,2.45,0,0,0-2.4-2.49h-35a2.44,2.44,0,0,0-2.4,2.49"/>
      <path class="cls-16" d="M20.08,177.13a2.44,2.44,0,0,0,2.4,2.48h35a2.44,2.44,0,0,0,2.4-2.48V150.25a2.45,2.45,0,0,0-2.4-2.49h-35a2.44,2.44,0,0,0-2.4,2.49Z"/>
      <path class="cls-7" d="M43,172.07H39.81V158.73a10.78,10.78,0,0,1-4.12,2.68V158.2a9.24,9.24,0,0,0,2.72-1.72,6.54,6.54,0,0,0,2-3H43Z"/>
    </g>
    <g id="Num2">
      <path class="cls-15" d="M67.89,177.13a2.44,2.44,0,0,0,2.4,2.48h35a2.44,2.44,0,0,0,2.4-2.48V150.25a2.44,2.44,0,0,0-2.4-2.49h-35a2.44,2.44,0,0,0-2.4,2.49"/>
      <path class="cls-16" d="M67.89,177.13a2.44,2.44,0,0,0,2.4,2.48h35a2.44,2.44,0,0,0,2.4-2.48V150.25a2.44,2.44,0,0,0-2.4-2.49h-35a2.44,2.44,0,0,0-2.4,2.49Z"/>
      <path class="cls-7" d="M93.65,168.78v3.29H82.48a9.08,9.08,0,0,1,1.09-3.53,22.65,22.65,0,0,1,3.58-4.43,24.63,24.63,0,0,0,2.65-3,4.24,4.24,0,0,0,.65-2.16,2.67,2.67,0,0,0-.57-1.83,2,2,0,0,0-1.58-.63,2,2,0,0,0-1.59.67,3.66,3.66,0,0,0-.68,2.21L82.85,159a6.06,6.06,0,0,1,1.79-4.2,5.59,5.59,0,0,1,3.74-1.27,4.94,4.94,0,0,1,5.27,5.14,7,7,0,0,1-.4,2.38A9.7,9.7,0,0,1,92,163.4a21.6,21.6,0,0,1-2.08,2.36c-1,1-1.64,1.7-1.91,2a6.48,6.48,0,0,0-.66,1Z"/>
    </g>
    <g id="Num3">
      <path class="cls-15" d="M115.7,177.13a2.44,2.44,0,0,0,2.4,2.48h35a2.44,2.44,0,0,0,2.4-2.48V150.25a2.44,2.44,0,0,0-2.4-2.49h-35a2.44,2.44,0,0,0-2.4,2.49"/>
      <path class="cls-16" d="M115.7,177.13a2.44,2.44,0,0,0,2.4,2.48h35a2.44,2.44,0,0,0,2.4-2.48V150.25a2.44,2.44,0,0,0-2.4-2.49h-35a2.44,2.44,0,0,0-2.4,2.49Z"/>
      <path class="cls-7" d="M130.82,167.17l3.09-.42a3.37,3.37,0,0,0,.79,2,2.06,2.06,0,0,0,1.56.69,2.09,2.09,0,0,0,1.67-.83,3.44,3.44,0,0,0,.67-2.24,3.18,3.18,0,0,0-.65-2.12,2,2,0,0,0-1.57-.78,5.3,5.3,0,0,0-1.47.26l.36-2.88a2.62,2.62,0,0,0,2-.63,2.34,2.34,0,0,0,.68-1.76,2.14,2.14,0,0,0-.5-1.48,1.69,1.69,0,0,0-1.33-.56,1.81,1.81,0,0,0-1.39.63,3.1,3.1,0,0,0-.7,1.84l-2.94-.55a7.76,7.76,0,0,1,.92-2.68,4.34,4.34,0,0,1,1.73-1.58,5.29,5.29,0,0,1,2.47-.57,4.72,4.72,0,0,1,3.77,1.66,4.61,4.61,0,0,1,1.17,3.08,4.38,4.38,0,0,1-2.39,3.88,3.84,3.84,0,0,1,2.28,1.53,4.75,4.75,0,0,1,.86,2.86,5.83,5.83,0,0,1-1.6,4.14,5.53,5.53,0,0,1-7.73.28A6,6,0,0,1,130.82,167.17Z"/>
    </g>
    <g id="Num4">
      <path class="cls-15" d="M20.08,217.31a2.44,2.44,0,0,0,2.4,2.48h35a2.44,2.44,0,0,0,2.4-2.48V190.43a2.44,2.44,0,0,0-2.4-2.48h-35a2.44,2.44,0,0,0-2.4,2.48"/>
      <path class="cls-16" d="M20.08,217.31a2.44,2.44,0,0,0,2.4,2.48h35a2.44,2.44,0,0,0,2.4-2.48V190.43a2.44,2.44,0,0,0-2.4-2.48h-35a2.44,2.44,0,0,0-2.4,2.48Z"/>
      <path class="cls-7" d="M41.09,213.22V209.5h-6.8v-3.1l7.21-11.73h2.68v11.72h2.06v3.11H44.18v3.72Zm0-6.83v-6.32l-3.82,6.32Z"/>
    </g>
    <g id="Num5">
      <path class="cls-15" d="M67.89,217.31a2.44,2.44,0,0,0,2.4,2.48h35a2.44,2.44,0,0,0,2.4-2.48V190.43a2.44,2.44,0,0,0-2.4-2.48h-35a2.44,2.44,0,0,0-2.4,2.48"/>
      <path class="cls-16" d="M67.89,217.31a2.44,2.44,0,0,0,2.4,2.48h35a2.44,2.44,0,0,0,2.4-2.48V190.43a2.44,2.44,0,0,0-2.4-2.48h-35a2.44,2.44,0,0,0-2.4,2.48Z"/>
      <path class="cls-7" d="M82.7,208.47l3.18-.37a3.22,3.22,0,0,0,.8,1.9,2.11,2.11,0,0,0,1.55.7,2.09,2.09,0,0,0,1.69-.9,4.45,4.45,0,0,0,.69-2.72,4,4,0,0,0-.69-2.55,2.18,2.18,0,0,0-1.79-.85A3.15,3.15,0,0,0,85.67,205l-2.58-.42L84.72,195h8.43v3.32h-6l-.5,3.14a4.37,4.37,0,0,1,2.18-.6,4.58,4.58,0,0,1,3.59,1.72A6.58,6.58,0,0,1,93.88,207a7.22,7.22,0,0,1-1.18,4.07,5.14,5.14,0,0,1-4.51,2.44,5.2,5.2,0,0,1-3.75-1.37A5.89,5.89,0,0,1,82.7,208.47Z"/>
    </g>
    <g id="Num6">
      <path class="cls-15" d="M115.7,217.31a2.44,2.44,0,0,0,2.4,2.48h35a2.44,2.44,0,0,0,2.4-2.48V190.43a2.44,2.44,0,0,0-2.4-2.48h-35a2.44,2.44,0,0,0-2.4,2.48"/>
      <path class="cls-16" d="M115.7,217.31a2.44,2.44,0,0,0,2.4,2.48h35a2.44,2.44,0,0,0,2.4-2.48V190.43a2.44,2.44,0,0,0-2.4-2.48h-35a2.44,2.44,0,0,0-2.4,2.48Z"/>
      <path class="cls-7" d="M140.73,199.27l-3.08.37a2.74,2.74,0,0,0-.59-1.56,1.65,1.65,0,0,0-1.24-.5,2,2,0,0,0-1.71,1,9.31,9.31,0,0,0-.87,4.19,3.59,3.59,0,0,1,3-1.56,4.32,4.32,0,0,1,3.42,1.69,6.57,6.57,0,0,1,1.42,4.36,6.66,6.66,0,0,1-1.5,4.55,4.88,4.88,0,0,1-3.84,1.71,5,5,0,0,1-4.14-2.17q-1.63-2.18-1.63-7.13c0-3.38.57-5.83,1.69-7.32a5.24,5.24,0,0,1,4.39-2.24,4.39,4.39,0,0,1,3.14,1.17A5.71,5.71,0,0,1,140.73,199.27ZM133.51,207a4.39,4.39,0,0,0,.71,2.67,2.06,2.06,0,0,0,1.64.94,1.79,1.79,0,0,0,1.47-.77,4.23,4.23,0,0,0,.59-2.52,4.35,4.35,0,0,0-.64-2.64,1.91,1.91,0,0,0-1.58-.84,1.94,1.94,0,0,0-1.56.8A3.75,3.75,0,0,0,133.51,207Z"/>
    </g>
    <g id="Num7">
      <path class="cls-15" d="M20.08,257.2a2.44,2.44,0,0,0,2.4,2.48h35a2.44,2.44,0,0,0,2.4-2.48V230.32a2.44,2.44,0,0,0-2.4-2.48h-35a2.44,2.44,0,0,0-2.4,2.48"/>
      <path class="cls-16" d="M20.08,257.2a2.44,2.44,0,0,0,2.4,2.48h35a2.44,2.44,0,0,0,2.4-2.48V230.32a2.44,2.44,0,0,0-2.4-2.48h-35a2.44,2.44,0,0,0-2.4,2.48Z"/>
      <path class="cls-7" d="M34.84,238.24V235h10.9v2.57A19.09,19.09,0,0,0,43,241.76a26.42,26.42,0,0,0-2.13,5.86,23.75,23.75,0,0,0-.72,5.55H37.08a26.17,26.17,0,0,1,1.42-7.81,27,27,0,0,1,3.59-7.12Z"/>
    </g>
    <g id="Num8">
      <path class="cls-15" d="M67.89,257.2a2.44,2.44,0,0,0,2.4,2.48h35a2.44,2.44,0,0,0,2.4-2.48V230.32a2.44,2.44,0,0,0-2.4-2.48h-35a2.44,2.44,0,0,0-2.4,2.48"/>
      <path class="cls-16" d="M67.89,257.2a2.44,2.44,0,0,0,2.4,2.48h35a2.44,2.44,0,0,0,2.4-2.48V230.32a2.44,2.44,0,0,0-2.4-2.48h-35a2.44,2.44,0,0,0-2.4,2.48Z"/>
      <path class="cls-7" d="M85.57,243.2a3.74,3.74,0,0,1-1.79-1.59,4.47,4.47,0,0,1-.56-2.22A4.75,4.75,0,0,1,84.51,236a5.72,5.72,0,0,1,7.38,0,4.72,4.72,0,0,1,1.31,3.42,4.34,4.34,0,0,1-.6,2.28,3.92,3.92,0,0,1-1.69,1.53A4.62,4.62,0,0,1,93,245a5.15,5.15,0,0,1,.72,2.73,5.91,5.91,0,0,1-1.47,4.16,5,5,0,0,1-3.9,1.6,5.51,5.51,0,0,1-3.78-1.32,5.4,5.4,0,0,1-1.78-4.29,5.71,5.71,0,0,1,.67-2.75A4.47,4.47,0,0,1,85.57,243.2Zm.37,4.35a3.46,3.46,0,0,0,.67,2.28,2.1,2.1,0,0,0,1.69.82,2,2,0,0,0,1.63-.78,3.54,3.54,0,0,0,.65-2.28,3.13,3.13,0,0,0-.66-2.08,2.08,2.08,0,0,0-1.67-.79,1.93,1.93,0,0,0-1.74.89A3.57,3.57,0,0,0,85.94,247.55Zm.29-7.91a2.38,2.38,0,0,0,.54,1.65,2.05,2.05,0,0,0,2.89,0,2.38,2.38,0,0,0,.54-1.65,2.34,2.34,0,0,0-.53-1.6,2,2,0,0,0-2.89,0A2.25,2.25,0,0,0,86.23,239.64Z"/>
    </g>
    <g id="Num9">
      <path class="cls-15" d="M115.7,257.2a2.44,2.44,0,0,0,2.4,2.48h35a2.44,2.44,0,0,0,2.4-2.48V230.32a2.44,2.44,0,0,0-2.4-2.48h-35a2.44,2.44,0,0,0-2.4,2.48"/>
      <path class="cls-16" d="M115.7,257.2a2.44,2.44,0,0,0,2.4,2.48h35a2.44,2.44,0,0,0,2.4-2.48V230.32a2.44,2.44,0,0,0-2.4-2.48h-35a2.44,2.44,0,0,0-2.4,2.48Z"/>
      <path class="cls-7" d="M130,248.9l3.09-.38a2.55,2.55,0,0,0,.59,1.55,1.64,1.64,0,0,0,1.26.51,2,2,0,0,0,1.68-1,9.4,9.4,0,0,0,.88-4.18,3.67,3.67,0,0,1-3,1.55,4.31,4.31,0,0,1-3.38-1.69,6.54,6.54,0,0,1-1.43-4.38,6.66,6.66,0,0,1,1.51-4.53,4.87,4.87,0,0,1,3.83-1.72,5,5,0,0,1,4.15,2.18q1.62,2.17,1.62,7.15c0,3.38-.56,5.81-1.69,7.31a5.27,5.27,0,0,1-4.4,2.24,4.39,4.39,0,0,1-3.16-1.15A5.84,5.84,0,0,1,130,248.9Zm7.22-7.74a4.38,4.38,0,0,0-.71-2.66,2,2,0,0,0-1.64-.94,1.79,1.79,0,0,0-1.47.77,4.3,4.3,0,0,0-.59,2.54,4.38,4.38,0,0,0,.64,2.63,1.91,1.91,0,0,0,3.14,0A3.77,3.77,0,0,0,137.26,241.16Z"/>
    </g>
    <g id="Num0">
      <path class="cls-15" d="M67.89,297.39a2.44,2.44,0,0,0,2.4,2.48h35a2.44,2.44,0,0,0,2.4-2.48V270.51a2.45,2.45,0,0,0-2.4-2.49h-35a2.45,2.45,0,0,0-2.4,2.49"/>
      <path class="cls-16" d="M67.89,297.39a2.44,2.44,0,0,0,2.4,2.48h35a2.44,2.44,0,0,0,2.4-2.48V270.51a2.45,2.45,0,0,0-2.4-2.49h-35a2.45,2.45,0,0,0-2.4,2.49Z"/>
      <path class="cls-7" d="M88.3,274.61a4.34,4.34,0,0,1,3.77,1.91q1.64,2.26,1.63,7.53t-1.64,7.53a4.36,4.36,0,0,1-3.76,1.89,4.61,4.61,0,0,1-3.92-2.07c-1-1.38-1.48-3.85-1.48-7.39s.54-6,1.63-7.51A4.37,4.37,0,0,1,88.3,274.61Zm0,2.93a1.54,1.54,0,0,0-1,.41,2.87,2.87,0,0,0-.7,1.47,22.44,22.44,0,0,0-.33,4.63,21.87,21.87,0,0,0,.3,4.46,3.21,3.21,0,0,0,.74,1.62,1.49,1.49,0,0,0,1,.41,1.51,1.51,0,0,0,1-.41,2.88,2.88,0,0,0,.7-1.47,22.21,22.21,0,0,0,.33-4.61,22.93,22.93,0,0,0-.29-4.47,3.33,3.33,0,0,0-.75-1.63A1.49,1.49,0,0,0,88.3,277.54Z"/>
    </g>
    <g id="List">
      <path class="cls-15" d="M20.08,297.39a2.44,2.44,0,0,0,2.4,2.48h35a2.44,2.44,0,0,0,2.4-2.48V270.51a2.45,2.45,0,0,0-2.4-2.49h-35a2.45,2.45,0,0,0-2.4,2.49"/>
      <path class="cls-16" d="M20.08,297.39a2.44,2.44,0,0,0,2.4,2.48h35a2.44,2.44,0,0,0,2.4-2.48V270.51a2.45,2.45,0,0,0-2.4-2.49h-35a2.45,2.45,0,0,0-2.4,2.49Z"/>
      <path class="cls-7" d="M30.46,282.14a1.83,1.83,0,0,0,0,3.61H49.53a1.83,1.83,0,0,0,0-3.61"/>
    </g>
    <g id="QView">
      <path class="cls-15" d="M115.7,297.39a2.44,2.44,0,0,0,2.4,2.48h35a2.44,2.44,0,0,0,2.4-2.48V270.51a2.45,2.45,0,0,0-2.4-2.49h-35a2.45,2.45,0,0,0-2.4,2.49"/>
      <path class="cls-16" d="M115.7,297.39a2.44,2.44,0,0,0,2.4,2.48h35a2.44,2.44,0,0,0,2.4-2.48V270.51a2.45,2.45,0,0,0-2.4-2.49h-35a2.45,2.45,0,0,0-2.4,2.49Z"/>
      <text class="cls-26" transform="translate(117.59 289.05) scale(1 1.25)">Q.VIEW</text>
    </g>
    <g id="VolBtn">
      <path class="cls-15" d="M20.08,401.46a2.44,2.44,0,0,0,2.4,2.49h35a2.45,2.45,0,0,0,2.4-2.49V327.52a2.44,2.44,0,0,0-2.4-2.48h-35a2.44,2.44,0,0,0-2.4,2.48"/>
      <path class="cls-16" d="M20.08,401.46a2.44,2.44,0,0,0,2.4,2.49h35a2.45,2.45,0,0,0,2.4-2.49V327.52a2.44,2.44,0,0,0-2.4-2.48h-35a2.44,2.44,0,0,0-2.4,2.48Z"/>
      <text class="cls-27" transform="translate(24.17 368.59) scale(1 1.09)">VOL</text>
    </g>
    <g id="VolUp">
      <path class="cls-7" d="M32,337.19a1.12,1.12,0,1,0,0,2.24H47.37a1.12,1.12,0,1,0,0-2.24"/>
      <path class="cls-7" d="M38.53,330.84v14.94a1.15,1.15,0,0,0,2.3,0V330.84a1.15,1.15,0,0,0-2.3,0"/>
      <rect class="cls-28" x="20.08" y="325.04" width="39.83" height="29.65"/>
    </g>
    <g id="VolDown">
      <rect class="cls-28" x="19.76" y="374.17" width="39.83" height="29.65"/>
      <path class="cls-7" d="M30.15,387.51a1.48,1.48,0,1,0,0,3H49.22a1.48,1.48,0,1,0,0-3"/>
    </g>
    <g id="ChBtn">
      <path class="cls-15" d="M115.19,401.46a2.44,2.44,0,0,0,2.4,2.49h35a2.44,2.44,0,0,0,2.4-2.49V327.52a2.44,2.44,0,0,0-2.4-2.48h-35a2.44,2.44,0,0,0-2.4,2.48"/>
      <path class="cls-16" d="M115.19,401.46a2.44,2.44,0,0,0,2.4,2.49h35a2.44,2.44,0,0,0,2.4-2.49V327.52a2.44,2.44,0,0,0-2.4-2.48h-35a2.44,2.44,0,0,0-2.4,2.48Z"/>
      <text class="cls-29" transform="translate(123.89 368.59) scale(1 1.13)">CH</text>
    </g>
    <g id="ChUp">
      <path class="cls-7" d="M134.71,330.2l-9.53,9.31a1.18,1.18,0,0,0,0,1.69,1.25,1.25,0,0,0,1.74,0l8.95-8.74,9,8.74a1.26,1.26,0,0,0,1.74,0,1.16,1.16,0,0,0,0-1.69L137,330.2a1.69,1.69,0,0,0-2.33,0"/>
      <rect class="cls-28" x="115.19" y="325.04" width="39.83" height="29.65"/>
    </g>
    <g id="ChDown">
      <path class="cls-7" d="M144.83,385.06s-7.92,7.74-9,8.73l-8.95-8.73a1.26,1.26,0,0,0-1.74,0,1.18,1.18,0,0,0,0,1.7l9.52,9.3a1.68,1.68,0,0,0,2.33,0l9.53-9.31a1.17,1.17,0,0,0,0-1.7,1.26,1.26,0,0,0-1.74,0"/>
      <rect class="cls-28" x="115.19" y="374.17" width="39.83" height="29.65"/>
    </g>
    <g id="Fav">
      <path class="cls-15" d="M64.5,341.78c0,.9,1.17,1.63,2.63,1.63h38.38c1.45,0,2.63-.73,2.63-1.63v-14.3c0-.9-1.18-1.63-2.63-1.63H67.13c-1.46,0-2.63.73-2.63,1.63"/>
      <path class="cls-16" d="M64.5,341.78c0,.9,1.17,1.63,2.63,1.63h38.38c1.45,0,2.63-.73,2.63-1.63v-14.3c0-.9-1.18-1.63-2.63-1.63H67.13c-1.46,0-2.63.73-2.63,1.63Z"/>
      <text class="cls-26" transform="translate(76.98 339.49) scale(1 1.25)"><tspan class="cls-30">F</tspan><tspan class="cls-31" x="5.55" y="0">A</tspan><tspan x="12.03" y="0">V</tspan></text>
    </g>
    <g id="Settings">
      <path class="cls-15" d="M64.5,372.55c0,.89,1.17,1.62,2.63,1.62h38.38c1.45,0,2.63-.73,2.63-1.62V358.24c0-.9-1.18-1.62-2.63-1.62H67.13c-1.46,0-2.63.72-2.63,1.62"/>
      <path class="cls-16" d="M64.5,372.55c0,.89,1.17,1.62,2.63,1.62h38.38c1.45,0,2.63-.73,2.63-1.62V358.24c0-.9-1.18-1.62-2.63-1.62H67.13c-1.46,0-2.63.72-2.63,1.62Z"/>
      <text class="cls-32" transform="translate(68.82 369.77) scale(1 1.71)">SETTINGS</text>
    </g>
    <g id="Mute">
      <path class="cls-15" d="M64.5,403.11c0,.9,1.17,1.62,2.63,1.62h38.38c1.45,0,2.63-.72,2.63-1.62V388.8c0-.89-1.18-1.62-2.63-1.62H67.13c-1.46,0-2.63.73-2.63,1.62"/>
      <path class="cls-16" d="M64.5,403.11c0,.9,1.17,1.62,2.63,1.62h38.38c1.45,0,2.63-.72,2.63-1.62V388.8c0-.89-1.18-1.62-2.63-1.62H67.13c-1.46,0-2.63.73-2.63,1.62Z"/>
      <path class="cls-7" d="M98,393.77a.39.39,0,0,0-.39.38v3.63a.39.39,0,0,0,.39.37h2a.38.38,0,0,0,.39-.37v-3.63a.38.38,0,0,0-.39-.38m-.38,3.63H98.38v-2.88h1.24Z"/>
      <path class="cls-7" d="M103.28,391.72l-3.48,2.11-.18.31v3.56l.17.32,3.49,2.18h.39a.36.36,0,0,0,.2-.33V392a.36.36,0,0,0-.19-.33m-.58,1v6.49l-2.71-1.7c0-.34,0-2.81,0-3.15l2.7-1.64"/>
      <path class="cls-7" d="M104.76,392.69l-7.88,6a.36.36,0,0,0-.07.52.37.37,0,0,0,.53.07l7.89-6a.36.36,0,0,0,.06-.53.39.39,0,0,0-.53-.06"/>
      <path class="cls-7" d="M96.81,392.75a.37.37,0,0,0,.07.53l7.88,6a.37.37,0,0,0,.53-.07.35.35,0,0,0-.06-.52l-7.89-6a.39.39,0,0,0-.53.06"/>
      <text class="cls-26" transform="translate(67.26 400.37) scale(1 1.25)">MUTE</text>
    </g>
    <g id="Info">
      <path class="cls-7" d="M52.2,437.29h1v1.21h-1Zm0,2h1v4.18h-1Z"/>
      <path class="cls-33" d="M52.2,437.29h1v1.21h-1Zm0,2h1v4.18h-1Z"/>
      <path class="cls-7" d="M47.5,440.37a5.21,5.21,0,1,0,5.21-5.06,5.14,5.14,0,0,0-5.21,5.06m1,0a4.17,4.17,0,1,1,4.18,4.06,4.12,4.12,0,0,1-4.18-4.06"/>
      <path class="cls-33" d="M48.53,440.37a4.17,4.17,0,1,1,4.18,4.06A4.12,4.12,0,0,1,48.53,440.37Z"/>
      <path class="cls-33" d="M47.5,440.37a5.21,5.21,0,1,0,5.21-5.06A5.14,5.14,0,0,0,47.5,440.37Z"/>
      <text class="cls-26" transform="translate(22.71 444.33) scale(1 1.25)">INFO</text>
      <path class="cls-28" d="M20.15,454.22H60.5V423.74H35.59a13.8,13.8,0,0,0-8.82,3.39c-6.62,6.05-6.62,11.65-6.62,11.65Z"/>
    </g>
    <g id="Smart">
      <path class="cls-7" d="M109.56,451.86a2.4,2.4,0,0,1-2.12,2.6h-40a2.39,2.39,0,0,1-2.12-2.6V426.09a2.38,2.38,0,0,1,2.12-2.59h40a2.39,2.39,0,0,1,2.12,2.59"/>
      <path class="cls-34" d="M109.56,451.86a2.4,2.4,0,0,1-2.12,2.6h-40a2.39,2.39,0,0,1-2.12-2.6V426.09a2.38,2.38,0,0,1,2.12-2.59h40a2.39,2.39,0,0,1,2.12,2.59Z"/>
      <text class="cls-35" transform="translate(69.2 451.07) scale(1 1.05)">SMART</text>
      <path class="cls-36" d="M95.72,433.27a.26.26,0,0,0-.09-.19l-8-6.91a.36.36,0,0,0-.42,0l-8,6.91a.26.26,0,0,0-.09.19H81.6v6.22a.32.32,0,0,0,.34.29H92.72a.32.32,0,0,0,.34-.29v-6.22Z"/>
      <rect class="cls-17" x="85.1" y="435.55" width="4.7" height="4.42"/>
    </g>
    <g id="MyApps">
      <text class="cls-14" transform="translate(115.9 451.88) scale(1 1.43)">M<tspan class="cls-37" x="7.28" y="0">Y</tspan><tspan class="cls-38" x="12.96" y="0"> </tspan><tspan x="15.07" y="0">APPS</tspan></text>
      <rect class="cls-7" x="127.72" y="428.06" width="13.27" height="13.27"/>
      <line class="cls-39" x1="136.74" y1="428.06" x2="136.74" y2="441.33"/>
      <line class="cls-39" x1="131.96" y1="428.06" x2="131.96" y2="441.33"/>
      <line class="cls-39" x1="127.72" y1="432.31" x2="140.98" y2="432.31"/>
      <line class="cls-39" x1="127.72" y1="437.08" x2="140.98" y2="437.08"/>
      <path class="cls-28" d="M155.07,454H114.71V423.5h24.91a13.82,13.82,0,0,1,8.83,3.39c6.62,6.05,6.62,11.65,6.62,11.65Z"/>
    </g>
    <g id="Back">
      <path class="cls-7" d="M50.86,581.39a6.23,6.23,0,0,0-1.28-1.86,6,6,0,0,0-1.87-1.28,5.48,5.48,0,0,0-2.3-.48H43.28l.89-3.21-7.46,4.09,7.46,4-.91-3.25h2.15a4.16,4.16,0,0,1,1.65.33,4.29,4.29,0,0,1,1.35.91,4.49,4.49,0,0,1,.93,1.37,4.14,4.14,0,0,1,0,3.33,4.49,4.49,0,0,1-.93,1.37,4.29,4.29,0,0,1-1.35.91,4.16,4.16,0,0,1-1.65.33H35.94v1.65h9.47a5.48,5.48,0,0,0,2.3-.48,6,6,0,0,0,1.87-1.28A5.78,5.78,0,0,0,50.86,586a5.68,5.68,0,0,0,.47-2.33,5.54,5.54,0,0,0-.47-2.3"/>
      <text class="cls-40" transform="translate(35.2 597.11) scale(1 1.25)">BACK</text>
      <path class="cls-28" d="M20.15,570.55H60.51V601H35.59a13.8,13.8,0,0,1-8.82-3.39c-6.62-6-6.62-11.65-6.62-11.65Z"/>
    </g>
    <g id="Guide">
      <text class="cls-26" transform="translate(71.64 590.12) scale(1 1.25)">GUIDE</text>
      <rect class="cls-28" x="62.99" y="572.42" width="48.22" height="28.03"/>
    </g>
    <g id="Exit">
      <text class="cls-41" transform="translate(122.79 590.12) scale(1 1.18)">EXIT</text>
      <path class="cls-28" d="M154.88,571.19H114.52v30.49h24.92a13.8,13.8,0,0,0,8.82-3.39c6.62-6,6.62-11.65,6.62-11.65Z"/>
    </g>
    <g id="Ok">
      <path class="cls-15" d="M111.21,527.9a9.17,9.17,0,0,1-9.41,8.89H72.4A9.16,9.16,0,0,1,63,527.9V497.15a9.16,9.16,0,0,1,9.41-8.9h29.4a9.17,9.17,0,0,1,9.41,8.9"/>
      <path class="cls-16" d="M111.21,527.9a9.17,9.17,0,0,1-9.41,8.89H72.4A9.16,9.16,0,0,1,63,527.9V497.15a9.16,9.16,0,0,1,9.41-8.9h29.4a9.17,9.17,0,0,1,9.41,8.9Z"/>
      <path class="cls-42" d="M91.35,520.07a4.25,4.25,0,1,1-4.25-4.25A4.25,4.25,0,0,1,91.35,520.07Z"/>
      <path class="cls-7" d="M89.7,520.05a2.54,2.54,0,1,1-2.54-2.54,2.54,2.54,0,0,1,2.54,2.54"/>
      <text class="cls-25" transform="translate(76.57 513.23)">OK</text>
    </g>
    <g id="Up">
      <polyline class="cls-17" points="86.71 465.76 93.48 472.61 94.46 471.62 86.71 463.78 78.97 471.62 79.94 472.61"/>
      <polyline class="cls-7" points="86.71 465.76 93.48 472.61 94.46 471.62 86.71 463.78 78.97 471.62 79.94 472.61"/>
      <polygon class="cls-43" points="86.71 465.76 93.48 472.61 94.46 471.62 86.71 463.78 78.97 471.62 79.94 472.61 86.71 465.76"/>
      <rect class="cls-28" x="62.99" y="458.6" width="48.22" height="28.03"/>
    </g>
    <g id="Down">
      <polyline class="cls-17" points="87.1 560.73 80.89 553.88 79.99 554.87 87.1 562.71 94.2 554.87 93.31 553.88"/>
      <polyline class="cls-7" points="87.1 560.73 80.89 553.88 79.99 554.87 87.1 562.71 94.2 554.87 93.31 553.88"/>
      <polygon class="cls-43" points="87.1 560.73 80.89 553.88 79.99 554.87 87.1 562.71 94.2 554.87 93.31 553.88 87.1 560.73"/>
      <rect class="cls-28" x="62.99" y="539.86" width="48.22" height="28.03"/>
    </g>
    <g id="Right">
      <polyline class="cls-17" points="133.98 510.89 127.13 517.1 128.12 518 135.96 510.89 128.12 503.79 127.13 504.69"/>
      <polyline class="cls-7" points="133.98 510.89 127.13 517.1 128.12 518 135.96 510.89 128.12 503.79 127.13 504.69"/>
      <polygon class="cls-43" points="133.98 510.89 127.13 517.1 128.12 518 135.96 510.89 128.12 503.79 127.13 504.69 133.98 510.89"/>
      <rect class="cls-28" x="112.32" y="488.25" width="29.62" height="48.53"/>
    </g>
    <g id="Left">
      <polyline class="cls-17" points="40.77 510.98 47.63 504.77 46.64 503.87 38.79 510.98 46.64 518.09 47.63 517.19"/>
      <polyline class="cls-7" points="40.77 510.98 47.63 504.77 46.64 503.87 38.79 510.98 46.64 518.09 47.63 517.19"/>
      <polygon class="cls-43" points="40.77 510.98 47.63 504.77 46.64 503.87 38.79 510.98 46.64 518.09 47.63 517.19 40.77 510.98"/>
      <rect class="cls-28" x="32.2" y="488.25" width="29.62" height="48.53"/>
    </g>
    <g id="Red1">
      <path class="cls-44" d="M51.3,628.66a5.68,5.68,0,0,1-5.57,5.78H27.79a5.68,5.68,0,0,1-5.56-5.78v-4.31a5.68,5.68,0,0,1,5.56-5.79H45.73a5.68,5.68,0,0,1,5.57,5.79"/>
      <path class="cls-16" d="M51.3,628.66a5.68,5.68,0,0,1-5.57,5.78H27.79a5.68,5.68,0,0,1-5.56-5.78v-4.31a5.68,5.68,0,0,1,5.56-5.79H45.73a5.68,5.68,0,0,1,5.57,5.79Z"/>
      <path class="cls-7" d="M37.71,626.86a1.34,1.34,0,1,1-1.34-1.34,1.34,1.34,0,0,1,1.34,1.34"/>
      <path class="cls-22" d="M37.71,626.86a1.34,1.34,0,1,1-1.34-1.34A1.34,1.34,0,0,1,37.71,626.86Z"/>
    </g>
    <g id="Green2">
      <path class="cls-45" d="M85.45,628.66a5.68,5.68,0,0,1-5.57,5.78H62a5.68,5.68,0,0,1-5.57-5.78v-4.31A5.69,5.69,0,0,1,62,618.56H79.88a5.68,5.68,0,0,1,5.57,5.79"/>
      <path class="cls-16" d="M85.45,628.66a5.68,5.68,0,0,1-5.57,5.78H62a5.68,5.68,0,0,1-5.57-5.78v-4.31A5.69,5.69,0,0,1,62,618.56H79.88a5.68,5.68,0,0,1,5.57,5.79Z"/>
      <path class="cls-7" d="M68.89,626.86a1.33,1.33,0,1,1-1.33-1.34,1.33,1.33,0,0,1,1.33,1.34"/>
      <path class="cls-22" d="M68.89,626.86a1.33,1.33,0,1,1-1.33-1.34A1.33,1.33,0,0,1,68.89,626.86Z"/>
      <path class="cls-7" d="M74.94,626.86a1.33,1.33,0,1,1-1.33-1.34,1.33,1.33,0,0,1,1.33,1.34"/>
      <path class="cls-22" d="M74.94,626.86a1.33,1.33,0,1,1-1.33-1.34A1.33,1.33,0,0,1,74.94,626.86Z"/>
    </g>
    <g id="Yellow3">
      <path class="cls-1" d="M118.88,628.66a5.68,5.68,0,0,1-5.56,5.78H95.38a5.68,5.68,0,0,1-5.57-5.78v-4.31a5.68,5.68,0,0,1,5.57-5.79h17.94a5.68,5.68,0,0,1,5.56,5.79"/>
      <path class="cls-16" d="M118.88,628.66a5.68,5.68,0,0,1-5.56,5.78H95.38a5.68,5.68,0,0,1-5.57-5.78v-4.31a5.68,5.68,0,0,1,5.57-5.79h17.94a5.68,5.68,0,0,1,5.56,5.79Z"/>
      <path class="cls-7" d="M102.39,629.18a1.33,1.33,0,1,1-1.33-1.33,1.33,1.33,0,0,1,1.33,1.33"/>
      <path class="cls-22" d="M102.39,629.18a1.33,1.33,0,1,1-1.33-1.33A1.33,1.33,0,0,1,102.39,629.18Z"/>
      <path class="cls-7" d="M105.68,623.82a1.33,1.33,0,1,1-1.33-1.34,1.33,1.33,0,0,1,1.33,1.34"/>
      <path class="cls-22" d="M105.68,623.82a1.33,1.33,0,1,1-1.33-1.34A1.33,1.33,0,0,1,105.68,623.82Z"/>
      <path class="cls-7" d="M109,629.18a1.34,1.34,0,1,1-1.33-1.33,1.34,1.34,0,0,1,1.33,1.33"/>
      <path class="cls-22" d="M109,629.18a1.34,1.34,0,1,1-1.33-1.33A1.34,1.34,0,0,1,109,629.18Z"/>
    </g>
    <g id="Blue4">
      <path class="cls-46" d="M152.68,628.66a5.68,5.68,0,0,1-5.57,5.78H129.17a5.68,5.68,0,0,1-5.57-5.78v-4.31a5.69,5.69,0,0,1,5.57-5.79h17.94a5.69,5.69,0,0,1,5.57,5.79"/>
      <path class="cls-16" d="M152.68,628.66a5.68,5.68,0,0,1-5.57,5.78H129.17a5.68,5.68,0,0,1-5.57-5.78v-4.31a5.69,5.69,0,0,1,5.57-5.79h17.94a5.69,5.69,0,0,1,5.57,5.79Z"/>
      <path class="cls-7" d="M136,624a1.33,1.33,0,1,1-1.33-1.34A1.32,1.32,0,0,1,136,624"/>
      <path class="cls-22" d="M136,624a1.33,1.33,0,1,1-1.33-1.34A1.32,1.32,0,0,1,136,624Z"/>
      <path class="cls-7" d="M142.91,624a1.33,1.33,0,1,1-1.33-1.34,1.32,1.32,0,0,1,1.33,1.34"/>
      <path class="cls-22" d="M142.91,624a1.33,1.33,0,1,1-1.33-1.34A1.32,1.32,0,0,1,142.91,624Z"/>
      <path class="cls-7" d="M136,629.32A1.33,1.33,0,1,1,134.7,628a1.33,1.33,0,0,1,1.33,1.34"/>
      <path class="cls-22" d="M136,629.32A1.33,1.33,0,1,1,134.7,628,1.33,1.33,0,0,1,136,629.32Z"/>
      <path class="cls-7" d="M142.91,629.32a1.33,1.33,0,1,1-1.33-1.34,1.33,1.33,0,0,1,1.33,1.34"/>
      <path class="cls-22" d="M142.91,629.32a1.33,1.33,0,1,1-1.33-1.34A1.33,1.33,0,0,1,142.91,629.32Z"/>
    </g>
    <g id="Stop">
      <path class="cls-15" d="M61.67,667.79c0,2.9-3.13,5.23-7,5.23H30.15c-3.87,0-7-2.33-7-5.23v-7.26c0-2.88,3.13-5.23,7-5.23H54.68c3.86,0,7,2.35,7,5.23"/>
      <path class="cls-16" d="M61.67,667.79c0,2.9-3.13,5.23-7,5.23H30.15c-3.87,0-7-2.33-7-5.23v-7.26c0-2.88,3.13-5.23,7-5.23H54.68c3.86,0,7,2.35,7,5.23Z"/>
      <rect class="cls-7" x="37.94" y="661.01" width="6.62" height="6.62"/>
    </g>
    <g id="Play">
      <path class="cls-15" d="M106.75,667.79c0,2.9-3.13,5.23-7,5.23H75.22c-3.86,0-7-2.33-7-5.23v-7.26c0-2.88,3.13-5.23,7-5.23H99.75c3.87,0,7,2.35,7,5.23"/>
      <path class="cls-16" d="M106.75,667.79c0,2.9-3.13,5.23-7,5.23H75.22c-3.86,0-7-2.33-7-5.23v-7.26c0-2.88,3.13-5.23,7-5.23H99.75c3.87,0,7,2.35,7,5.23Z"/>
      <polyline class="cls-7" points="85.12 668.98 85.12 660.48 90.98 664.78"/>
    </g>
    <g id="Pause">
      <path class="cls-15" d="M152.6,667.79c0,2.9-3.13,5.23-7,5.23H121.07c-3.86,0-7-2.33-7-5.23v-7.26c0-2.88,3.13-5.23,7-5.23h24.54c3.86,0,7,2.35,7,5.23"/>
      <path class="cls-16" d="M152.6,667.79c0,2.9-3.13,5.23-7,5.23H121.07c-3.86,0-7-2.33-7-5.23v-7.26c0-2.88,3.13-5.23,7-5.23h24.54c3.86,0,7,2.35,7,5.23Z"/>
      <rect class="cls-7" x="133.71" y="661.45" width="2.15" height="6.67"/>
      <rect class="cls-7" x="129.98" y="661.45" width="2.16" height="6.67"/>
    </g>
    <g id="Rew">
      <path class="cls-15" d="M61.67,694.28c0,2.88-3.13,5.22-7,5.22H30.15c-3.87,0-7-2.34-7-5.22V687c0-2.88,3.13-5.23,7-5.23H54.68c3.86,0,7,2.35,7,5.23"/>
      <path class="cls-16" d="M61.67,694.28c0,2.88-3.13,5.22-7,5.22H30.15c-3.87,0-7-2.34-7-5.22V687c0-2.88,3.13-5.23,7-5.23H54.68c3.86,0,7,2.35,7,5.23Z"/>
      <polyline class="cls-7" points="46.27 686.92 46.17 694.37 41.08 690.66"/>
      <polyline class="cls-7" points="40.85 686.92 40.75 694.37 35.65 690.66"/>
    </g>
    <g id="FF">
      <path class="cls-15" d="M106.75,694.28c0,2.88-3.13,5.22-7,5.22H75.22c-3.86,0-7-2.34-7-5.22V687c0-2.88,3.13-5.23,7-5.23H99.75c3.87,0,7,2.35,7,5.23"/>
      <path class="cls-16" d="M106.75,694.28c0,2.88-3.13,5.22-7,5.22H75.22c-3.86,0-7-2.34-7-5.22V687c0-2.88,3.13-5.23,7-5.23H99.75c3.87,0,7,2.35,7,5.23Z"/>
      <polyline class="cls-7" points="83.17 695.04 83.27 687.59 88.37 691.29"/>
      <polyline class="cls-7" points="88.59 695.04 88.69 687.59 93.78 691.29"/>
    </g>
    <g id="Rec">
      <path class="cls-15" d="M152.6,694.27c0,2.89-3.13,5.23-7,5.23H121.07c-3.86,0-7-2.34-7-5.23V687c0-2.88,3.13-5.23,7-5.23h24.54c3.86,0,7,2.35,7,5.23"/>
      <path class="cls-16" d="M152.6,694.27c0,2.89-3.13,5.23-7,5.23H121.07c-3.86,0-7-2.34-7-5.23V687c0-2.88,3.13-5.23,7-5.23h24.54c3.86,0,7,2.35,7,5.23Z"/>
      <text class="cls-26" transform="translate(118.88 695.16) scale(1 1.25)">REC</text>
      <path class="cls-7" d="M149.75,690.64a3.67,3.67,0,1,1-3.66-3.66,3.66,3.66,0,0,1,3.66,3.66"/>
    </g>
    <g id="AVMode">
      <path class="cls-15" d="M61.67,720.52c0,2.9-3.12,5.23-7,5.23H30.15c-3.87,0-7-2.33-7-5.23v-7.26c0-2.89,3.13-5.23,7-5.23H54.68c3.87,0,7,2.34,7,5.23"/>
      <path class="cls-16" d="M61.67,720.52c0,2.9-3.12,5.23-7,5.23H30.15c-3.87,0-7-2.33-7-5.23v-7.26c0-2.89,3.13-5.23,7-5.23H54.68c3.87,0,7,2.34,7,5.23Z"/>
      <text class="cls-47" transform="translate(25.22 721.11) scale(1 1.67)"><tspan class="cls-48">A</tspan><tspan x="4.86" y="0">V MODE</tspan></text>
    </g>
    <g id="Simplink">
      <path class="cls-15" d="M106.75,720.52c0,2.9-3.13,5.23-7,5.23H75.23c-3.87,0-7-2.33-7-5.23v-7.26c0-2.89,3.13-5.23,7-5.23H99.76c3.86,0,7,2.34,7,5.23"/>
      <path class="cls-16" d="M106.75,720.52c0,2.9-3.13,5.23-7,5.23H75.23c-3.87,0-7-2.33-7-5.23v-7.26c0-2.89,3.13-5.23,7-5.23H99.76c3.86,0,7,2.34,7,5.23Z"/>
      <path class="cls-7" d="M73.44,715a.72.72,0,0,0-.68.73v.93a.7.7,0,0,0,.66.73h2.65v.85H72.8v.83h3.36a.69.69,0,0,0,.68-.71v-1.06a.74.74,0,0,0-.68-.76l-2.63,0v-.73H76.8V715"/>
      <path class="cls-7" d="M97.26,715a.71.71,0,0,0-.69.73l0,3.35h.76V715.8h2.34V719h.78v-3.35a.71.71,0,0,0-.68-.73"/>
      <path class="cls-7" d="M90.35,715v3.37a.7.7,0,0,0,.67.73l3.06,0v-.81h-3V715"/>
      <path class="cls-7" d="M83.57,715H80.2a.71.71,0,0,0-.68.73l0,3.35h.8V715.8h1.2v3.25h.78v-3.26h1.22V719h.77v-3.35a.71.71,0,0,0-.68-.73"/>
      <path class="cls-7" d="M85.24,715v4.1H86v-3.26l2.72,0v1.05H86.58v.83h2.28a.69.69,0,0,0,.65-.74V715.7a.71.71,0,0,0-.69-.73"/>
      <polyline class="cls-7" points="104.35 719.05 105.36 719.05 103.21 716.58 105.25 714.96 104.17 714.96 102.33 716.46 101.99 716.46 101.98 714.97 101.22 714.97 101.21 719.06 101.99 719.06 101.99 717.34 102.92 717.34"/>
      <path class="cls-7" d="M71.87,714.32a.87.87,0,0,1-.83.9.89.89,0,0,1-.84-.9.84.84,0,1,1,1.67,0"/>
      <path class="cls-7" d="M70,717.09a5,5,0,0,0,1.23,3.29,4.2,4.2,0,0,0,3.21,1.47,4.31,4.31,0,0,0,3.75-2.32l.08-.14h-.44a4.06,4.06,0,0,1-3.39,2,3.85,3.85,0,0,1-2.91-1.33,4.56,4.56,0,0,1-1.12-3,3.85,3.85,0,0,1,.23-1.47l-.26-.24a3.28,3.28,0,0,0-.38,1.71"/>
      <path class="cls-7" d="M74.39,712.25a3.87,3.87,0,0,0-2.58.93l.17.32,0,0,.06,0a3.41,3.41,0,0,1,2.3-.81,3.9,3.9,0,0,1,3.33,1.89l.37,0h.15l-.09-.14a4.33,4.33,0,0,0-3.76-2.25"/>
      <rect class="cls-7" x="94.79" y="714.96" width="0.79" height="4.11"/>
      <rect class="cls-7" x="77.88" y="714.96" width="0.79" height="4.11"/>
    </g>
  </g>
</svg>
